<svg width="16" height="14" viewBox="0 0 16 14" fill="none" xmlns="http://www.w3.org/2000/svg">
<path d="M15.751 9.13498H15.1195C15.0522 7.78374 14.325 6.54157 13.0411 5.59105C12.1566 4.93624 11.0631 4.4767 9.90991 4.23819V4.00121C9.90991 3.58207 9.47747 3.23672 8.97297 3.19831V2.42589C9.1907 2.30363 9.36811 2.14114 9.49005 1.95231C9.61199 1.76347 9.67484 1.5539 9.67322 1.34148C9.67424 1.16561 9.63171 0.991309 9.54806 0.82859C9.46441 0.66587 9.34129 0.517938 9.18577 0.393289C9.03025 0.268639 8.8454 0.169728 8.64184 0.102236C8.43827 0.0347438 8.22 0 7.99955 0C7.7791 0 7.56083 0.0347438 7.35726 0.102236C7.1537 0.169728 6.96885 0.268639 6.81333 0.393289C6.65781 0.517938 6.53469 0.66587 6.45104 0.82859C6.36739 0.991309 6.32486 1.16561 6.32588 1.34148C6.32443 1.55395 6.38745 1.76355 6.50954 1.95238C6.63163 2.14121 6.80918 2.30367 7.02703 2.42589V3.19831C6.52253 3.23672 6.0901 3.58207 6.0901 4.00121V4.23819C4.93695 4.47682 3.84336 4.93624 2.9589 5.59105C1.67497 6.54157 0.947767 7.78374 0.880524 9.13498H0.248958C0.182032 9.13574 0.118223 9.15767 0.0715468 9.19594C0.0248711 9.23421 -0.000854225 9.2857 2.16549e-05 9.3391V10.455C-0.000815241 10.5083 0.0249374 10.5597 0.071618 10.598C0.118299 10.6362 0.182086 10.658 0.248958 10.6587H2.16218V11.6362H0.248958C0.216391 11.6356 0.184005 11.6402 0.15372 11.6498C0.123435 11.6594 0.0958674 11.6737 0.0726521 11.6919C0.0494367 11.7102 0.0310458 11.7319 0.0185697 11.7559C0.00609361 11.78 -0.00021367 11.8057 2.16549e-05 11.8317V12.9476C2.16549e-05 13.0587 0.109643 13.16 0.248958 13.16H15.751C15.8904 13.16 16 13.0587 16 12.9476V11.8317C16.0002 11.8057 15.9939 11.78 15.9814 11.7559C15.969 11.7319 15.9506 11.7102 15.9273 11.6919C15.9041 11.6737 15.8766 11.6594 15.8463 11.6498C15.816 11.6402 15.7836 11.6356 15.751 11.6362H13.8378V10.6587H15.751C15.8179 10.658 15.8817 10.6362 15.9284 10.598C15.975 10.5598 16.0008 10.5083 16 10.455V9.3391C16.0009 9.2857 15.9751 9.23421 15.9285 9.19594C15.8818 9.15767 15.818 9.13574 15.751 9.13498ZM8 0.406192C8.23186 0.406192 8.45852 0.461046 8.65131 0.563816C8.84409 0.666587 8.99435 0.812659 9.08308 0.983561C9.17181 1.15446 9.19503 1.34252 9.1498 1.52395C9.10456 1.70537 8.99291 1.87203 8.82896 2.00283C8.665 2.13363 8.45612 2.22271 8.22871 2.2588C8.0013 2.29489 7.76559 2.27636 7.55137 2.20557C7.33716 2.13478 7.15407 2.01491 7.02525 1.8611C6.89643 1.70729 6.82768 1.52646 6.82768 1.34148C6.82802 1.09351 6.95164 0.855775 7.17142 0.680434C7.3912 0.505093 7.68919 0.406466 8 0.406192ZM8 2.67927C8.15873 2.67967 8.31664 2.66108 8.46847 2.62412V3.18377H7.53153V2.62412C7.68336 2.66108 7.84127 2.67967 8 2.67927ZM6.5946 4.00121C6.59736 3.89181 6.65309 3.78751 6.7501 3.71016C6.8471 3.63281 6.97787 3.58841 7.11499 3.58626H8.88501C9.02213 3.58841 9.1529 3.63281 9.2499 3.71016C9.34691 3.78751 9.40264 3.89181 9.4054 4.00121V4.15045C8.4759 4.01732 7.5241 4.01732 6.5946 4.15045V4.00121ZM3.30902 5.88608C4.17565 5.24827 5.2374 4.80365 6.38761 4.59688C6.40328 4.59549 6.41875 4.59291 6.43381 4.58917C7.46552 4.40742 8.53453 4.40751 9.56619 4.58946C9.58124 4.59332 9.59671 4.59603 9.61239 4.59757C10.7625 4.80406 11.8243 5.24844 12.691 5.88605C13.8707 6.75944 14.5474 7.89873 14.6146 9.13498H1.38539C1.45256 7.89873 2.12931 6.75947 3.30902 5.88608ZM15.4955 12.7575H0.504525V12.0387H15.4955V12.7575ZM13.3333 11.6362H2.66668V10.6587H13.3333V11.6362ZM15.4955 10.2562H0.504525V9.53747H15.4955V10.2562Z" fill="white"/>
</svg>
