<svg width="335" height="335" viewBox="0 0 335 335" fill="none" xmlns="http://www.w3.org/2000/svg">
<path d="M352.448 245.272C351.646 244.434 349.761 244.938 350.205 245.99C351.156 248.251 352.643 250.545 353.285 252.833C355.832 261.921 345.369 263.246 336.969 258.585C333.012 256.387 330.438 253.33 327.153 250.535C319.973 244.428 311.194 239.777 302.131 235.968C293.818 232.476 285.123 229.726 276.355 227.482C269.218 225.655 261.524 224.995 254.558 223.008C256.444 220.367 257.261 217.935 256.777 214.594C256.603 213.397 254.227 208.185 256.384 207.6C261.48 206.218 263.706 202.442 263.756 198.164C271.819 202.527 291.65 211.825 297.03 214.175C298.717 215.621 300.505 217.031 302.358 218.404C298.122 216.689 293.869 215.011 289.617 213.325C285.194 211.575 280.756 209.711 276.275 207.947C274.514 206.962 272.749 205.991 270.98 205.049C270.958 205.037 270.933 205.032 270.908 205.035C270.884 205.037 270.864 205.048 270.85 205.063C270.837 205.079 270.833 205.099 270.838 205.119C270.843 205.139 270.857 205.158 270.877 205.172C271.585 205.68 272.309 206.186 273.028 206.697C257.788 200.943 262.494 203.888 277.619 209.885C308.778 231.129 320.18 233.864 283.982 212.386C290.585 214.966 297.734 217.931 306.253 221.188C315.197 227.357 321.052 230.533 311.745 223.238C312.748 223.607 313.743 223.983 314.752 224.342C315.263 224.524 315.474 223.95 314.995 223.735C313.029 222.866 311.052 222.015 309.065 221.18C306.87 219.527 304.602 217.915 302.289 216.385C304.663 217.332 307.058 218.188 309.466 218.981C330.905 233.291 329.694 229.601 314.105 220.376C314.497 220.485 314.89 220.6 315.284 220.701C318.336 222.385 322.784 224.096 326.93 224.605C334.865 231.68 337.303 231.662 329.409 224.744C338.337 224.67 339.925 216.906 334.1 211.065C340.995 210.284 351.394 208.928 354.08 203.62C356.596 198.65 350.867 195.138 345.677 192.817C325.62 183.847 307.474 172.663 292.238 158.571C297.074 153.077 291.555 144.806 287.965 139.147C266.515 105.349 283.792 50.2249 213.209 32.4967C197.922 25.8882 177.386 26.9904 163.386 30.493C145.791 34.8934 131.89 45.5516 126.269 59.8463C121.035 73.1604 123.078 85.9219 132.024 99.5044C134.687 103.553 138.086 107.644 142.104 111.177C127.516 107.186 113.001 106.907 99.1926 110.848C90.05 113.457 81.0592 117.349 75.6181 123.862C69.9134 130.682 67.0013 139.58 64.7896 147.805C57.5021 174.903 65.7996 209.634 102.1 224.871C116.659 230.983 132.818 232.923 148.212 233.54C165.061 234.223 181.793 233.916 198.276 232.621C216.479 231.156 245.272 226.108 246.809 225.737C258.496 227.149 270.123 229.573 281.487 232.966C296.275 237.345 312.032 243.361 323.428 252.969C330.529 258.956 337.882 266.005 348.756 264.34C359.291 262.727 358.588 251.667 352.448 245.272ZM263.589 195.759C261.992 186.146 251.171 179.41 241.078 172.102C236.651 168.896 232.132 165.278 227.408 161.972C242.417 168.278 254.799 181.849 265.033 172.485C271.54 178.161 279.794 181.652 292.479 195.787C297.519 201.406 301.34 208.273 306.719 213.939C298.512 210.236 264.91 196.332 263.588 195.758L263.589 195.759ZM280.177 163.19C282.203 163.342 284.207 164.231 286.266 166.009C292.102 171.045 298.402 175.655 304.896 180.105C305.285 180.374 305.768 179.944 305.427 179.638C299.189 173.985 292.228 167.99 284.875 163.125C286.647 162.681 288.25 161.948 289.597 160.967C292.711 164.673 305.758 175.733 320.665 184.56C320.535 184.596 320.431 184.67 320.37 184.768C320.31 184.867 320.297 184.984 320.334 185.1C320.741 186.567 321.181 188.038 321.619 189.511C320.661 188.911 319.696 188.313 318.701 187.746C318.288 186.212 317.782 184.686 317.183 183.174C317.148 183.059 317.06 182.954 316.938 182.881C316.816 182.808 316.67 182.773 316.531 182.783C316.391 182.793 316.268 182.847 316.189 182.934C316.109 183.021 316.078 183.135 316.103 183.251C316.34 184.407 316.598 185.604 316.938 186.799C315.659 186.109 314.365 185.461 313.058 184.856C312.784 184.349 312.684 184.225 312.831 184.752C309.668 183.298 310.653 184.075 313.113 185.769C313.494 187.154 313.892 188.608 314.364 190.051C304.134 183.959 304.016 185.599 314.779 191.246C315.196 192.432 315.714 193.604 316.33 194.752C313.502 192.332 310.269 190.152 307.168 188.007C306.653 187.652 305.943 188.255 306.447 188.641C309.903 191.29 313.404 194.113 317.361 196.312C317.422 196.347 317.492 196.368 317.563 196.373C317.634 196.379 317.702 196.367 317.76 196.341C317.818 196.315 317.864 196.274 317.891 196.224C317.918 196.175 317.926 196.118 317.914 196.06C317.694 194.795 317.322 193.535 316.806 192.297C320.984 194.401 320.39 193.777 316.376 191.269C315.615 189.56 314.699 187.858 313.816 186.245C315.013 187.046 316.254 187.823 317.522 188.569C317.786 189.295 318.11 190.012 318.491 190.715C318.531 190.775 318.591 190.826 318.665 190.86C318.738 190.894 318.82 190.91 318.898 190.904C318.977 190.898 319.047 190.871 319.1 190.828C319.153 190.784 319.184 190.726 319.19 190.663C319.173 190.258 319.103 189.847 319.041 189.436C320.042 189.996 321.055 190.541 322.072 191.059C324.507 198.949 325.321 199.693 323.406 191.727C324.143 192.088 324.881 192.441 325.617 192.78C325.975 192.943 326.158 192.53 325.885 192.335C324.989 191.699 324.048 191.075 323.101 190.456C322.663 188.692 322.201 186.929 321.716 185.178C341.916 196.957 341.914 193.592 346.748 199.354C349.895 201.222 350.167 202.57 347.564 203.397C344.571 205.815 336.76 206.946 331.444 208.983C331.084 208.766 330.71 208.566 330.325 208.384C329.237 207.876 328.108 208.777 328.352 209.638C329.467 213.541 331.794 213.619 329.007 217.476C326.903 220.382 325.606 220.457 322.753 219.33C322.296 218.974 321.904 218.544 321.439 218.783C309.258 213.557 306.555 205.356 298.912 196.425C291.469 187.726 279.283 175.539 266.618 170.885C267.237 170.205 267.843 169.493 268.457 168.78C274.719 173.191 283.135 180.777 290.957 183.11C287.862 178.964 280.777 175.324 276.204 172.316C270.337 168.458 268.263 167.544 274.59 164.451C276.509 163.511 278.352 163.053 280.177 163.19ZM132.487 60.043C133.727 57.2815 135.314 54.6607 137.227 52.2181C137.535 54.4221 138.172 56.6218 139.123 58.7681C137.489 60.7734 136.116 62.9266 135.023 65.1984C134.132 63.8477 133.361 62.4567 132.718 61.0374C132.651 60.8923 132.377 60.9272 132.373 61.0661C132.384 63.0885 133.012 65.142 134.203 67.0452C133.878 67.8446 133.57 68.6571 133.305 69.4931C132.903 70.7588 132.557 72.1308 132.272 73.5626C131.363 72.7135 130.511 71.8264 129.722 70.9062C130.037 67.1406 130.966 63.4886 132.487 60.043ZM136.254 78.5708C136.079 81.094 136.272 83.6633 136.828 86.2268C136.011 85.6106 135.189 84.9981 134.36 84.3891C134.329 84.1772 134.282 83.9649 134.255 83.7512C134.005 81.547 133.957 79.3519 134.112 77.1841C134.801 77.6735 135.516 78.1364 136.255 78.571L136.254 78.5708ZM134.295 75.3303C134.53 73.2781 134.95 71.2615 135.552 69.2961C135.58 69.2055 135.614 69.1205 135.642 69.032C136.275 69.7949 136.979 70.5209 137.748 71.2022C137.347 72.2898 137.027 73.4033 136.789 74.5374C136.63 75.3125 136.501 76.1155 136.404 76.9294C135.676 76.4142 134.973 75.8814 134.296 75.3308L134.295 75.3303ZM138.445 79.7407C139.718 80.3775 141.049 80.9197 142.419 81.3597C142.494 81.3781 142.572 81.3783 142.641 81.3602C142.302 84.76 142.618 88.2497 143.578 91.7077C142.402 90.67 141.189 89.6574 139.948 88.6642C139.139 85.6903 138.545 82.7475 138.446 79.741L138.445 79.7407ZM138.428 78.2972C138.443 77.6102 138.476 76.9202 138.556 76.2229C138.696 74.9669 138.942 73.6906 139.248 72.4157C140.708 73.4955 142.341 74.402 144.086 75.1022C143.398 76.9326 142.938 78.835 142.71 80.7837C141.24 80.0104 139.811 79.1806 138.429 78.2975L138.428 78.2972ZM139.764 70.5186C140.417 68.3419 141.326 66.2451 142.479 64.2546C143.91 66.0456 145.619 67.696 147.557 69.1581C146.351 70.608 145.365 72.184 144.618 73.8571C142.869 72.8858 141.241 71.7655 139.765 70.5189L139.764 70.5186ZM138.479 69.3782C137.711 68.6282 137.001 67.8421 136.356 67.0254C137.273 64.6649 138.439 62.3952 139.842 60.2393C140.464 61.4217 141.198 62.5732 142.036 63.6823C140.594 65.4499 139.402 67.3589 138.479 69.3787L138.479 69.3782ZM130.327 81.4697C129.774 78.6736 129.531 75.875 129.601 73.1083C130.325 73.9195 131.108 74.6976 131.946 75.4375C131.6 77.7087 131.468 80.0197 131.552 82.3512C131.145 82.0568 130.736 81.7649 130.328 81.47L130.327 81.4697ZM130.763 83.4371C131.065 83.6683 131.367 83.8966 131.669 84.128C131.804 85.6353 132.064 87.1465 132.446 88.6514C131.768 86.9281 131.207 85.1873 130.765 83.4374L130.763 83.4371ZM137.568 95.1089C136.667 92.2116 135.493 89.3859 134.775 86.4719C135.655 87.1262 136.542 87.7726 137.437 88.4111C138.146 90.6521 139.31 92.8268 140.879 94.8412C141.148 95.1806 141.864 95.1309 141.725 94.6783C141.295 93.2686 140.869 91.8854 140.465 90.5077C141.466 91.1786 142.477 91.8358 143.506 92.4736C143.554 92.5026 143.61 92.5217 143.666 92.5291C143.723 92.5364 143.779 92.5317 143.829 92.5154C144.48 94.6197 145.416 96.6874 146.62 98.6785C143.851 98.4903 140.818 97.4051 137.57 95.1094L137.568 95.1089ZM144.606 83.4857C144.66 80.8306 145.073 78.2256 145.838 75.7166C146.305 75.8526 146.773 75.9749 147.248 76.0766C147.877 76.2109 147.907 75.5082 147.422 75.2827C146.982 75.0801 146.592 74.8641 146.174 74.6541C146.726 72.9357 147.374 71.2368 148.067 69.5313C148.68 69.9749 149.309 70.4106 149.978 70.8254C150.313 71.0326 150.756 70.6765 150.435 70.4226C149.734 69.8697 149.061 69.2976 148.398 68.7221C148.482 68.5181 148.561 68.3157 148.649 68.1128C148.653 68.1009 148.651 68.0878 148.644 68.0757C148.637 68.0635 148.626 68.0533 148.611 68.0467C148.597 68.0402 148.581 68.0377 148.566 68.0399C148.551 68.042 148.538 68.0486 148.529 68.0584C148.388 68.1989 148.273 68.3574 148.134 68.5023C146.287 66.8677 144.608 65.1167 143.119 63.2715C144.254 61.4796 145.661 59.8296 147.314 58.3553C145.657 59.7424 144.14 61.2376 142.775 62.8294C141.899 61.7252 141.104 60.5855 140.394 59.4173C143.661 54.6791 148.126 50.5331 153.661 47.7226L153.654 47.7147C147.979 50.4638 143.268 53.9142 139.677 58.0951C138.628 56.1299 137.848 54.1014 137.352 52.0499C145.945 41.1259 161.098 33.4573 179.946 32.195C184.268 33.0365 186.599 33.6934 190.76 35.4353C176.059 34.1652 167.021 41.3975 170.333 40.228C176.774 37.9526 184.324 35.8875 192.007 35.9769C194.778 37.2015 197.471 38.5647 200.149 39.9833C200.287 40.0585 200.446 40.0988 200.602 40.0982C200.758 40.0977 200.903 40.0564 201.017 39.9803C204.794 45.6683 201.263 51.6732 196.061 55.1404C188.973 59.8656 178.532 60.3849 172.209 65.9198C166.87 70.5974 165.489 77.1637 163.561 83.358C163.48 83.2656 163.389 83.1788 163.289 83.0989C162.4 82.4293 161.464 81.809 160.536 81.1811C160.376 81.0666 160.191 80.979 159.995 80.9246C159.798 80.8701 159.595 80.85 159.4 80.8658C159.688 80.6843 159.879 80.4193 159.939 80.1147C159.999 79.8102 159.925 79.4845 159.73 79.1918C158.597 77.341 155.256 78.4071 156.391 80.2617C156.91 81.1083 157.882 81.3227 158.686 81.1499C158.082 81.6132 157.923 82.5236 158.87 83.162C159.8 83.7925 160.719 84.4204 161.689 85.006C161.877 85.1157 162.088 85.1934 162.305 85.2337C162.523 85.2739 162.743 85.2758 162.95 85.2391C160.719 91.7151 155.365 98.4577 147.916 98.7004C145.992 93.6425 144.551 88.6335 144.607 83.4861L144.606 83.4857ZM139.95 101.308C142.48 102.359 145.335 102.782 148.148 102.671C154.043 104.722 160.131 106.592 166.122 107.982C166.698 108.115 166.791 107.419 166.288 107.22C161.471 105.346 156.557 103.695 151.571 102.275C153.529 101.909 155.369 101.294 157.027 100.453C170.182 93.688 166.177 77.2615 176.485 68.8364C186.031 61.0399 204.223 61.7246 207.175 48.5364C208.848 41.0728 204.088 36.1122 197.237 32.6702C223.525 35.5497 243.613 47.8805 253.817 61.1074C266.845 78.0008 267.96 97.8527 272.929 116.141C280.8 145.116 294.399 148.51 282.123 154.964C276.428 147.638 272.237 141.03 269.017 133.12C269.315 132.739 269.051 132.448 268.632 132.16C264.54 121.842 262.091 111.616 257.326 100.661C263.658 103.28 262.551 103.048 257.17 100.301C252.65 90.0071 246.295 79.9678 235.559 72.6888C235.481 72.6371 235.38 72.7224 235.452 72.7811C244.786 80.4592 250.621 89.5543 254.869 99.1162C251.166 97.18 247.45 95.1738 243.651 93.4433C229.388 74.1454 229.072 76.0895 241.095 92.3454C234.809 89.7509 234.641 90.8256 242.792 94.6307C246.736 99.9134 246.583 99.6983 250.547 105.173C246.988 103.667 244.871 104.665 252.042 107.219C253.696 109.495 255.381 111.76 257.113 113.997C248.854 109.624 247.932 108.902 245.648 108.327C241.828 102.276 237.425 96.4338 232.485 90.8609C236.06 92.1031 235.878 92.0527 232.315 90.6693C228.021 85.7922 223.244 81.0857 217.797 77.2018C217.638 77.0885 217.467 77.2651 217.583 77.3893C221.446 81.4767 225.418 85.4152 229.218 89.4645C219.08 85.4395 217.459 84.4438 214.174 83.7488C213.782 83.6656 213.609 84.1307 213.947 84.316C216.863 85.8986 218.499 86.0963 229.584 89.8552C232.626 93.0569 235.451 96.3799 238.045 99.8066C235.5 98.5094 232.961 97.2079 230.392 95.9421C227.507 94.5213 224.506 92.6751 221.371 91.7914C221.233 91.7455 221.086 91.7394 220.955 91.7744C220.825 91.8094 220.72 91.883 220.661 91.9821C220.601 92.0811 220.59 92.1989 220.63 92.3143C220.67 92.4296 220.757 92.5348 220.877 92.6109C223.428 94.443 226.828 95.6618 229.743 97.0172C232.85 98.4592 235.991 99.8458 239.118 101.255C246.048 110.743 256.922 130.968 250.975 118.119C251.777 118.734 252.635 119.295 253.542 119.796C254.485 121.252 255.422 122.712 256.352 124.176C256.269 124.164 256.188 124.172 256.117 124.199C256.046 124.225 255.988 124.269 255.952 124.324C255.915 124.38 255.901 124.446 255.911 124.513C255.921 124.58 255.954 124.645 256.007 124.702C256.49 125.179 257.019 125.642 257.564 126.096C258.502 127.583 259.446 129.07 260.386 130.559C258.985 129.872 258.538 130.356 261.853 132.871C274.618 152.903 280.737 158.597 275.414 149.808C276.861 151.908 278.531 153.918 280.402 155.811C274.211 158.631 270.269 159.193 265.132 165.334C260.769 162.82 260.568 162.813 264.622 165.959C263.029 167.923 262.103 169.867 260.244 170.825C254.552 173.762 247.737 169.159 240.402 165.277C241.05 165.382 241.698 165.502 242.347 165.585C242.618 165.62 242.716 165.279 242.431 165.204C241.146 164.867 239.853 164.576 238.557 164.306C234.903 162.364 231.154 160.563 227.322 158.911C230.365 159.572 233.433 160.197 236.485 160.551C255.555 170.599 256.917 169.099 255.178 168.141C248.206 164.294 240.729 161.124 233.628 157.44C235.12 157.758 236.612 158.061 238.106 158.35C252.655 165.475 258.689 166.051 256.399 164.937C252.394 162.986 248.371 161.13 244.362 159.27C244.362 159.27 233.787 154.457 226.067 150.262C228.623 150.673 231.171 151.028 233.71 151.33C239.241 154.253 245.036 156.778 251.017 158.869C251.41 159.005 251.726 158.552 251.328 158.354C247.016 156.199 242.704 154.032 238.423 151.818C242.892 152.208 240.201 151.46 235.771 150.437C232.866 148.914 229.986 147.362 227.132 145.78C229.753 146.017 232.365 146.069 234.938 145.934C234.998 145.928 235.051 145.905 235.087 145.868C235.123 145.831 235.139 145.783 235.134 145.733C235.128 145.682 235.101 145.633 235.056 145.593C235.012 145.554 234.953 145.527 234.892 145.518C231.131 145.001 227.411 144.464 223.718 143.852C220.865 142.212 218.053 140.522 215.284 138.783C216.478 138.776 217.665 138.741 218.849 138.664C219.157 138.645 219.13 138.215 218.8 138.203C217.197 138.144 215.569 138.049 213.929 137.927C211.093 136.11 208.316 134.222 205.599 132.264C207.852 132.287 210.079 132.16 212.26 131.883C212.476 131.856 212.48 131.55 212.223 131.538C209.432 131.419 206.647 131.262 203.872 131.014C201.826 129.494 199.823 127.925 197.862 126.306C197.85 126.297 197.834 126.31 197.846 126.319C199.684 127.883 201.552 129.434 203.45 130.972C200.728 130.729 198.006 130.366 195.295 129.887C193.312 128.349 191.373 126.778 189.457 125.192C194.232 125.778 199.002 125.872 203.65 125.469C203.694 125.463 203.732 125.444 203.756 125.414C203.779 125.385 203.787 125.348 203.777 125.31C203.768 125.273 203.741 125.238 203.703 125.213C203.666 125.187 203.619 125.174 203.573 125.174C198.432 125.225 193.229 124.84 188.047 124.025C187.889 123.893 187.728 123.765 187.571 123.633C187.566 123.63 187.56 123.628 187.554 123.628C187.547 123.627 187.542 123.629 187.537 123.632C187.533 123.635 187.53 123.639 187.529 123.644C187.529 123.649 187.53 123.654 187.534 123.658C187.659 123.777 187.786 123.89 187.909 124.006C184.839 123.52 181.785 122.881 178.765 122.092C177.791 121.368 176.814 120.645 175.837 119.924C177.416 120.319 178.997 120.72 180.584 121.089C180.899 121.162 180.976 120.76 180.68 120.659C178.383 119.872 176.075 119.116 173.756 118.391C173.259 118.026 172.767 117.66 172.271 117.295C172.048 117.131 171.768 117.388 171.96 117.57C172.115 117.713 172.28 117.853 172.433 117.997C168.039 116.647 163.607 115.423 159.134 114.36C157.386 113.397 155.679 112.379 154.03 111.287C154.004 111.269 153.977 111.301 154.001 111.32C155.431 112.326 156.904 113.277 158.397 114.195C157.012 113.869 155.627 113.544 154.232 113.253C148.615 110.026 143.75 105.957 139.951 101.308L139.95 101.308ZM251.996 117.439C251.661 117.293 250.718 116.823 250.402 116.914C249.332 114.7 248.158 112.513 246.88 110.353C247.124 110.502 258.785 116.276 259.016 116.391C259.291 116.731 261.811 120.033 262.268 120.008C262.722 121.441 263.181 122.878 263.653 124.313C252.478 117.561 253.418 118.087 252.239 117.542C248.562 112.453 248.611 112.321 251.996 117.439ZM259.025 109.846C259.811 112.159 260.423 114.102 261.034 116.069C260.704 115.892 260.371 115.718 260.039 115.542C258.369 113.1 256.613 110.685 254.816 108.286C255.049 108.376 258.784 109.86 259.025 109.846ZM253.458 106.474C250.294 102.295 248.85 100.473 245.387 95.7896C248.597 97.1802 251.904 98.4608 255.155 99.7669C256.433 102.697 257.566 105.668 258.607 108.653C256.887 107.935 255.17 107.209 253.458 106.474ZM261.244 117.329C261.304 117.322 261.362 117.309 261.416 117.29L261.6 117.876C261.479 117.695 261.365 117.512 261.243 117.329L261.244 117.329ZM264.123 125.706C264.609 127.147 265.115 128.586 265.639 130.024C263.051 128.135 260.374 126.18 257.559 124.739C256.398 123.2 255.25 121.657 254.114 120.111C255.088 120.648 261.747 124.37 264.123 125.706L264.123 125.706ZM266.426 132.123C266.823 133.156 267.236 134.188 267.666 135.216C266.163 134.132 264.633 133.028 263.049 132.041C262.017 130.662 260.981 129.283 259.942 127.905C262.034 129.379 264.311 130.759 266.426 132.123ZM268.608 137.397C269.87 140.275 271.311 143.115 272.924 145.908C271.082 143.135 268.649 139.647 265.538 135.408C266.576 136.081 267.611 136.738 268.608 137.397L268.608 137.397ZM222.709 157.108C221.701 156.74 220.68 156.383 219.635 156.045C218.661 155.207 217.686 154.367 216.705 153.534C220.665 154.475 224.626 155.432 228.599 156.335C231.6 157.97 230.899 157.592 233.666 159.061C232.912 158.875 223.054 156.593 222.709 157.108ZM162.847 116.279C166.571 117.445 170.323 118.526 174.105 119.499C174.8 120.127 175.48 120.761 176.192 121.377C171.595 120.043 167.122 118.334 162.847 116.279ZM165.509 118.094C161.795 116.953 158.217 115.441 154.866 113.596C156.881 114.328 158.903 115.031 160.941 115.69C162.439 116.537 163.957 117.346 165.51 118.094L165.509 118.094ZM177.96 122.859C179.285 123.976 180.633 125.078 182.004 126.167C177.501 124.452 173.178 122.414 168.765 120.33C168.731 120.314 168.679 120.344 168.718 120.374C173.365 124.025 179.283 126.932 185.602 128.969C188.041 130.81 190.544 132.599 193.07 134.363C191.952 134.042 190.844 133.701 189.746 133.333C182.696 128.83 175.298 124.731 167.618 121.072C167.9 120.838 168.072 120.528 168.11 120.186C168.148 119.845 168.051 119.488 167.831 119.166C171.106 120.622 174.495 121.857 177.96 122.859L177.96 122.859ZM221.559 147.717C219.884 146.733 218.752 146.088 214.735 143.536C217.561 144.298 220.425 144.897 223.306 145.327C225.411 146.652 227.549 147.931 229.722 149.162C227.013 148.637 224.292 148.155 221.559 147.717ZM222.113 149.591C226.023 151.923 230.091 154.232 234.274 156.413C232.732 156.043 231.184 155.677 229.637 155.327C225.716 153.228 221.841 151.065 218.012 148.839C219.378 149.097 220.745 149.348 222.113 149.591L222.113 149.591ZM211.352 141.358C209.817 140.345 208.293 139.318 206.781 138.277C209.065 138.564 211.351 138.73 213.623 138.775C215.724 140.293 217.861 141.773 220.034 143.214C217.123 142.679 214.232 142.066 211.352 141.358ZM207.986 140.46C205.798 139.852 203.615 139.198 201.442 138.439C200.697 137.935 199.965 137.416 199.226 136.907C200.988 137.337 202.766 137.69 204.552 137.963C205.685 138.806 206.83 139.638 207.986 140.461L207.986 140.46ZM204.827 136.912C202.411 135.213 200.033 133.479 197.694 131.709C200.153 132.039 202.615 132.223 205.06 132.26C207.412 134.134 209.809 135.973 212.251 137.777C209.792 137.564 207.313 137.29 204.827 136.912L204.827 136.912ZM202.636 136.535C200.765 136.209 198.898 135.834 197.048 135.401C194.589 133.677 192.151 131.933 189.735 130.169C191.933 130.727 194.155 131.178 196.388 131.517C198.431 133.224 200.507 134.904 202.637 136.535L202.636 136.535ZM189.903 128.714C188.68 128.397 187.483 128.037 186.3 127.663C184.479 126.324 182.66 124.981 180.843 123.632C183.589 124.301 186.366 124.81 189.152 125.155C190.809 126.687 192.488 128.195 194.204 129.673C192.77 129.393 191.335 129.086 189.904 128.714L189.903 128.714ZM195.037 135.734C200.313 139.35 205.686 142.792 211.192 146.2C209.803 146.01 208.42 145.822 207.043 145.636C202.162 141.736 197.043 138.041 191.711 134.568C192.805 134.982 193.91 135.374 195.036 135.735L195.037 135.734ZM203.258 139.644C205.673 140.632 208.146 141.536 210.656 142.339C213.098 144.009 215.604 145.624 218.16 147.198C216.871 147.005 215.584 146.818 214.297 146.635C212.648 145.646 209.656 143.916 203.258 139.644L203.258 139.644ZM214.371 148.14C217.834 150.24 221.34 152.287 224.886 154.281C221.62 153.577 218.354 152.878 215.089 152.183C213.019 150.443 210.92 148.724 208.794 147.024C210.645 147.399 212.504 147.771 214.371 148.14L214.371 148.14ZM77.5442 200.116C77.4863 200.032 77.4232 199.949 77.3664 199.861C77.5281 199.95 77.6857 200.037 77.8485 200.122C77.7477 200.123 77.646 200.113 77.5444 200.117L77.5442 200.116ZM72.7394 191.265C72.6595 191.167 72.5536 191.084 72.4311 191.022C71.4262 188.768 70.576 186.485 69.8848 184.184C74.0477 190.452 81.753 195.656 89.6738 198.723C82.3479 200.04 76.8336 196.542 72.7395 191.265L72.7394 191.265ZM81.0471 192.646C79.6592 189.666 78.2345 186.762 76.9628 183.837C78.7898 185.325 80.8243 186.631 83.012 187.721C83.6733 188.468 84.3864 189.187 85.1471 189.874C85.2356 189.955 85.3528 190.011 85.4778 190.032C85.6028 190.054 85.7274 190.039 85.8294 189.991C85.9313 189.942 86.004 189.864 86.0343 189.769C86.0647 189.674 86.0508 189.569 85.9951 189.473C85.8864 189.28 85.7687 189.088 85.6562 188.894C87.6573 189.685 89.7406 190.281 91.8581 190.669C92.2798 190.745 92.3814 190.234 91.9844 190.097C89.376 189.193 86.8475 188.101 84.4325 186.835C84.0276 186.163 83.6161 185.491 83.2087 184.821C83.3605 184.756 83.4699 184.644 83.516 184.507C83.562 184.37 83.5415 184.217 83.4582 184.078C83.375 183.939 83.2349 183.823 83.0649 183.753C82.8949 183.683 82.7069 183.664 82.5369 183.698C81.213 181.476 79.9758 179.234 79.0728 176.871C78.4656 175.245 77.9671 173.605 77.5797 171.958C77.6995 171.863 77.7995 171.752 77.8767 171.63C78.0453 171.343 78.2143 171.057 78.3838 170.772C78.6086 170.949 78.8257 171.128 79.0543 171.3C79.9161 175.916 82.0893 181.421 86.4791 184.392C87.062 184.787 87.6321 184.258 87.4087 183.792C86.2351 181.323 84.2095 179.109 83.0134 176.618C82.4613 175.452 82.0072 174.266 81.6545 173.069C86.6648 176.225 92.5878 178.493 98.0303 179.469C98.4664 179.548 98.5929 178.997 98.1632 178.868C92.9485 177.305 87.9458 175.291 83.3989 172.486C82.5984 171.992 81.8468 171.471 81.11 170.94C80.9346 170.087 80.7878 169.23 80.7032 168.374C80.5434 166.668 80.592 164.976 80.8484 163.322C83.3898 165.078 85.98 166.786 88.5915 168.437C88.3275 169.09 88.0482 169.737 87.7248 170.365C87.1888 171.401 86.2269 172.489 86.1153 173.642C86.1138 173.715 86.1417 173.789 86.1949 173.854C86.2481 173.919 86.3236 173.971 86.4103 174.001C86.4969 174.032 86.59 174.041 86.6756 174.025C86.7612 174.01 86.8348 173.971 86.8852 173.916C87.6142 172.974 87.6445 171.568 87.9647 170.45C88.1568 169.78 88.396 169.127 88.6521 168.477C90.5881 169.702 92.5337 170.898 94.4702 172.054C94.8572 172.284 95.371 171.884 94.9968 171.594C93.0993 170.121 91.1557 168.654 89.1659 167.193C89.2254 167.045 89.2877 166.895 89.3483 166.744C89.3628 166.707 89.2884 166.681 89.2713 166.718C89.2142 166.861 89.1571 167.003 89.1013 167.148C86.5209 165.257 83.8637 163.4 81.1642 161.6C81.8001 158.75 82.9131 156.021 84.1621 153.244C81.8139 155.194 80.3134 157.722 79.4652 160.471C78.6008 159.907 77.7312 159.355 76.8606 158.806C77.8106 152.349 80.6486 146.672 84.107 140.82C84.1467 140.749 84.0019 140.663 83.9333 140.716C80.8398 143.181 78.6133 146.364 77.1 149.868C77.0871 149.812 77.0683 149.756 77.0438 149.701C76.6026 148.98 75.6818 148.926 75.1138 149.238C78.8389 138.708 86.6049 128.781 97.0503 122.433C84.1603 129.816 75.0833 139.709 71.7932 152.856C71.5848 153.695 71.4016 154.555 71.2356 155.428C70.7477 155.148 70.2621 154.857 69.7733 154.585C69.5801 154.475 69.3285 154.662 69.5113 154.815C70.0381 155.249 70.5856 155.676 71.1231 156.107C69.9853 162.614 70.1014 169.959 71.8762 177.053C70.859 175.893 69.9139 174.696 69.0451 173.468C69.8662 175.535 71.0386 177.533 72.5258 179.399C73.5988 183 75.2199 186.533 77.3498 189.913C74.4903 187.551 71.99 184.973 69.3716 182.412C67.1746 174.186 66.8191 165.607 68.21 157.361C69.5291 149.534 72.1718 141.948 75.6139 134.774C80.0711 125.485 87.0541 120.09 98.3943 116.353C109.808 112.59 121.537 111.932 134.314 114.174C136.743 114.599 138.82 115.818 135.726 116.776C133.875 117.35 130.901 117.05 128.849 117.346C124.845 117.922 121.302 119.301 118.681 121.693C111.785 127.983 108.204 137.475 106.311 145.939C104.155 155.589 105.307 165.656 104.896 175.573C104.67 181 104.038 186.435 101.569 191.304C101.124 192.149 100.618 192.968 100.052 193.755C97.45 195.702 94.5558 197.433 91.3278 198.327C87.7101 196.708 84.2644 194.803 81.0472 192.646L81.0471 192.646ZM74.7475 158.927C74.5391 160.695 74.4575 162.485 74.5029 164.288C74.514 164.663 74.5345 165.042 74.5563 165.424C73.9072 164.825 73.253 164.225 72.5936 163.623C72.6053 161.602 72.7509 159.597 73.0296 157.616C73.5967 158.055 74.1716 158.493 74.7475 158.927ZM73.2105 156.572C73.4379 155.222 73.7096 153.884 74.0645 152.567C74.2672 151.809 74.4933 151.053 74.7428 150.298C74.7531 150.341 74.7681 150.384 74.7877 150.426C75.2208 151.134 76.1186 151.195 76.6909 150.901C75.8603 153.068 75.2688 155.313 74.9227 157.612C74.3502 157.264 73.7841 156.911 73.2104 156.571L73.2105 156.572ZM76.6603 160.345C77.454 160.924 78.2487 161.499 79.0564 162.07C78.6055 164.219 78.4812 166.436 78.6862 168.677C78.6906 168.744 78.7016 168.817 78.7072 168.887C78.4821 168.542 78.1196 168.261 77.6876 168.095C77.6212 168.079 77.5543 168.067 77.4873 168.058C77.2342 167.841 76.9849 167.619 76.7355 167.398C76.6054 166.292 76.5245 165.186 76.5005 164.088C76.4725 162.803 76.5421 161.562 76.6602 160.344L76.6603 160.345ZM74.7056 167.399C74.8053 168.385 74.9447 169.39 75.1202 170.404C75.1029 170.481 75.0828 170.559 75.0655 170.636C75.0171 170.813 75.0192 171.002 75.0716 171.189C75.124 171.376 75.2253 171.557 75.3685 171.718C76.2662 176.1 77.9153 180.595 80.558 184.556C78.8666 183.463 77.2705 182.271 75.7856 180.991C74.8003 178.505 74.044 175.986 73.5232 173.455C72.947 170.538 72.6379 167.617 72.5987 164.719C73.22 165.647 73.9244 166.543 74.7054 167.399L74.7056 167.399ZM113.071 224.629C99.741 220.751 89.4736 214.092 82.0814 205.876L82.1097 205.872C85.0237 206.964 88.2541 206.54 91.2629 205.433C95.3331 209.361 99.6712 213.135 104.148 216.798C102.043 215.78 99.9292 214.76 97.7158 214.071C97.597 214.032 97.4793 214.141 97.5789 214.228C100.345 216.573 104.189 218.456 108.149 220.019C110.298 221.72 112.463 223.397 114.646 225.05C114.124 224.905 113.59 224.78 113.07 224.629L113.071 224.629ZM244.754 221.76C244.431 221.824 244.111 221.884 243.806 221.952C228.869 225.269 212.986 227.416 197.234 228.68C171.61 230.73 141.486 232.292 115.252 225.212C115.308 225.173 115.339 225.116 115.341 225.053C115.342 224.99 115.313 224.926 115.26 224.874C113.839 223.597 112.395 222.336 110.951 221.072C113.176 221.871 115.37 222.58 117.362 223.224C117.674 223.328 117.996 223.407 118.309 223.505C119.18 224.115 120.055 224.717 120.927 225.303C121.003 225.347 121.093 225.37 121.18 225.367C121.267 225.363 121.346 225.335 121.403 225.286C121.46 225.237 121.49 225.171 121.489 225.099C121.488 225.028 121.455 224.955 121.397 224.896C121.137 224.656 120.868 224.422 120.606 224.187C123.4 225.007 126.214 225.758 129.057 226.373C129.118 226.417 129.18 226.463 129.243 226.506C129.316 226.556 129.406 226.583 129.495 226.582C129.583 226.581 129.664 226.552 129.72 226.502C133.35 227.274 137.006 227.883 140.669 228.323C156.146 230.164 172.012 229.242 185.333 224.124C185.405 224.099 185.457 224.05 185.48 223.988C185.503 223.927 185.494 223.857 185.456 223.794C185.417 223.731 185.352 223.68 185.274 223.651C185.195 223.622 185.11 223.617 185.035 223.638C182.214 224.354 179.353 224.973 176.471 225.526C176.503 225.483 176.516 225.432 176.507 225.378C176.498 225.325 176.467 225.274 176.42 225.232C175.032 223.989 173.574 222.798 172.05 221.664C173.524 221.517 174.981 221.328 176.405 221.089C176.498 221.079 176.578 221.04 176.629 220.98C176.679 220.919 176.696 220.841 176.675 220.764C176.655 220.686 176.599 220.614 176.519 220.562C176.438 220.511 176.341 220.485 176.246 220.489C174.297 220.471 172.359 220.468 170.43 220.468C168.007 218.714 165.512 217.017 163.124 215.273C162.57 214.866 161.998 215.557 162.546 215.961C164.541 217.429 166.504 218.963 168.498 220.468C165.173 220.466 161.865 220.462 158.551 220.398C155.27 218.116 151.936 215.887 148.614 213.636C148.543 213.587 148.46 213.555 148.373 213.544C150.559 213.34 152.718 213.064 154.824 212.695C155.164 212.639 155.07 212.204 154.7 212.233C148.42 212.711 142.024 212.71 135.592 212.229C134.286 210.884 133.017 209.493 131.727 208.069C132.407 209.458 133.232 210.81 134.192 212.109C129.098 211.69 124.001 211.008 118.931 210.07C118.026 209.059 117.153 208.019 116.324 206.942C116.014 206.536 115.238 206.763 115.541 207.193C116.16 208.068 116.819 208.93 117.501 209.782C114.121 209.128 110.722 208.388 107.305 207.56C111.021 209.113 114.87 210.381 118.797 211.347C120.171 212.951 121.654 214.497 123.238 215.977C120.288 215.303 117.353 214.57 114.432 213.777C111.895 211.862 109.351 209.959 106.839 208.043C106.463 207.756 105.92 208.224 106.292 208.525C108.145 210.026 109.992 211.541 111.844 213.057C109.56 212.412 107.287 211.743 105.025 211.052C107.637 212.096 110.264 213.046 112.911 213.927C117.361 217.568 121.853 221.192 126.552 224.596C123.906 223.968 121.277 223.277 118.676 222.466C112.436 217.002 105.383 211.628 98.2402 207.161C103.485 212.189 109.163 216.92 115.22 221.308C112.846 220.485 110.485 219.615 108.117 218.632C102.769 214.014 97.1516 209.605 91.2898 205.423C94.7487 204.143 97.9023 201.988 99.8966 200.235C102.063 198.314 103.887 196.147 105.324 193.784C105.987 193.04 106.608 192.283 107.186 191.527C107.348 191.364 107.433 191.157 107.43 190.935C107.427 190.713 107.336 190.488 107.169 190.295C108.004 188.408 108.672 186.461 109.168 184.466C117.27 180.979 120.016 172.785 121.149 165.183C122.183 164.924 123.182 164.602 124.139 164.219C124.115 164.436 124.08 164.651 124.065 164.867C124.034 165.292 124.76 165.43 124.943 165.08C125.198 164.594 125.434 164.098 125.65 163.592C126.584 163.184 127.501 162.761 128.403 162.348C127.738 164.132 127.15 165.922 126.694 167.689C126.628 167.937 127.093 168.22 127.257 167.955C130.21 163.22 132.532 157.693 134.245 152.347C135.206 151.926 136.159 151.509 137.105 151.132C137.795 150.856 137.212 149.884 136.509 150.16C135.926 150.392 135.32 150.612 134.709 150.834C134.785 150.577 134.872 150.317 134.945 150.061C134.96 150.006 134.948 149.945 134.912 149.892C134.875 149.838 134.817 149.795 134.748 149.771C134.68 149.747 134.605 149.743 134.541 149.761C134.476 149.78 134.425 149.818 134.398 149.869C134.14 150.311 133.888 150.767 133.633 151.219C131.965 151.812 130.265 152.417 128.674 153.115C128.727 152.905 128.778 152.693 128.832 152.485C129.164 151.231 129.513 149.974 129.853 148.718C130.964 148.203 132.058 147.678 133.15 147.188C135.984 145.915 139.181 144.769 141.433 142.871C137.926 143.426 134.842 145.007 131.75 146.275C131.29 146.462 130.822 146.646 130.354 146.834C130.871 144.867 131.225 142.858 131.412 140.82C130.36 142.957 129.493 145.168 128.818 147.436C126.569 148.326 124.335 149.272 122.49 150.564C122.457 150.585 122.461 150.613 122.44 150.638C122.631 148.607 122.868 146.585 123.271 144.589C124.433 138.833 127.16 134.11 131.054 129.496C121.705 134.292 120.841 145.659 120.235 154.282C119.865 159.559 119.628 164.868 118.153 169.926C116.65 175.077 113.831 179.029 109.595 182.602C110.287 179.064 110.644 175.454 110.661 171.803C110.813 159.34 110.443 147.377 115.678 135.96C118.983 128.753 122.679 122.069 132.689 120.289C137.875 119.365 142.416 119.16 146.825 117.359C146.969 117.408 147.107 117.448 147.252 117.499C174.112 126.883 194.208 140.589 212.866 155.955C212.743 157.034 213.69 157.302 214.929 157.653C219.377 161.346 223.778 165.082 228.216 168.784C236.28 175.512 246.031 180.992 253.614 188.054C253.641 188.223 256.243 191.987 256.607 192.637C256.5 192.928 257.083 193.78 257.299 194.063C258.367 196.69 258.139 199.153 255.613 201.922C254.244 203.424 252.283 204.451 251.402 206.28C249.676 209.869 252.946 214.271 251.633 217.748C242.72 216.963 191.43 217.024 189.18 217.277C188.555 217.345 188.582 218.153 189.28 218.229C191.621 218.48 242.495 218.614 251.611 217.792C251.367 217.815 249.646 220.212 249.093 220.529C247.925 221.198 246.258 221.471 244.754 221.76L244.754 221.76ZM164.655 224.778C163.424 223.853 162.176 222.947 160.916 222.049C164.073 222.116 167.207 222.031 170.303 221.794C172.119 223.147 174.017 224.423 175.988 225.614L176.001 225.615C165.369 227.613 154.322 228.366 142.934 227.304C137.345 224.608 132.17 221.535 127.54 217.977C131.821 218.931 136.131 219.707 140.454 220.303C141.33 220.424 142.224 220.535 143.113 220.647C147.205 223.519 151.807 225.837 156.7 227.49C156.777 227.51 156.856 227.508 156.922 227.483C156.989 227.458 157.039 227.412 157.061 227.355C157.084 227.297 157.079 227.232 157.047 227.172C157.014 227.112 156.956 227.061 156.885 227.029C152.951 225.377 149.232 223.344 145.82 220.979C150.4 221.523 154.981 221.872 159.544 222.026C161.134 223.071 162.738 224.107 164.374 225.113C164.671 225.296 164.916 224.974 164.655 224.778ZM143.818 219.532C141.479 217.763 139.281 215.874 137.242 213.879C140.922 213.996 144.572 213.891 148.163 213.563C148.087 213.587 148.022 213.627 147.975 213.68C147.927 213.733 147.899 213.797 147.892 213.866C147.886 213.934 147.901 214.005 147.937 214.072C147.973 214.139 148.028 214.199 148.097 214.248C151.079 216.288 154.038 218.341 157.034 220.355C152.643 220.264 148.232 219.989 143.818 219.532ZM141.206 219.23C140.976 219.2 140.746 219.181 140.515 219.15C135.545 218.468 130.588 217.587 125.664 216.511C123.844 215 122.13 213.408 120.532 211.746C125.491 212.858 130.515 213.546 135.517 213.797C137.176 215.754 139.085 217.577 141.206 219.23L141.206 219.23ZM124.718 217.313C129.207 221.276 134.498 224.584 140.296 227.052C136.382 226.589 132.477 225.93 128.603 225.08C124.55 221.55 120.247 218.185 115.885 214.874C118.805 215.782 121.75 216.595 124.718 217.314L124.718 217.313ZM124.435 162.251C123.373 162.643 122.348 163.089 121.367 163.586C121.497 162.534 121.603 161.498 121.69 160.5C121.738 159.966 121.771 159.432 121.809 158.899C123.085 158.672 124.332 158.379 125.543 158.022C125.107 159.418 124.714 160.824 124.435 162.251ZM130.981 156.301C130.304 157.708 129.672 159.14 129.086 160.581C128.231 160.902 127.336 161.215 126.427 161.533C126.889 160.179 127.272 158.793 127.62 157.399C128.716 157.05 129.804 156.691 130.904 156.344C130.933 156.334 130.951 156.313 130.981 156.301ZM128.201 149.46C127.825 150.728 127.454 152 127.072 153.257C126.994 153.506 126.914 153.757 126.834 154.007C126.282 154.3 125.752 154.617 125.247 154.957C125.061 155.086 125.221 155.428 125.505 155.38C125.826 155.322 126.144 155.244 126.462 155.171C126.3 155.669 126.137 156.166 125.975 156.665C124.548 157.135 123.171 157.683 121.852 158.306C122.027 155.857 122.189 153.407 122.408 150.967C122.46 151.061 122.553 151.14 122.667 151.187C122.781 151.233 122.907 151.245 123.019 151.218C124.838 150.786 126.574 150.197 128.199 149.461L128.201 149.46ZM130.259 155.292C129.493 155.54 128.725 155.781 127.959 156.021C128.065 155.577 128.174 155.133 128.28 154.689C129.78 154.211 131.235 153.661 132.638 153.041C132.156 153.947 131.688 154.863 131.234 155.791C131.218 155.705 131.176 155.62 131.114 155.543C131.051 155.467 130.968 155.402 130.873 155.353C130.778 155.305 130.672 155.274 130.565 155.263C130.458 155.253 130.353 155.263 130.259 155.293L130.259 155.292Z" fill="white" fill-opacity="0.1"/>
<path d="M337.585 219.599L337.691 219.647C341.436 221.328 345.03 225.291 348.507 227.508C348.612 227.569 348.736 227.6 348.856 227.595C348.976 227.59 349.084 227.55 349.162 227.482C349.239 227.414 349.28 227.323 349.278 227.224C349.276 227.126 349.23 227.026 349.149 226.944C346.722 224.74 344.171 222.625 341.506 220.61C344.755 221.316 348.134 221.804 350.915 222.728C366.942 228.051 364.448 239.044 356.015 240.27C355.86 240.291 355.811 240.496 356 240.551C366.724 243.643 368.806 232.027 363.911 226.212C355.583 216.324 336.529 215.309 324.42 214.007C323.966 215.095 325.609 216.182 326.998 216.734C330.384 218.083 334.412 218.208 337.585 219.599Z" fill="white" fill-opacity="0.1"/>
<path d="M205.706 207.195C205.174 207.216 205.295 207.84 205.783 207.934C212.85 209.314 220.427 209.301 227.521 209.785C285.539 213.727 209.648 207.05 205.706 207.195Z" fill="white" fill-opacity="0.1"/>
<path d="M296.073 224.398C289.374 222.428 264.533 216.018 257.011 214.934C256.907 214.922 256.806 214.94 256.725 214.985C256.645 215.03 256.591 215.099 256.573 215.18C256.555 215.261 256.574 215.349 256.628 215.427C256.681 215.504 256.764 215.568 256.863 215.605C263.988 218.06 288.908 223.719 295.926 225.061C296.408 225.154 296.55 224.538 296.073 224.398Z" fill="white" fill-opacity="0.1"/>
<path d="M336.716 242.481C336.352 242.055 335.636 242.371 335.731 242.797C336.538 246.355 342.881 248.671 346.211 245.847C347.446 244.798 347.708 241.998 347.432 242.878C346.881 244.607 344.08 245.899 341.831 245.624C339.574 245.348 337.996 243.978 336.716 242.481Z" fill="white" fill-opacity="0.1"/>
<path d="M332.863 188.522C336.478 187.263 342.154 190.912 338.807 194.818C334.874 195.745 334.351 197.263 335.596 197.372C339.124 197.679 346.075 193.562 344.481 193.862C343.445 194.053 342.223 194.202 340.993 194.394C343.042 190.726 338.019 186.36 332.858 188.513L332.863 188.522Z" fill="white" fill-opacity="0.1"/>
<path d="M314.063 197.269C320.491 208.449 323.398 207.517 314.123 197.241C314.117 197.235 314.109 197.231 314.101 197.229C314.092 197.228 314.083 197.229 314.076 197.232C314.069 197.235 314.064 197.241 314.061 197.247C314.059 197.254 314.059 197.262 314.063 197.269Z" fill="white" fill-opacity="0.1"/>
<path d="M207.689 42.7982C199.187 42.6263 189.749 42.8432 181.724 44.4585C181.658 44.482 181.605 44.5239 181.573 44.5779C181.542 44.632 181.535 44.6952 181.552 44.7581C181.569 44.821 181.61 44.8803 181.668 44.9271C181.726 44.9739 181.799 45.0056 181.875 45.0176C192.67 45.5161 209.551 42.8361 207.689 42.7982Z" fill="white" fill-opacity="0.1"/>
<path d="M190.384 70.3713C194.565 66.8642 200.49 64.5856 206.82 64.3359C207.046 64.3264 206.961 64.0566 206.744 64.0495C194.253 63.71 179.841 72.1763 182.331 83.6634C182.407 84.0186 183.107 84.1364 183.201 83.7843C184.59 78.6471 185.909 74.1243 190.384 70.3713Z" fill="white" fill-opacity="0.1"/>
<path d="M189.497 81.7605C192.831 76.5839 198.134 73.2617 204.763 71.0529C210.711 69.0733 217.37 67.4319 220.784 62.7714C223.026 59.7104 223.704 55.582 220.356 52.2845C220.314 52.2412 220.253 52.2799 220.271 52.3255C223.795 60.3933 216.332 65.1129 208.655 67.5798C202.778 69.466 196.951 70.9734 192.433 74.5714C185.575 80.034 180.94 89.4179 184.538 97.9688C184.814 98.6253 186.13 98.8257 186.114 98.0237C186.018 92.2224 186.282 86.7525 189.497 81.7605Z" fill="white" fill-opacity="0.1"/>
<path d="M122.614 173.888L122.15 175.058C122.136 175.094 122.211 175.121 122.226 175.084C122.384 174.696 122.544 174.307 122.704 173.917C122.706 173.908 122.704 173.898 122.698 173.89C122.692 173.881 122.682 173.874 122.671 173.87C122.659 173.867 122.647 173.866 122.637 173.869C122.626 173.873 122.618 173.879 122.614 173.888Z" fill="white" fill-opacity="0.1"/>
<path d="M238.386 103.173C240.692 104.795 243.799 105.807 246.433 106.961C247.379 107.375 247.846 106.193 246.904 105.786C244.267 104.638 241.499 103.11 238.662 102.484C238.139 102.368 238.04 102.929 238.386 103.173Z" fill="white" fill-opacity="0.1"/>
<path d="M251.739 108.296C251.728 108.28 251.711 108.268 251.69 108.261C251.669 108.254 251.647 108.254 251.628 108.26C251.609 108.266 251.595 108.278 251.588 108.294C251.581 108.31 251.582 108.328 251.591 108.344C251.602 108.36 251.619 108.373 251.64 108.38C251.661 108.387 251.683 108.387 251.702 108.381C251.721 108.375 251.735 108.363 251.742 108.347C251.749 108.331 251.748 108.313 251.739 108.296Z" fill="white" fill-opacity="0.1"/>
<path d="M252.927 91.7009C254.213 94.4768 253.381 81.4337 234.781 69.8499C239.124 72.7586 247.255 79.4545 252.927 91.7009Z" fill="white" fill-opacity="0.1"/>
<path d="M234.781 70.2591C233.784 69.5882 232.734 68.9749 231.641 68.4245C232.754 69.0298 233.776 69.6444 234.781 70.2591Z" fill="white" fill-opacity="0.1"/>
<path d="M210.93 183.893C209.088 183.097 207.222 182.348 205.371 181.574C206.181 181.538 206.99 181.505 207.797 181.454C208.309 181.42 208.126 180.808 207.626 180.806C206.29 180.8 204.959 180.82 203.629 180.844C201.035 179.765 198.443 178.68 195.835 177.628C196.649 177.629 197.461 177.63 198.272 177.633C199.152 177.63 198.849 176.52 197.975 176.518C196.323 176.512 194.67 176.507 193.015 176.504C191.603 175.941 190.189 175.378 188.774 174.817C191.387 174.735 194 174.658 196.611 174.584C211.707 181.763 212.845 181.777 197.865 174.51C198.301 174.328 198.037 173.625 197.409 173.64C196.988 173.649 196.569 173.656 196.15 173.665C191.003 171.185 185.825 168.756 180.641 166.337C183.07 166.389 185.494 166.413 187.89 166.311C187.913 166.309 187.933 166.3 187.947 166.286C187.961 166.273 187.967 166.255 187.966 166.235C187.964 166.216 187.953 166.198 187.937 166.183C187.92 166.168 187.898 166.157 187.874 166.154C184.909 165.832 181.94 165.687 178.979 165.563C176.641 164.473 174.305 163.383 171.972 162.292C174.62 162.298 177.269 162.298 179.921 162.292C182.101 163.246 184.272 164.203 186.434 165.164C195.69 169.303 204.891 173.634 214.332 177.418C214.725 177.574 215.024 177.098 214.641 176.907C206.041 172.622 197.131 168.807 188.333 164.851C179.131 160.711 169.922 156.185 160.393 152.701C160.149 152.611 159.97 152.89 160.201 153.015C166.461 156.381 173.098 159.303 179.701 162.197C176.765 162.054 173.831 161.918 170.899 161.788C167.2 160.062 163.506 158.327 159.817 156.583C159.802 156.574 159.787 156.59 159.804 156.597C163.337 158.304 166.853 160.035 170.369 161.766C169.09 161.713 167.812 161.651 166.534 161.605C161.343 161.427 155.807 160.861 150.735 161.302C150.658 161.309 150.591 161.34 150.544 161.387C150.498 161.435 150.477 161.496 150.484 161.561C150.491 161.625 150.525 161.689 150.582 161.74C150.639 161.791 150.713 161.826 150.793 161.839C155.513 162.456 160.364 162.195 165.049 162.251C167.182 162.278 169.31 162.283 171.439 162.29C173.622 163.366 175.806 164.441 177.99 165.518C177.188 165.485 176.389 165.454 175.585 165.418C172.02 165.264 168.307 164.857 164.837 165.21C164.799 165.214 164.764 165.224 164.733 165.24C164.702 165.256 164.677 165.277 164.658 165.302C162.248 164.348 159.839 163.403 157.438 162.432C157.422 162.427 157.412 162.446 157.429 162.454C159.835 163.426 162.228 164.423 164.624 165.414C164.621 165.444 164.625 165.475 164.636 165.505C164.648 165.535 164.666 165.563 164.691 165.589C164.715 165.614 164.745 165.636 164.779 165.653C164.813 165.67 164.849 165.681 164.887 165.687C165.072 165.715 165.257 165.725 165.443 165.751C168.766 167.128 172.089 168.506 175.41 169.885L174.89 169.916C171.877 170.091 168.644 169.998 165.835 170.735C165.753 170.764 165.689 170.814 165.65 170.879C165.612 170.943 165.602 171.019 165.623 171.095C165.643 171.17 165.692 171.242 165.763 171.298C165.834 171.355 165.923 171.394 166.016 171.409C169.102 171.801 172.207 171.336 175.221 171.161C176.17 171.105 177.118 171.049 178.066 170.995C180.373 171.959 182.682 172.921 184.993 173.881C184.354 173.884 183.709 173.88 183.06 173.875C178.764 173.604 174.074 173.055 170.02 173.531C169.93 173.54 169.851 173.574 169.797 173.629C169.743 173.684 169.718 173.755 169.726 173.83C169.733 173.905 169.774 173.979 169.84 174.038C169.905 174.097 169.992 174.137 170.084 174.152C172.142 174.482 174.209 174.651 176.255 174.658C176.274 174.716 176.314 174.77 176.368 174.813C176.423 174.856 176.49 174.886 176.562 174.9C179.846 175.41 183.204 174.989 186.439 174.887C186.752 174.877 187.062 174.868 187.37 174.857C188.671 175.396 189.974 175.931 191.278 176.463C190.282 176.433 189.284 176.439 188.443 176.727C188.369 176.753 188.309 176.797 188.27 176.853C188.231 176.91 188.215 176.976 188.223 177.045C188.231 177.113 188.263 177.181 188.316 177.24C188.368 177.298 188.438 177.346 188.519 177.376C189.926 177.816 191.431 177.622 192.855 177.623C193.273 177.625 193.691 177.624 194.106 177.627C196.806 178.726 199.519 179.799 202.232 180.875C197.652 180.971 195.859 180.755 193.649 181.136C193.167 181.218 193.137 181.851 193.73 181.916C195.331 182.09 195.093 181.985 204.165 181.631C206.376 182.498 208.573 183.388 210.796 184.229C211.077 184.338 211.199 184.009 210.93 183.893ZM186.389 173.868C183.914 172.891 181.438 171.916 178.961 170.942C181.184 170.813 183.407 170.684 185.629 170.557C186.607 170.502 186.272 169.249 185.299 169.306C182.246 169.483 179.195 169.661 176.147 169.842C172.738 168.507 169.332 167.164 165.93 165.811C169.17 166.223 172.457 166.131 175.671 166.212C176.977 166.243 178.289 166.28 179.599 166.313C184.637 168.795 189.68 171.267 194.754 173.694C191.965 173.755 189.176 173.813 186.389 173.867L186.389 173.868Z" fill="white" fill-opacity="0.1"/>
<path d="M204.649 181.287C201.457 181.285 198.063 181.051 194.974 181.486C194.895 181.495 194.825 181.526 194.778 181.576C194.731 181.625 194.709 181.689 194.716 181.756C194.723 181.823 194.759 181.889 194.817 181.942C194.876 181.995 194.953 182.031 195.034 182.045C198.306 182.501 201.672 182.272 204.912 182.283C205.693 182.288 205.426 181.286 204.649 181.287Z" fill="white" fill-opacity="0.1"/>
<path d="M187.37 177.147C186.282 177.292 185.196 177.44 184.111 177.59C183.202 177.713 182.326 177.786 181.562 178.179C181.234 178.344 181.498 178.779 181.849 178.838C182.812 178.998 183.709 178.807 184.623 178.686C185.636 178.549 186.649 178.413 187.663 178.278C188.515 178.165 188.218 177.029 187.37 177.147Z" fill="white" fill-opacity="0.1"/>
<path d="M100.615 130.035C100.828 130.009 101.016 129.925 101.149 129.797C101.282 129.669 101.354 129.503 101.354 129.324C101.404 128.47 100.36 127.756 99.3884 127.642C98.8778 127.58 98.373 127.626 97.9236 127.774C97.4741 127.923 97.0954 128.17 96.8245 128.491C96.692 128.644 96.6174 128.83 96.6085 129.027C96.5995 129.225 96.6566 129.428 96.7737 129.615C96.9412 129.857 96.9668 130.13 97.145 130.38C97.2246 130.501 97.3473 130.604 97.495 130.672C97.6428 130.74 97.8076 130.77 97.9651 130.757C98.1226 130.745 98.2645 130.691 98.3696 130.603C98.4747 130.515 98.5375 130.398 98.5487 130.269C98.701 130.24 98.8475 130.199 98.9863 130.145C98.7604 130.237 99.171 130.089 99.1736 130.088C99.3693 130.009 99.402 129.991 99.4191 129.988C99.5207 129.985 99.5165 129.978 99.4067 129.967C99.5791 129.99 99.7517 130 99.9221 129.996C100.244 130.006 99.799 129.979 100.079 129.997C100.258 130.026 100.438 130.039 100.615 130.035Z" fill="white" fill-opacity="0.1"/>
<path d="M145.545 136.008C145.467 135.429 145.256 134.853 144.923 134.311C144.027 132.637 140.85 133.653 141.962 135.261C142.292 135.804 142.739 136.304 143.28 136.734C144.106 137.355 145.624 136.868 145.545 136.008Z" fill="white" fill-opacity="0.1"/>
<path d="M122.66 156.457C123.408 157.678 125.617 156.974 124.867 155.75C124.118 154.527 121.909 155.232 122.66 156.457Z" fill="white" fill-opacity="0.1"/>
<path d="M129.418 178.214C129.503 178.107 129.549 177.98 129.553 177.846C129.557 177.711 129.518 177.574 129.44 177.447C129.362 177.319 129.248 177.206 129.108 177.118C128.968 177.03 128.806 176.97 128.64 176.943C128.005 176.85 127.369 176.839 126.757 176.911C126.518 176.929 126.294 176.992 126.103 177.095C125.912 177.199 125.759 177.34 125.656 177.509C125.553 177.677 125.502 177.867 125.509 178.065C125.515 178.263 125.577 178.463 125.691 178.649C125.806 178.836 125.968 179.004 126.167 179.14C126.365 179.276 126.594 179.377 126.835 179.435C127.077 179.493 127.324 179.506 127.559 179.473C127.793 179.44 128.008 179.363 128.186 179.246C128.672 178.966 129.087 178.617 129.418 178.214Z" fill="white" fill-opacity="0.1"/>
<path d="M148.572 186.852C147.713 185.45 145.18 186.258 146.041 187.663C146.901 189.067 149.432 188.256 148.572 186.852Z" fill="white" fill-opacity="0.1"/>
<path d="M169.027 146.355C168.196 144.906 165.53 145.76 166.45 147.186C167.06 148.132 167.758 149.114 168.846 149.775C168.963 149.845 169.098 149.89 169.235 149.908C169.372 149.925 169.508 149.914 169.63 149.875C169.752 149.836 169.855 149.77 169.929 149.684C170.004 149.598 170.047 149.496 170.056 149.385C170.115 148.356 169.582 147.317 169.027 146.355Z" fill="white" fill-opacity="0.1"/>
<path d="M124.709 185.911C125.148 184.572 122.694 183.703 122.082 184.982L121.366 186.481C120.707 187.855 123.724 188.925 124.197 187.48C124.368 186.956 124.537 186.434 124.709 185.911Z" fill="white" fill-opacity="0.1"/>
<path d="M98.0066 152.716C96.6709 152.099 95.0518 152.786 93.9465 153.229C93.5913 153.356 93.329 153.598 93.2147 153.903C93.1004 154.209 93.1431 154.555 93.3338 154.867C93.5246 155.18 93.8484 155.435 94.237 155.579C94.6257 155.723 95.0488 155.744 95.4171 155.639C96.6102 155.339 98.396 154.934 98.6669 153.798C98.7355 153.6 98.7056 153.378 98.5831 153.178C98.4606 152.977 98.2547 152.812 98.0066 152.716Z" fill="white" fill-opacity="0.1"/>
<path d="M89.7813 166.346C89.6013 166.062 89.2996 165.832 88.9405 165.705C88.5814 165.578 88.1932 165.565 87.8586 165.668C87.5833 165.759 87.3655 165.927 87.2398 166.144C87.0829 166.406 87.2786 167.019 86.9855 167.185C86.9755 167.192 86.9689 167.202 86.9668 167.213C86.9647 167.224 86.9671 167.236 86.9737 167.246C86.9803 167.257 86.9907 167.266 87.0034 167.273C87.0162 167.279 87.0306 167.282 87.0444 167.281C87.414 167.235 87.7666 167.684 88.1021 167.801C88.4625 167.924 88.8504 167.936 89.1853 167.833C89.515 167.722 89.7617 167.505 89.8729 167.228C89.9841 166.95 89.9513 166.634 89.7813 166.346Z" fill="white" fill-opacity="0.1"/>
<path d="M167.1 67.5277C166.854 66.3291 165.526 65.6464 165.163 65.7998C164.621 66.0315 164.044 66.206 163.837 66.7185C163.449 67.6874 164.003 68.6474 164.937 69.4327C166.102 70.4102 167.321 68.6049 167.1 67.5277Z" fill="white" fill-opacity="0.1"/>
<path d="M156.205 85.1799C155.657 85.3358 155.142 85.5484 154.674 85.8132C153.413 86.5857 154.58 88.4923 156.22 88.3381C156.805 88.2627 157.367 88.1302 157.897 87.9433C159.973 87.3022 158.261 84.4971 156.205 85.1799Z" fill="white" fill-opacity="0.1"/>
<path d="M173.675 105.619C173.575 105.401 173.475 105.188 173.391 104.969C173.013 103.972 171.773 103.246 170.587 103.626C169.409 104.004 169.308 105.16 170.074 106.033C170.243 106.224 170.394 106.421 170.551 106.621C171.847 108.268 174.492 107.425 173.675 105.619Z" fill="white" fill-opacity="0.1"/>
<path d="M195.214 102.585L195.17 102.61C194.929 102.775 194.69 102.94 194.452 103.105C194.262 103.237 194.138 103.421 194.098 103.63C194.057 103.839 194.103 104.062 194.228 104.265C194.352 104.469 194.55 104.643 194.791 104.762C195.032 104.881 195.304 104.938 195.567 104.925C195.896 104.908 196.225 104.891 196.556 104.873C196.575 104.873 196.593 104.87 196.611 104.867C196.711 104.859 196.808 104.845 196.903 104.824C196.945 104.816 196.99 104.809 197.028 104.8C197.092 104.78 197.153 104.755 197.21 104.726C197.267 104.702 197.321 104.675 197.372 104.645L197.392 104.627C197.816 104.328 197.813 103.809 197.559 103.334C197.54 103.297 197.514 103.26 197.489 103.219C197.464 103.179 197.446 103.145 197.42 103.108C197.104 102.652 196.575 102.302 195.984 102.328L195.952 102.327C195.887 102.334 195.823 102.345 195.76 102.359C195.692 102.37 195.626 102.386 195.562 102.406C195.527 102.42 195.491 102.443 195.453 102.457C195.368 102.493 195.288 102.536 195.214 102.585Z" fill="white" fill-opacity="0.1"/>
<path d="M177.075 111.543C177.258 111.851 177.567 112.106 177.941 112.258C177.959 112.41 178.014 112.561 178.104 112.703C178.698 113.645 179.268 115.093 180.641 115.451C180.866 115.523 181.106 115.526 181.312 115.459C181.519 115.393 181.677 115.261 181.755 115.091C182.307 114.114 181.224 112.826 180.667 111.874C180.581 111.732 180.465 111.601 180.324 111.488C180.422 111.184 180.37 110.846 180.181 110.54C179.126 108.807 176.02 109.808 177.075 111.543Z" fill="white" fill-opacity="0.1"/>
<path d="M209.923 118.071C209.806 117.816 209.728 117.555 209.691 117.293C209.7 117.076 209.621 116.855 209.466 116.661C209.311 116.467 209.089 116.312 208.833 116.218L208.609 116.14C208.36 116.057 208.093 116.051 207.864 116.125C207.635 116.199 207.461 116.345 207.379 116.535C207.356 116.592 207.332 116.653 207.308 116.708C207.232 116.908 207.241 117.132 207.335 117.345C207.429 117.558 207.603 117.749 207.829 117.89C208.071 118.087 208.285 118.304 208.466 118.538C209 119.111 210.153 118.741 209.923 118.071Z" fill="white" fill-opacity="0.1"/>
<path d="M205.434 119.761C204.629 120.672 203.736 121.46 203.515 122.635C203.41 123.206 204.303 123.656 204.876 123.472C206.195 123.052 206.963 122.064 207.846 121.225C208.941 120.188 206.45 118.616 205.434 119.761Z" fill="white" fill-opacity="0.1"/>
<path d="M229.534 137.188C230.16 138.21 231.765 138.348 232.493 137.58C232.793 137.301 233.071 137.007 233.328 136.7C233.41 136.597 233.455 136.476 233.459 136.347C233.463 136.218 233.426 136.087 233.351 135.965C233.276 135.843 233.166 135.734 233.032 135.65C232.897 135.565 232.743 135.508 232.583 135.483C232.095 135.414 231.607 135.365 231.119 135.336C229.845 135.213 228.907 136.163 229.534 137.188Z" fill="white" fill-opacity="0.1"/>
<path d="M234.352 45.5026C233.635 44.3329 231.519 45.0081 232.237 46.1799C232.955 47.3518 235.069 46.6747 234.352 45.5026Z" fill="white" fill-opacity="0.1"/>
<path d="M170.912 45.4932C169.928 43.8866 167.021 44.8122 168.008 46.4233C168.992 48.0299 171.899 47.1043 170.912 45.4932Z" fill="white" fill-opacity="0.1"/>
<path d="M172.229 48.8944C172.82 47.4649 169.905 46.4343 169.345 47.8749C169.091 48.4714 168.9 49.0898 168.773 49.7242C168.594 50.806 170.736 51.5636 171.363 50.638C171.712 50.0829 172.002 49.4997 172.229 48.8944Z" fill="white" fill-opacity="0.1"/>
<path d="M155.432 60.9442C155.443 60.9601 155.461 60.9728 155.482 60.9796C155.502 60.9864 155.524 60.9867 155.543 60.9807C155.562 60.9746 155.577 60.9625 155.584 60.9469C155.591 60.9312 155.589 60.9133 155.581 60.8967C155.57 60.8807 155.552 60.8681 155.531 60.8613C155.511 60.8545 155.489 60.8541 155.47 60.8602C155.451 60.8663 155.436 60.8784 155.429 60.894C155.422 60.9096 155.423 60.9276 155.432 60.9442Z" fill="white" fill-opacity="0.1"/>
<path d="M88.7621 149.273C87.4603 148.727 86.0751 149.024 85.685 150C85.4099 150.693 85.8608 151.107 86.5254 151.349C86.8866 151.572 87.2956 151.73 87.7209 151.811C87.7547 151.821 87.7597 151.82 87.7609 151.817L87.8196 151.848C87.8545 151.866 87.8911 151.88 87.9289 151.892C87.9532 151.914 87.9791 151.934 88.0063 151.954C87.825 151.822 88.0406 151.98 88.1054 152.046C88.1504 152.089 88.1501 152.079 88.1432 152.062C88.1552 152.085 88.1687 152.107 88.1835 152.128C88.1951 152.151 88.2123 152.173 88.234 152.191C87.9602 152.742 88.0612 153.402 88.7756 153.836C89.1237 154.043 89.5403 154.14 89.9368 154.107C90.3332 154.074 90.6781 153.914 90.8979 153.661C92.0898 152.173 90.7854 150.119 88.7621 149.273ZM88.238 152.197L88.2432 152.201C88.2356 152.224 88.2341 152.248 88.2386 152.273C88.2365 152.248 88.2364 152.223 88.2383 152.198L88.238 152.197Z" fill="white" fill-opacity="0.1"/>
<path d="M205.624 154.927C194.31 145.357 181.888 136.775 169.827 127.891C169.817 127.884 169.801 127.897 169.813 127.906C181.45 137.172 192.742 146.752 205.149 155.351C205.491 155.59 205.943 155.198 205.624 154.927Z" fill="white" fill-opacity="0.1"/>
<path d="M262.913 67.431C261.95 67.078 260.696 67.7414 261.306 68.7502C261.974 69.8543 263.73 69.4737 263.768 68.5391C266.859 72.7317 269.514 77.1197 272.01 81.6657C272.232 82.0727 273.023 81.9299 272.876 81.5011C268.813 69.5593 258.504 57.6111 245.702 48.9353C245.835 48.5319 245.104 48.3939 244.571 48.1913C237.63 43.645 230.016 40.045 222.269 37.9542C222.149 37.9149 222.021 37.9137 221.912 37.951C221.803 37.9883 221.722 38.061 221.685 38.154C221.649 38.2469 221.659 38.3527 221.715 38.449C221.772 38.5454 221.868 38.6247 221.986 38.6703C227.706 41.0719 233.166 43.5604 238.32 46.4359C238.32 46.4356 251.952 53.0682 262.913 67.431Z" fill="white" fill-opacity="0.1"/>
<path d="M248.203 197.279C247.867 197.795 248.657 198.505 249.268 198.105C256.281 193.535 251.394 184.404 243.488 181.281C242.833 181.024 242.556 181.794 243.174 182.074C251 185.611 251.542 192.149 248.203 197.279Z" fill="white" fill-opacity="0.1"/>
<path d="M245.885 198.276C245.728 198.589 246.295 198.799 246.525 198.581C253.465 192.07 242.523 183.259 244.277 184.983C248.327 188.947 247.926 194.275 245.885 198.276Z" fill="white" fill-opacity="0.1"/>
</svg>
