<svg width="370" height="125" viewBox="0 0 370 125" fill="none" xmlns="http://www.w3.org/2000/svg">
<mask id="path-1-inside-1_20_114" fill="white">
<path fill-rule="evenodd" clip-rule="evenodd" d="M370 25V100C356.193 100 345 111.193 345 125H25C25 111.193 13.8071 100 0 100V25C13.8071 25 25 13.8071 25 0H345C345 13.8071 356.193 25 370 25Z"/>
</mask>
<path fill-rule="evenodd" clip-rule="evenodd" d="M370 25V100C356.193 100 345 111.193 345 125H25C25 111.193 13.8071 100 0 100V25C13.8071 25 25 13.8071 25 0H345C345 13.8071 356.193 25 370 25Z" fill="#FFF8ED"/>
<path d="M370 100V102H372V100H370ZM370 25H372V23H370V25ZM345 125V127H347V125H345ZM25 125H23V127H25V125ZM0 100H-2V102H0V100ZM0 25V23H-2V25H0ZM25 0V-2H23V0H25ZM345 0H347V-2H345V0ZM372 100V25H368V100H372ZM347 125C347 112.297 357.297 102 370 102V98C355.088 98 343 110.088 343 125H347ZM25 127H345V123H25V127ZM0 102C12.7025 102 23 112.297 23 125H27C27 110.088 14.9117 98 0 98V102ZM-2 25V100H2V25H-2ZM23 0C23 12.7025 12.7025 23 0 23V27C14.9117 27 27 14.9117 27 0H23ZM345 -2H25V2H345V-2ZM370 23C357.297 23 347 12.7025 347 0H343C343 14.9117 355.088 27 370 27V23Z" fill="#DE8E15" mask="url(#path-1-inside-1_20_114)"/>
</svg>
