<svg width="35" height="35" viewBox="0 0 35 35" fill="none" xmlns="http://www.w3.org/2000/svg">
<path d="M34.876 17.3716C34.8754 14.0513 33.9199 10.8008 32.1228 8.0047C30.3257 5.20865 27.7622 2.9842 24.7357 1.59469C21.7092 0.205173 18.3465 -0.291213 15.0457 0.164293C11.7448 0.619798 8.64412 2.00812 6.11058 4.1649C3.57703 6.32169 1.71676 9.15661 0.749989 12.3341C-0.21678 15.5115 -0.249562 18.8985 0.655523 22.0939C1.56061 25.2894 3.36566 28.1595 5.85699 30.3646C8.34832 32.5696 11.4216 34.0173 14.713 34.5361V22.3943H10.283V17.3716H14.713V13.5435C14.713 9.18935 17.313 6.7841 21.299 6.7841C22.6055 6.80227 23.909 6.91549 25.199 7.12287V11.3933H22.999C22.6244 11.3439 22.2434 11.379 21.8843 11.4961C21.5251 11.6131 21.197 11.8092 20.9242 12.0697C20.6514 12.3303 20.4409 12.6486 20.3083 13.0011C20.1756 13.3537 20.1243 13.7315 20.158 14.1065V17.3716H24.994L24.221 22.3943H20.163V34.5361C24.2645 33.8883 27.9996 31.8039 30.6966 28.6575C33.3936 25.5111 34.8755 21.5093 34.876 17.3716Z" fill="#DE8E15"/>
</svg>
