<svg width="105" height="87" viewBox="0 0 105 87" fill="none" xmlns="http://www.w3.org/2000/svg">
<path d="M98.5378 9.22641C98.1462 9.31521 98.1104 9.98971 98.5378 10.0515C99.4551 10.1847 100.446 10.1591 101.338 10.3925C104.88 11.3203 104.155 14.7874 101.525 16.4927C100.286 17.2957 98.8973 17.512 97.5213 17.9957C94.5141 19.0538 91.8445 20.878 89.4436 22.948C87.2421 24.8469 85.2619 27.0027 83.4547 29.2767C81.9833 31.1275 80.8655 33.3693 79.3562 35.1371C78.6281 34.0601 77.8517 33.3509 76.6016 32.8707C76.1533 32.6988 74.0172 32.4484 74.055 31.6747C74.1448 29.8476 73.0497 28.4523 71.5254 27.6313C74.0096 25.9733 79.6079 21.6257 81.0652 20.4136C81.7753 20.1669 82.4846 19.8827 83.1881 19.5715C82.0893 20.5512 81.0018 21.5432 79.9114 22.5332C78.7785 23.5639 77.6031 24.5777 76.4588 25.6234C75.9046 25.9796 75.3552 26.3395 74.8156 26.7061C74.8088 26.7106 74.8041 26.7175 74.8023 26.7255C74.8004 26.7334 74.8017 26.7417 74.8058 26.7487C74.8099 26.7557 74.8166 26.7608 74.8244 26.7631C74.8322 26.7654 74.8405 26.7646 74.8478 26.7609C75.1107 26.639 75.3745 26.5115 75.6396 26.3866C71.8353 29.9898 73.4277 29.0971 77.3059 25.5751C88.475 19.9927 90.7598 17.0014 78.9296 24.0891C80.6091 22.5445 82.489 20.9044 84.63 18.8978C87.8613 17.3088 89.6684 16.1062 85.9927 17.595C86.2396 17.356 86.4882 17.1207 86.7322 16.878C86.8561 16.7551 86.6745 16.5822 86.5431 16.689C86.0069 17.1302 85.4758 17.5777 84.9497 18.0315C84.1068 18.3952 83.2702 18.7892 82.4579 19.2124C83.0688 18.6607 83.6494 18.0853 84.2092 17.4943C91.7839 13.5954 90.3257 13.2732 85.2394 16.3304C85.3236 16.2303 85.4097 16.131 85.4909 16.029C86.4432 15.4074 87.5648 14.3619 88.222 13.1826C91.6616 12.0745 91.9346 11.3214 88.5558 12.4467C89.5526 9.68708 86.9576 7.73723 84.201 8.42874C84.7119 6.16138 85.4191 2.70841 83.8285 0.883171C82.3391 -0.826474 80.4266 0.274164 79.0016 1.43332C73.4951 5.91225 67.4155 9.387 60.6294 11.419C59.2185 8.89749 55.6279 9.03741 53.1928 9.07611C38.6467 9.30942 20.9119 -6.38154 6.48213 11.9859C2.36661 15.4427 0.407276 21.965 0.055476 26.9296C-0.387254 33.1687 1.83142 39.45 6.29967 43.8696C10.4615 47.9857 15.2598 49.7599 21.1427 49.5663C22.896 49.5096 24.7485 49.2346 26.4725 48.6641C23.3734 52.3986 21.6099 56.8096 21.4369 61.7977C21.3224 65.1005 21.6838 68.5979 23.3896 71.4973C25.175 74.5355 28.0234 77.1061 30.7117 79.3348C39.5678 86.6772 52.9402 90.6644 62.55 82.3702C66.4045 79.0438 68.9502 74.4402 70.9352 69.8223C73.1104 64.7696 74.9181 59.5667 76.3443 54.2542C77.9065 48.3808 79.4008 38.5764 79.4442 38.0338C81.2887 34.7057 83.4881 31.5866 86.0042 28.7311C89.265 25.0079 93.2224 21.2951 97.9649 19.5994C100.92 18.5431 104.284 17.609 104.934 13.9516C105.565 10.4083 101.529 8.54238 98.5378 9.22641ZM70.6459 27.2301C67.0249 25.9113 63.3756 27.9707 59.6054 29.6987C57.9514 30.4564 56.1396 31.1649 54.4155 31.9952C58.3911 28.5668 64.6636 27.3141 62.4877 22.4044C65.2633 21.4719 67.458 19.5909 73.967 18.3515C76.5543 17.8593 79.448 17.9772 82.0911 17.3897C79.8261 19.2163 71.0023 26.9315 70.6457 27.2301H70.6459ZM60.8989 15.9973C61.1854 15.4031 61.7333 14.9543 62.6049 14.6558C65.075 13.8093 67.4457 12.7399 69.7814 11.5807C69.9223 11.5117 69.824 11.2821 69.6755 11.3294C66.9388 12.1835 63.9967 13.1952 61.4143 14.5406C61.4583 13.9121 61.3799 13.281 61.1835 12.6823C62.8659 12.4225 68.3166 10.4924 73.182 7.57035C73.1799 7.617 73.1943 7.6629 73.2227 7.70002C73.2511 7.73715 73.2916 7.76314 73.3371 7.77346C73.9083 7.92461 74.4852 8.06632 75.062 8.20896C74.7376 8.39038 74.4133 8.5747 74.0965 8.7739C73.5006 8.61203 72.8968 8.48054 72.2874 8.37992C72.2421 8.36929 72.1945 8.37658 72.1544 8.40026C72.1144 8.42395 72.085 8.46219 72.0726 8.50699C72.0601 8.55179 72.0655 8.59967 72.0875 8.6406C72.1096 8.68154 72.1467 8.71236 72.191 8.72661C72.6317 8.87121 73.0894 9.01759 73.5556 9.13761C73.1622 9.40117 72.7824 9.67704 72.4161 9.96521C72.2032 9.9539 72.1476 9.96147 72.3527 10.0153C71.4704 10.7144 71.861 10.5575 72.749 10.1202C73.288 10.2638 73.8535 10.4149 74.4238 10.5416C71.0724 12.5404 71.6455 12.8855 74.8985 10.6389C75.3708 10.734 75.8492 10.7952 76.3302 10.8222C75.1406 11.236 73.9907 11.8198 72.8682 12.3696C72.6819 12.4612 72.8162 12.7928 73.0119 12.7107C74.3557 12.1467 75.7666 11.6015 77.0063 10.7985C77.0259 10.7864 77.0416 10.7689 77.0515 10.7482C77.0615 10.7274 77.0653 10.7043 77.0625 10.6814C77.0597 10.6586 77.0505 10.637 77.0358 10.6193C77.0212 10.6015 77.0018 10.5883 76.9799 10.5812C76.5021 10.4109 76.0088 10.2878 75.5069 10.2137C76.7382 9.32465 76.4469 9.38989 75.0898 10.1523C74.3916 10.0644 73.6779 10.0257 72.9998 9.99354C73.4235 9.77622 73.8434 9.54103 74.2556 9.29156C74.5456 9.34716 74.8392 9.38252 75.1341 9.39737C75.1603 9.39668 75.1855 9.38759 75.2061 9.37145C75.2267 9.35532 75.2415 9.33299 75.2484 9.30777C75.2553 9.28256 75.2539 9.25579 75.2444 9.23144C75.2349 9.20709 75.2178 9.18645 75.1956 9.17257C75.049 9.10171 74.8939 9.046 74.7397 8.9874C75.0548 8.78522 75.3658 8.5764 75.6678 8.36104C78.7686 9.09789 79.1279 8.9874 76.0594 8.07669C76.2731 7.91798 76.484 7.75739 76.6895 7.59484C76.7887 7.51549 76.662 7.38135 76.5609 7.42856C76.2309 7.58447 75.8999 7.75637 75.5699 7.93116C74.8887 7.73374 74.2052 7.54381 73.5234 7.36341C80.0513 3.36913 78.8474 2.73631 81.4622 2.33458C82.491 1.7186 83.0042 1.88871 83.0017 2.84492C83.5237 4.22047 83.0328 6.83546 83.152 8.85343C83.0332 8.92344 82.9189 9.00073 82.8097 9.08487C82.5032 9.32388 82.6962 9.84069 83.0319 9.92753C84.5559 10.3196 84.8504 9.6186 85.9105 11.2019C86.7087 12.3961 86.5867 12.8089 85.8566 13.474C85.677 13.5476 85.4783 13.5874 85.5105 13.7753C82.2455 16.5371 79.0025 15.8244 74.9323 16.4932C70.9681 17.1442 65.2129 18.5971 62.097 21.6155C61.9249 21.2972 61.7394 20.9769 61.5552 20.6538C63.8503 19.5589 67.5279 18.3988 69.2585 16.4328C67.4211 16.6037 65.3076 18.0974 63.7073 18.9373C61.6555 20.0152 61.0907 20.481 60.7096 17.9529C60.5934 17.1858 60.6407 16.533 60.8989 15.9973ZM7.08262 41.9946C6.23705 41.0935 5.48166 40.112 4.82725 39.064C5.65082 39.3842 6.51052 39.6025 7.38717 39.714C7.91704 40.5941 8.52976 41.4217 9.217 42.1855C8.63186 42.2051 8.04607 42.1802 7.46473 42.1108C7.40513 42.1041 7.38623 42.1949 7.43544 42.2223C8.16 42.5997 8.96643 42.7931 9.78353 42.7854C10.0322 43.0357 10.2876 43.2832 10.5561 43.5223C10.9627 43.8841 11.4138 44.2488 11.8932 44.6059C11.4853 44.7258 11.0704 44.8206 10.6509 44.8899C9.34022 44.0844 8.1406 43.111 7.08262 41.9946ZM14.1408 44.3243C15.0231 44.8532 15.964 45.2777 16.9446 45.5893C16.6307 45.7243 16.3173 45.862 16.0046 46.0021C15.9251 45.9719 15.8438 45.9464 15.7644 45.9143C14.9474 45.5763 14.1568 45.1777 13.3993 44.722C13.6532 44.6023 13.9008 44.4695 14.1409 44.3241L14.1408 44.3243ZM12.7572 44.3167C12.0502 43.8581 11.3772 43.3492 10.7432 42.7941C10.7139 42.7686 10.6875 42.7422 10.6591 42.7166C11.0044 42.6658 11.3448 42.5858 11.6766 42.4776C12.0196 42.8057 12.3811 43.1139 12.7594 43.4007C13.0185 43.5953 13.2909 43.7862 13.5708 43.9694C13.3031 44.0962 13.032 44.212 12.7575 44.3166L12.7572 44.3167ZM14.8102 43.8709C15.1839 43.5992 15.5304 43.292 15.8448 42.9535C15.8599 42.9339 15.8688 42.9102 15.8703 42.8855C17.0473 43.6299 18.3316 44.1897 19.6785 44.5454C19.1726 44.7117 18.6713 44.8941 18.1739 45.0886C17.0176 44.7775 15.897 44.4062 14.8105 43.8705L14.8102 43.8709ZM14.292 43.6045C14.048 43.4703 13.805 43.3305 13.5648 43.1746C13.1317 42.8949 12.7033 42.5792 12.2825 42.245C12.836 41.9992 13.3474 41.6678 13.7977 41.2631C14.3736 41.819 15.0012 42.3188 15.672 42.7558C15.227 43.0621 14.7665 43.3453 14.2922 43.6041L14.292 43.6045ZM11.6631 41.7292C10.9596 41.1184 10.3138 40.4442 9.73398 39.7151C10.5386 39.612 11.3248 39.3971 12.0697 39.0765C12.45 39.7204 12.9007 40.3203 13.4135 40.8649C12.8657 41.2198 12.2783 41.5098 11.6633 41.7289L11.6631 41.7292ZM11.108 41.9096C10.7517 42.0046 10.3893 42.0747 10.0233 42.1194C9.28412 41.393 8.60599 40.6072 7.99575 39.7698C8.48992 39.8012 8.98582 39.7924 9.47856 39.7434C9.94541 40.5197 10.4916 41.2457 11.1082 41.9095L11.108 41.9096ZM14.4982 46.6928C13.4348 46.3365 12.406 45.8843 11.4246 45.3418C11.7977 45.272 12.1657 45.1776 12.5263 45.0594C13.299 45.5932 14.1104 46.0688 14.9538 46.4821C14.802 46.5517 14.6507 46.6225 14.4984 46.6925L14.4982 46.6928ZM15.2518 46.929C15.3691 46.8798 15.4854 46.8298 15.6027 46.7807C16.1573 47.0227 16.7276 47.2273 17.3096 47.3931C16.6155 47.2772 15.9286 47.1222 15.2521 46.9287L15.2518 46.929ZM20.2061 47.0339C19.0666 46.7656 17.9214 46.5946 16.797 46.2667C17.1319 46.1193 17.4647 45.9682 17.7956 45.8133C18.6784 46.017 19.5896 46.0684 20.4898 45.9654C20.642 45.9465 20.7063 45.7169 20.5285 45.6744C19.9751 45.5412 19.4315 45.4118 18.8925 45.2767C19.2471 45.0953 19.598 44.9082 19.9441 44.7117C19.96 44.7023 19.9732 44.6889 19.9823 44.6729C19.9914 44.6568 19.9962 44.6386 19.9961 44.6201C20.8232 44.8164 21.67 44.9178 22.5201 44.9224C22.1355 45.7383 21.3998 46.4666 20.2064 47.0335L20.2061 47.0339ZM16.8556 42.6815C15.9123 42.165 15.028 41.5475 14.2183 40.8399C14.3205 40.7218 14.4179 40.6009 14.5086 40.4741C14.6288 40.306 14.3809 40.1643 14.2447 40.271C14.1218 40.3683 13.9998 40.4477 13.8768 40.5365C13.3255 40.0431 12.7921 39.5243 12.2616 38.99C12.4905 38.8851 12.7184 38.7737 12.9434 38.6461C13.056 38.5819 12.9794 38.3787 12.8517 38.4297C12.5737 38.5412 12.2919 38.6404 12.0101 38.7359C11.9468 38.6717 11.8834 38.6093 11.8209 38.5441C11.8172 38.5406 11.8123 38.5386 11.8072 38.5385C11.802 38.5383 11.797 38.5399 11.793 38.5431C11.789 38.5463 11.7863 38.5509 11.7854 38.5559C11.7844 38.5609 11.7853 38.5661 11.7878 38.5705C11.8219 38.6405 11.8654 38.7056 11.9013 38.7755C11.105 39.0359 10.2864 39.2225 9.45582 39.3329C8.94494 38.6468 8.51618 37.9032 8.17829 37.1175C8.48444 37.8883 8.84533 38.6362 9.25821 39.3556C8.76289 39.4171 8.26415 39.4471 7.76502 39.4454C6.44492 37.5486 5.47372 35.3953 5.10302 33.1638L5.09928 33.1647C5.43218 35.4273 6.12624 37.5256 7.20999 39.4169C6.38693 39.3694 5.57208 39.2274 4.78153 38.9937C1.85943 34.2946 0.853327 28.1915 2.56209 22.1577C3.35833 20.9871 3.86048 20.3939 4.96024 19.4425C2.82118 23.724 4.37201 27.8648 4.33327 26.6263C4.25766 24.2172 4.38435 21.5068 5.29689 19.161C6.05242 18.5394 6.84865 17.9678 7.66294 17.4114C7.70566 17.383 7.73823 17.3418 7.75591 17.2938C7.7736 17.2457 7.77547 17.1932 7.76127 17.144C10.2285 17.0533 11.9714 19.2697 12.6153 21.5219C13.4928 24.5913 12.482 27.8997 13.7368 30.8861C14.7979 33.4085 16.988 35.0693 18.9824 36.8284C18.9401 36.836 18.8986 36.8477 18.8586 36.8634C18.5171 37.0108 18.1881 37.1817 17.8571 37.349C17.7978 37.3766 17.7454 37.4169 17.7034 37.467C17.6614 37.5171 17.6309 37.5758 17.6141 37.639C17.5823 37.516 17.5093 37.4076 17.4073 37.3318C17.3053 37.256 17.1804 37.2173 17.0533 37.2222C16.2615 37.2222 16.2599 38.4504 17.0533 38.4504C17.4155 38.4504 17.6037 38.1915 17.634 37.9119C17.7304 38.1849 18.0378 38.4052 18.3747 38.2341C18.7067 38.0668 19.0367 37.9023 19.3572 37.7144C19.418 37.6772 19.4699 37.6271 19.5093 37.5677C19.5487 37.5083 19.5746 37.441 19.5851 37.3706C21.6455 39.2758 23.4434 42.1915 22.6765 44.5278C20.6471 44.1672 18.6905 43.6674 16.856 42.6811L16.8556 42.6815ZM22.6963 47.4684C23.362 46.8883 23.8405 46.0901 24.1232 45.204C25.5323 43.7774 26.8988 42.2573 28.0827 40.6768C28.1962 40.5247 27.9578 40.3651 27.8292 40.4822C26.6068 41.6106 25.4529 42.811 24.3738 44.0769C24.4673 43.4058 24.4584 42.7245 24.3473 42.0561C23.4357 36.7372 17.1019 34.8762 15.27 30.1204C13.5757 25.717 15.9055 20.2517 11.5271 16.8611C9.04953 14.9415 6.7298 15.4715 4.71368 16.9301C8.75631 9.38836 15.4686 5.53247 21.3686 4.88485C28.9035 4.05911 36.1312 7.45356 43.2416 9.36854C54.5062 12.403 57.2788 8.86024 58.18 13.8504C54.9072 14.2226 52.0635 14.2671 48.8657 13.7682C48.7635 13.6047 48.6292 13.6312 48.4779 13.7058C44.319 13.0218 40.3811 11.8495 35.9168 11.2524C37.5793 9.79842 37.3693 10.0951 35.7702 11.2326C31.5706 10.6846 27.2518 10.7488 23.4181 12.6799C23.3907 12.6941 23.4096 12.7413 23.4389 12.73C27.2546 11.3054 31.1762 11.2231 35.0827 11.7172C33.9659 12.4912 32.8226 13.2562 31.7682 14.0988C23.2318 14.8517 23.8909 15.3147 31.0827 14.678C29.4343 16.1225 29.7994 16.3765 32.0945 14.5864C34.4358 14.3681 34.3413 14.3747 36.7537 14.1866C35.8071 14.9972 35.9215 15.8361 37.6568 14.1119C38.6602 14.0316 39.6635 13.94 40.6622 13.8285C38.1515 15.545 37.7875 15.6924 37.3203 16.2866C34.7184 16.3223 32.1242 16.5764 29.565 17.0462C30.4189 16.1808 30.3801 16.2271 29.477 17.0623C27.2405 17.4648 25.0098 18.0477 22.9965 18.9915C22.9378 19.0188 22.9813 19.1048 23.039 19.0925C24.9436 18.674 26.8074 18.194 28.6912 17.7878C26.0897 20.1477 25.5479 20.4586 24.9228 21.3381C24.8481 21.443 24.9946 21.5837 25.0996 21.5148C25.9999 20.9158 26.258 20.45 28.8728 17.749C30.3665 17.4163 31.8788 17.1731 33.4016 17.0206C32.6459 17.5591 31.8895 18.0948 31.1423 18.6465C30.3035 19.2662 29.2993 19.8415 28.6241 20.6389C28.5918 20.6728 28.5727 20.717 28.5703 20.7637C28.5678 20.8104 28.5822 20.8564 28.6108 20.8934C28.6394 20.9304 28.6802 20.9559 28.7261 20.9654C28.7719 20.9749 28.8196 20.9677 28.8605 20.9451C29.808 20.5058 30.6336 19.6896 31.4525 19.0484C32.3244 18.3643 33.1802 17.6596 34.0427 16.9634C38.23 16.6185 46.7097 17.0824 41.4328 16.492C41.7444 16.3613 42.0436 16.2029 42.3268 16.0186C42.9557 16.0026 43.5852 15.9894 44.2153 15.979C44.2017 16.0021 44.1951 16.0287 44.1964 16.0555C44.1977 16.0824 44.2067 16.1082 44.2225 16.13C44.2383 16.1517 44.26 16.1684 44.2851 16.178C44.3102 16.1876 44.3375 16.1897 44.3638 16.184C44.5898 16.1254 44.8158 16.0498 45.0409 15.9677C45.6801 15.9592 46.3204 15.9488 46.9606 15.9403C46.5539 16.2416 46.6759 16.4703 47.9554 15.9242C56.5826 15.7703 59.3203 14.9606 55.567 14.9427C56.4838 14.8931 57.3941 14.758 58.2858 14.5392C58.5846 16.9738 58.334 18.2917 59.9416 21.0276C58.5424 21.8962 58.5168 21.9566 60.1064 21.3019C60.6265 22.1616 61.2156 22.8126 61.3452 23.5645C61.7433 25.8677 59.3158 27.0968 57.0869 28.6216C57.1985 28.4421 57.3158 28.2655 57.4198 28.0812C57.4633 28.0047 57.3526 27.9103 57.2931 27.9839C57.0255 28.3157 56.773 28.6584 56.528 29.0061C55.4148 29.7639 54.341 30.5781 53.3109 31.4454C53.8963 30.6339 54.4712 29.8082 54.9478 28.9362C60.7267 24.9636 60.3466 24.2627 59.8048 24.6169C57.6298 26.0369 55.6391 27.7393 53.5076 29.2291C53.7923 28.8304 54.0719 28.4286 54.3464 28.0236C58.5621 24.8908 59.4596 23.144 58.7986 23.6381C57.642 24.5025 56.5168 25.3903 55.3924 26.2729C55.3924 26.2729 52.4589 28.6187 50.074 30.203C50.5137 29.4942 50.9329 28.7778 51.3317 28.0538C53.0113 26.903 54.5783 25.5964 56.0118 24.1511C56.1054 24.0557 55.9796 23.8734 55.8633 23.9584C54.598 24.8785 53.3289 25.7968 52.0466 26.6962C52.6982 25.3953 52.1223 26.0821 51.2485 27.2517C50.3709 27.8584 49.4858 28.4517 48.5931 29.0316C48.9782 28.2703 49.2959 27.4769 49.5425 26.6603C49.5474 26.6407 49.5451 26.62 49.536 26.602C49.5269 26.584 49.5117 26.5698 49.4931 26.5621C49.4745 26.5543 49.4537 26.5535 49.4345 26.5597C49.4153 26.5659 49.3989 26.5788 49.3884 26.5961C48.7728 27.6551 48.1543 28.6981 47.5123 29.7184C46.5987 30.2871 45.6721 30.8335 44.7326 31.3576C44.8669 30.9892 44.9908 30.6176 45.0987 30.239C45.1271 30.1408 44.9702 30.0681 44.9284 30.1673C44.7233 30.6491 44.5027 31.1318 44.2712 31.6132C43.2963 32.1432 42.303 32.6417 41.2913 33.1087C41.5578 32.4203 41.7675 31.7113 41.9183 30.9887C41.9335 30.9169 41.8247 30.8583 41.7906 30.9349C41.4284 31.771 41.053 32.5976 40.6464 33.4044C39.8682 33.7474 39.0773 34.068 38.2738 34.3662C38.269 34.368 38.2719 34.3756 38.2766 34.3737C39.0464 34.1026 39.8152 33.8202 40.5831 33.5263C40.1839 34.3173 39.7422 35.0862 39.2601 35.8296C38.4827 36.1498 37.6987 36.4505 36.912 36.7412C37.669 35.3832 38.2489 33.9339 38.6378 32.4288C38.6408 32.4141 38.6381 32.3988 38.6302 32.386C38.6224 32.3731 38.61 32.3638 38.5955 32.3597C38.581 32.3556 38.5655 32.3572 38.5521 32.364C38.5388 32.3709 38.5285 32.3826 38.5233 32.3967C37.9524 33.9874 37.2185 35.515 36.3332 36.955C36.2679 36.9786 36.2036 37.0041 36.1384 37.0277C36.1366 37.0286 36.1352 37.0301 36.1344 37.0319C36.1336 37.0337 36.1334 37.0358 36.134 37.0377C36.1346 37.0396 36.1358 37.0413 36.1374 37.0424C36.1391 37.0435 36.1411 37.044 36.1431 37.0438C36.1999 37.0277 36.2547 37.0097 36.3105 36.9937C35.7849 37.8463 35.2063 38.6651 34.578 39.4453C34.2073 39.6087 33.8369 39.7728 33.4669 39.9375C33.7893 39.5266 34.1139 39.1156 34.4277 38.6971C34.4901 38.614 34.3549 38.5147 34.2849 38.5865C33.74 39.1448 33.205 39.7123 32.6801 40.2889C32.4928 40.3731 32.3055 40.4552 32.1181 40.5393C32.0339 40.577 32.0935 40.7112 32.1806 40.6867C32.2496 40.6659 32.3186 40.6413 32.3876 40.6215C31.4013 41.7188 30.4557 42.8511 29.5629 44.0264C29.018 44.3825 28.4584 44.716 27.8787 45.0173C27.8692 45.0221 27.8777 45.0362 27.8872 45.0325C28.411 44.7822 28.9198 44.5082 29.4191 44.2219C29.1439 44.5865 28.8688 44.9513 28.6049 45.3253C26.8073 46.4451 24.7943 47.1751 22.6963 47.4681V47.4684ZM41.3067 16.0502C41.216 16.1258 40.9398 16.327 40.936 16.4414C40.0216 16.3536 39.1049 16.3029 38.186 16.2894C38.2673 16.2422 41.6688 13.7434 41.7364 13.6942C41.8896 13.6734 43.3591 13.5203 43.4026 13.3749C43.9672 13.5053 44.5336 13.6347 45.101 13.7594C41.4054 15.9247 41.7014 15.7349 41.3714 15.9946C39.1299 16.1673 39.0882 16.1277 41.3067 16.0502ZM39.3965 12.4593C40.3138 12.6529 41.0788 12.8305 41.8524 13.0129C41.7513 13.0809 41.651 13.1508 41.5498 13.2197C40.4851 13.2736 39.4202 13.3586 38.3564 13.4597C38.4152 13.4049 39.3739 12.5358 39.3965 12.4593ZM37.5526 13.5362C35.6953 13.7223 34.8782 13.8235 32.8063 14.0067C33.6716 13.2812 34.5085 12.5055 35.3483 11.7517C36.5426 11.9104 37.7351 12.1211 38.9219 12.3629C38.4679 12.7569 38.0115 13.148 37.5526 13.5362ZM42.3272 13.1857C42.3314 13.1659 42.3333 13.1456 42.3329 13.1252L42.5636 13.1791C42.4849 13.182 42.4066 13.1829 42.3272 13.1858V13.1857ZM45.653 13.8772C46.2242 13.9991 46.7969 14.1147 47.3712 14.2239C46.3991 14.6642 45.3929 15.1195 44.555 15.7138C43.8713 15.7809 43.1879 15.8435 42.5048 15.9018C42.8084 15.7035 44.9029 14.3563 45.653 13.8773V13.8772ZM48.212 14.377C48.6271 14.4498 49.0432 14.5169 49.4602 14.5783C48.9004 14.8362 48.3301 15.0988 47.7959 15.4002C47.1841 15.4578 46.5722 15.5167 45.9603 15.5768C46.7273 15.2113 47.4819 14.771 48.212 14.377ZM50.3482 14.6991C51.5221 14.8527 52.7033 14.9445 53.8868 14.974C52.684 15.0184 51.1576 15.1101 49.2852 15.2688C49.6446 15.0762 49.9983 14.8816 50.3482 14.6992V14.6991ZM52.1374 32.5244C51.8905 32.7652 51.6456 33.0118 51.4052 33.2697C50.9938 33.4114 50.5815 33.5531 50.171 33.6976C50.9617 32.6575 51.7579 31.6193 52.5362 30.5675C53.4648 29.9525 53.2492 30.0971 54.0918 29.5227C53.9389 29.7194 51.9927 32.3212 52.1374 32.5244ZM30.6748 43.246C31.5182 42.3202 32.335 41.3699 33.1164 40.3902C33.4209 40.2947 33.7254 40.205 34.0274 40.102C33.0234 41.2646 31.8996 42.3184 30.6748 43.246ZM31.6289 42.769C30.795 43.6964 29.8443 44.5119 28.8005 45.195C29.2932 44.7132 29.7764 44.2239 30.2454 43.7212C30.7201 43.4199 31.1836 43.1054 31.6289 42.7686V42.769ZM34.76 39.8375C35.3113 39.64 35.8601 39.433 36.4063 39.2165C35.2772 40.2784 34.0526 41.2239 32.8015 42.1887C32.792 42.1963 32.7968 42.218 32.8119 42.2114C34.6502 41.4698 36.3684 40.1973 37.821 38.6375C38.7591 38.2341 39.6856 37.8014 40.606 37.3564C40.363 37.6398 40.1142 37.9166 39.8567 38.185C37.4383 39.5052 35.1245 41.0082 32.9355 42.6809C32.8842 42.5504 32.7932 42.4392 32.6753 42.3631C32.5573 42.287 32.4185 42.2498 32.2783 42.2567C33.1742 41.5238 34.0046 40.7143 34.76 39.8375H34.76ZM48.6469 31.1101C48.1032 31.4398 47.7429 31.6666 46.3698 32.4214C46.9662 31.6959 47.5086 30.9277 47.9926 30.1229C48.7077 29.7252 49.4101 29.3083 50.0995 28.8721C49.6011 29.6061 49.1169 30.3521 48.6469 31.1101ZM49.3808 31.2925C50.6631 30.5292 51.9548 29.7129 53.2145 28.8371C52.9052 29.2415 52.597 29.6487 52.2944 30.0586C51.0943 30.8692 49.8768 31.6537 48.6418 32.412C48.8907 32.0407 49.137 31.6675 49.3808 31.2924V31.2925ZM45.2029 33.0515C44.6648 33.3331 44.1229 33.6083 43.5773 33.8772C43.9417 33.2288 44.2631 32.5572 44.5394 31.8668C45.3233 31.5068 46.0975 31.1283 46.8619 30.7312C46.3368 31.5258 45.7863 32.2995 45.2029 33.0515ZM44.4962 33.9178C44.0279 34.4762 43.5439 35.0241 43.0233 35.5494C42.7575 35.6835 42.488 35.8111 42.2213 35.9425C42.5771 35.4815 42.9071 35.0011 43.2095 34.5036C43.6407 34.3137 44.0697 34.1184 44.4964 33.9178H44.4962ZM42.8649 34.2211C41.9807 34.6443 41.088 35.049 40.1868 35.435C40.5867 34.7411 40.9347 34.0186 41.228 33.2734C42.1679 32.9031 43.1003 32.5123 44.0252 32.101C43.6672 32.817 43.2852 33.5277 42.8652 34.2211H42.8649ZM42.479 34.8238C42.1481 35.3377 41.8 35.8412 41.4332 36.3287C40.5348 36.7604 39.6317 37.1818 38.7238 37.5927C39.1755 37.0217 39.5911 36.4232 39.9683 35.8006C40.8132 35.4936 41.652 35.1715 42.4794 34.8238H42.479ZM38.2226 37.2669C37.9692 37.5834 37.7033 37.8838 37.434 38.177C36.7465 38.4849 36.0574 38.7914 35.3668 39.0962C35.9207 38.3777 36.4211 37.6196 36.8638 36.8279C37.6014 36.6067 38.3333 36.3745 39.0586 36.125C38.7942 36.513 38.5199 36.8965 38.223 37.2669H38.2226ZM41.3217 37.0099C43.2197 36.068 45.0665 35.0638 46.9162 34.0123C46.6892 34.4036 46.4635 34.7934 46.2391 35.1819C44.2851 35.9489 42.3768 36.8274 40.5235 37.8129C40.7971 37.5546 41.0638 37.2887 41.3219 37.0103L41.3217 37.0099ZM43.6622 35.2178C44.2923 34.6613 44.8992 34.0709 45.4741 33.4502C46.3511 33.0138 47.216 32.5471 48.0718 32.0576C47.8553 32.4176 47.6406 32.7782 47.4278 33.1393C46.8852 33.4606 45.9235 34.0548 43.6624 35.2178H43.6622ZM47.9744 33.4001C49.1225 32.7303 50.2563 32.0378 51.376 31.3227C50.7499 32.1947 50.1255 33.0673 49.5029 33.9406C48.6433 34.2495 47.7878 34.571 46.9364 34.9051C47.2824 34.4063 47.6285 33.9046 47.9746 33.4001H47.9744ZM50.8823 85.2609C50.8454 85.2628 50.8086 85.2666 50.7707 85.2676C50.8208 85.2345 50.87 85.2024 50.9192 85.1684C50.908 85.1996 50.8929 85.229 50.8825 85.2609H50.8823ZM47.1659 85.072C47.1219 85.0782 47.08 85.0951 47.0439 85.1212C46.1224 85.0058 45.2083 84.8373 44.3062 84.6167C47.025 84.5166 49.7693 83.1269 51.7741 81.2686C51.4054 83.7693 49.5226 84.8066 47.166 85.072H47.1659ZM48.6119 82.7773C47.3872 82.6431 46.1854 82.5345 44.9934 82.3749C45.7349 82.0931 46.4352 81.7134 47.0758 81.2459C47.4189 81.1833 47.7578 81.0993 48.0905 80.9947C48.1295 80.9827 48.163 80.9572 48.185 80.9228C48.207 80.8884 48.216 80.8473 48.2104 80.8068C48.2048 80.7664 48.1851 80.7293 48.1546 80.7021C48.1241 80.6749 48.085 80.6594 48.0442 80.6583C47.9628 80.6555 47.8806 80.6555 47.7983 80.6536C48.3105 80.1871 48.7625 79.6587 49.1439 79.0806C49.2196 78.9654 49.0484 78.8379 48.9539 78.9341C48.3318 79.5661 47.6514 80.138 46.9217 80.6423C46.6352 80.6404 46.3476 80.6404 46.0611 80.6395C46.0553 80.5805 46.0278 80.5258 45.9841 80.4858C45.9403 80.4459 45.8833 80.4234 45.824 80.4229C45.7648 80.4223 45.7073 80.4436 45.6628 80.4826C45.6182 80.5217 45.5897 80.5759 45.5827 80.6347C44.6361 80.6234 43.6925 80.5818 42.7438 80.4146C42.0929 80.2953 41.4492 80.1398 40.8157 79.9488C40.7954 79.894 40.7673 79.8425 40.7324 79.7957C40.6492 79.6899 40.5663 79.5841 40.4837 79.4783C40.5726 79.4424 40.6615 79.4093 40.7494 79.3715C42.4989 79.9754 44.717 80.3436 46.2824 79.5529C46.4905 79.4481 46.3666 79.1732 46.1746 79.1543C45.1571 79.0503 44.133 79.2563 43.1051 79.1552C42.6247 79.1055 42.1485 79.0218 41.68 78.9049C43.3828 77.9583 44.8728 76.5639 45.8456 75.074C45.9241 74.9549 45.7415 74.8123 45.646 74.9201C44.4895 76.2294 43.1958 77.3887 41.6714 78.2587C41.4029 78.4118 41.1305 78.5449 40.8563 78.6716C40.5309 78.5648 40.2076 78.4486 39.8917 78.3135C39.2635 78.0416 38.6638 77.708 38.1016 77.3177C39.0211 76.8669 39.9286 76.3919 40.8184 75.8997C41.0217 76.1038 41.2213 76.3116 41.4085 76.5291C41.7177 76.889 41.9966 77.3897 42.3961 77.641C42.4221 77.6552 42.4519 77.6606 42.4812 77.6565C42.5104 77.6523 42.5376 77.6388 42.5585 77.618C42.5795 77.5972 42.5932 77.5701 42.5975 77.5409C42.6018 77.5117 42.5965 77.4818 42.5824 77.4559C42.3289 77.0543 41.8297 76.7803 41.4666 76.4714C41.249 76.2862 41.0429 76.0898 40.8396 75.8885C41.4997 75.5239 42.1502 75.1506 42.7857 74.7728C42.9125 74.6972 42.8283 74.4639 42.6817 74.5244C41.9374 74.8306 41.19 75.1521 40.4395 75.4889C40.3932 75.4426 40.3469 75.3954 40.2995 75.3481C40.2882 75.3368 40.2702 75.3548 40.2816 75.367C40.326 75.4114 40.3705 75.4558 40.4158 75.5002C39.4437 75.9377 38.4753 76.4053 37.5221 76.8965C36.5755 76.1644 35.7272 75.3084 34.8771 74.4015C35.3055 75.4907 36.0374 76.4279 36.9235 77.2064C36.6227 77.366 36.3258 77.5296 36.0295 77.6938C33.829 76.186 32.1239 74.2446 30.4273 72.0793C30.4065 72.0538 30.3591 72.0821 30.3705 72.1133C30.8972 73.5285 31.7805 74.8125 32.8604 75.9376C32.8388 75.931 32.8166 75.9262 32.7942 75.9234C32.4859 75.9234 32.361 76.1964 32.4074 76.4297C29.0682 73.3018 26.4081 69.0448 25.3348 64.6376C26.4979 69.9913 28.9958 74.6451 33.3209 78.1321C33.597 78.3541 33.8836 78.5723 34.1768 78.7877C34.0207 78.885 33.8609 78.9795 33.7077 79.0787C33.6462 79.1174 33.684 79.2298 33.7597 79.2024C33.9753 79.1221 34.191 79.0343 34.4068 78.9501C36.6034 80.525 39.2438 81.8722 41.9843 82.6619C41.4527 82.7563 40.9163 82.8216 40.3776 82.8576C41.211 82.9942 42.0599 83.0098 42.8978 82.9038C44.3085 83.2517 45.7579 83.4184 47.2109 83.3998C46.0382 83.8344 44.8297 84.1179 43.6136 84.4409C40.4201 83.568 37.3109 82.062 34.5211 80.0819C31.8733 78.2028 29.4629 75.9619 27.2916 73.5528C24.4802 70.4334 23.3511 67.2704 23.3142 63.0796C23.2764 58.8614 24.3856 55.1307 26.6517 51.6238C27.0819 50.9568 27.7562 50.5478 27.744 51.6795C27.7373 52.3569 27.2891 53.2147 27.1596 53.9015C26.907 55.2412 26.9941 56.5902 27.5492 57.8467C29.0083 61.1514 31.9928 64.0395 34.8031 66.2152C38.007 68.6951 41.7395 70.2359 45.2394 72.2293C47.1544 73.3205 49.0257 74.5382 50.484 76.2141C50.7354 76.51 50.97 76.8197 51.1866 77.1418C51.5847 78.3086 51.8722 79.5244 51.8221 80.6855C50.8283 81.493 49.7523 82.1942 48.612 82.7773H48.6119ZM35.8305 78.3664C36.4392 78.7635 37.07 79.1256 37.72 79.451C37.8552 79.5181 37.9933 79.5832 38.1323 79.6484C37.8438 79.7353 37.5542 79.8235 37.2633 79.9129C36.5418 79.5288 35.8413 79.1065 35.1649 78.6479C35.387 78.5562 35.6092 78.4617 35.8305 78.3664ZM34.8121 78.3956C34.3553 78.0716 33.908 77.7362 33.4777 77.3791C33.23 77.1741 32.9854 76.9622 32.7439 76.7433C32.7606 76.7483 32.7777 76.7518 32.795 76.7537C33.0976 76.7537 33.2225 76.4892 33.1827 76.2577C33.8628 76.9212 34.598 77.5259 35.3805 78.065C35.1903 78.1755 34.9993 78.2832 34.812 78.3956H34.8121ZM36.5569 78.0451C36.8548 77.9101 37.1516 77.774 37.4486 77.6332C38.1653 78.1763 38.9442 78.632 39.7689 78.9908C39.7935 79.0021 39.821 79.0125 39.8465 79.0239C39.6975 79.0283 39.5553 79.0867 39.4463 79.1883C39.4333 79.2058 39.4213 79.2241 39.4104 79.2431C39.3036 79.2799 39.1958 79.3149 39.0879 79.3498C38.6775 79.1817 38.2728 78.9984 37.8775 78.7991C37.4145 78.5657 36.9785 78.3106 36.5568 78.0451H36.5569ZM38.8556 79.9742C39.2197 80.1292 39.5952 80.2756 39.9781 80.4126C40.0037 80.4324 40.0292 80.4533 40.0548 80.4731C40.1126 80.5213 40.1804 80.5562 40.2533 80.5753C40.3262 80.5944 40.4024 80.5973 40.4765 80.5837C42.1466 81.1325 43.9433 81.4717 45.6625 81.4046C45.0778 81.719 44.4685 81.9854 43.8405 82.201C42.8386 82.036 41.8509 81.7943 40.8862 81.478C39.7768 81.106 38.6969 80.6513 37.6558 80.1176C38.0589 80.1013 38.46 80.0534 38.8556 79.9743V79.9742ZM63.7207 78.9511C60.8062 82.32 57.2477 84.2236 53.4622 84.9501L53.4641 84.9406C54.1885 84.25 54.4069 83.1768 54.3559 82.0431C56.2273 81.5311 58.0742 80.9076 59.8974 80.2207C59.2922 80.6761 58.6851 81.1342 58.1848 81.6851C58.1574 81.7143 58.1829 81.771 58.2255 81.7568C59.3811 81.3478 60.4951 80.5202 61.5078 79.5964C62.3627 79.2562 63.2106 78.906 64.0517 78.5459C63.9403 78.6791 63.8342 78.8198 63.7207 78.9512V78.9511ZM77.7864 37.9168C77.7722 38.0283 77.7571 38.1379 77.7467 38.2446C77.2208 43.4623 76.1684 48.7509 74.8151 53.8327C72.6117 62.0981 69.718 71.6559 64.1793 78.3899C64.1717 78.3656 64.1549 78.3451 64.1325 78.3327C64.1101 78.3204 64.0838 78.3172 64.0591 78.3239C63.4397 78.5203 62.8232 78.7273 62.2056 78.9332C62.7465 78.3995 63.2515 77.8581 63.7102 77.3669C63.7829 77.2903 63.8482 77.2063 63.9192 77.1287C64.2369 76.9756 64.5528 76.8198 64.862 76.662C64.8866 76.6469 64.905 76.6236 64.9139 76.5961C64.9228 76.5687 64.9216 76.539 64.9106 76.5124C64.8995 76.4857 64.8793 76.4639 64.8536 76.4508C64.8279 76.4377 64.7984 76.4342 64.7703 76.4409C64.655 76.4758 64.5404 76.5145 64.4261 76.5505C65.0398 75.8457 65.6308 75.1221 66.1765 74.3634C66.1992 74.3531 66.2228 74.3427 66.2455 74.3313C66.2716 74.3181 66.2915 74.2955 66.3014 74.2681C66.3112 74.2407 66.3102 74.2106 66.2985 74.1839C66.991 73.2128 67.6275 72.2032 68.205 71.1598C70.6372 66.7469 72.1257 61.6945 71.8221 56.6346C71.821 56.6078 71.8095 56.5824 71.7902 56.5638C71.7708 56.5452 71.7449 56.5348 71.718 56.5348C71.6911 56.5348 71.6653 56.5452 71.6459 56.5638C71.6265 56.5824 71.6151 56.6078 71.614 56.6346C71.5468 57.637 71.44 58.6334 71.3075 59.6238C71.2961 59.6057 71.2791 59.592 71.259 59.5848C71.2389 59.5776 71.217 59.5774 71.1968 59.5841C70.5931 59.7769 70 60.0012 69.4199 60.2561C69.5362 59.7752 69.6355 59.2915 69.7131 58.8087C69.7204 58.7783 69.7156 58.7462 69.6997 58.7193C69.6838 58.6923 69.658 58.6726 69.6278 58.6643C69.5976 58.6559 69.5654 58.6596 69.5379 58.6746C69.5104 58.6896 69.4898 58.7147 69.4805 58.7445C69.2506 59.3406 69.0275 59.9358 68.8062 60.5291C67.9013 60.9438 67.0085 61.3917 66.1111 61.7979C65.9021 61.8915 66.0837 62.1977 66.2908 62.1049C67.0444 61.7677 67.818 61.4531 68.5849 61.1234C68.2031 62.1453 67.8227 63.1619 67.4201 64.1689C66.2276 64.7481 65.0484 65.3536 63.8626 65.9516C63.8372 65.9641 63.8161 65.9838 63.802 66.0083C63.9798 65.2979 64.1283 64.5818 64.2379 63.8649C64.2568 63.7496 64.0904 63.6967 64.0583 63.8157C63.5096 65.8371 62.7762 67.8038 61.8672 69.691C61.2365 69.8393 60.5934 69.9678 59.9361 70.0963C60.5108 70.1487 61.089 70.1497 61.6638 70.0991C60.9299 71.5864 60.102 73.0256 59.1853 74.408C58.72 74.4959 58.2481 74.5686 57.7678 74.6207C57.5872 74.6395 57.5796 74.9211 57.7678 74.9088C58.1518 74.8833 58.5357 74.8427 58.9186 74.7936C58.2973 75.71 57.6429 76.6157 56.9555 77.5106C57.9365 76.6602 58.8313 75.7153 59.6269 74.6896C60.3578 74.5689 61.0807 74.4039 61.7915 74.1955C61.2126 74.9759 60.614 75.7405 59.9957 76.4894C59.0199 76.9089 58.0477 77.333 57.0746 77.7449C56.929 77.8063 57.0339 78.0614 57.1843 78.0037C57.9335 77.7166 58.687 77.4338 59.4416 77.1497C58.9489 77.7306 58.4494 78.3038 57.9431 78.8691C58.6157 78.2625 59.2566 77.6334 59.8751 76.9853C61.687 76.3023 63.4979 75.6031 65.254 74.7994C64.7261 75.4947 64.1778 76.173 63.5897 76.8201C60.9201 77.7101 58.19 78.8674 55.7738 80.223C58.1731 79.5569 60.5156 78.7014 62.7792 77.6647C62.2128 78.24 61.6312 78.8021 61.0083 79.3453C58.7438 80.1205 56.5229 81.0178 54.3556 82.0331C54.2941 80.7284 53.8847 79.3529 53.4865 78.4097C53.0479 77.3818 52.4818 76.4131 51.8014 75.5263C51.6113 75.1824 51.4118 74.8489 51.2075 74.5286C51.1679 74.4483 51.1035 74.3829 51.0237 74.3421C50.944 74.3013 50.8532 74.2871 50.7648 74.3019C50.1858 73.69 49.5659 73.1181 48.9094 72.59C48.5908 69.4421 45.9751 67.0548 43.3859 65.2751C43.4117 64.9087 43.4111 64.5408 43.384 64.1745C43.4587 64.2226 43.5315 64.2736 43.6072 64.3191C43.7556 64.4088 43.8881 64.2114 43.784 64.0894C43.6393 63.9193 43.4889 63.7533 43.3327 63.5916C43.294 63.2279 43.2476 62.866 43.2032 62.5108C43.7652 63.0512 44.338 63.5689 44.9177 64.0419C44.999 64.109 45.1532 64.0192 45.0775 63.919C43.7224 62.1193 42.0117 60.3649 40.2963 58.8317C40.2556 58.4567 40.2159 58.0853 40.1894 57.7236C40.1696 57.4591 39.7552 57.4553 39.7734 57.7236C39.7895 57.9465 39.7989 58.1744 39.8084 58.404C39.7252 58.3322 39.6419 58.2566 39.5587 58.1858C39.5407 58.1708 39.5178 58.1632 39.4944 58.1643C39.471 58.1654 39.4489 58.1752 39.4324 58.1918C39.4159 58.2084 39.4063 58.2306 39.4053 58.2539C39.4044 58.2773 39.4122 58.3002 39.4273 58.318C39.5559 58.4805 39.6902 58.644 39.8226 58.8074C39.8434 59.4319 39.8652 60.0686 39.9323 60.6893C39.8633 60.6335 39.7933 60.5778 39.7252 60.522C39.3148 60.1839 38.9053 59.84 38.4949 59.4989C38.4382 59.0605 38.3757 58.625 38.3256 58.1971C38.1951 57.0861 38.1516 55.8872 37.7309 54.8373C37.5275 56.0201 37.7394 57.2662 37.8386 58.4557C37.8529 58.6323 37.8651 58.8109 37.8784 58.9903C37.2344 58.4608 36.5565 57.9739 35.849 57.5326C36.4928 58.2586 37.1839 58.9412 37.9179 59.576C37.9784 60.4351 38.0607 61.3001 38.3113 62.1107C38.315 62.1249 38.3255 62.1287 38.332 62.14C37.6275 61.6988 36.9315 61.2454 36.2639 60.7456C34.3385 59.3049 32.9616 57.5769 31.7578 55.5108C32.4018 59.2888 36.3679 61.6945 39.3827 63.5041C41.2276 64.6113 43.0991 65.6836 44.7388 67.0894C46.4089 68.5216 47.4992 70.1324 48.2917 72.1077C47.1057 71.2287 45.8555 70.4395 44.5516 69.7469C40.1118 67.3539 35.7907 65.2151 32.3073 61.456C30.1087 59.0829 28.1417 56.6879 28.6523 53.2746C28.9163 51.5061 29.3635 50.071 29.2245 48.3762C29.2585 48.3412 29.2888 48.3062 29.3238 48.2713C35.758 41.7781 42.9632 38.1788 50.5973 35.3341C50.9689 35.575 51.1731 35.3341 51.4407 35.0194C53.2713 34.3468 55.1117 33.6968 56.9445 33.0291C60.2751 31.8161 63.3522 29.8491 66.7471 28.8467C66.8105 28.8704 68.4549 28.7787 68.7293 28.7892C68.821 28.877 69.1926 28.8581 69.3184 28.8449C70.3804 29.0112 71.2353 29.5449 71.936 30.8429C72.3161 31.5468 72.4589 32.3432 73.0122 32.9582C74.0978 34.1647 76.0467 33.988 77.1399 35.0461C75.8378 37.6394 69.9813 53.4229 69.8139 54.1627C69.7667 54.3677 70.0588 54.5114 70.1657 54.311C70.5242 53.6384 76.4024 38.0192 77.1532 35.0613C77.1334 35.1406 77.7934 36.1212 77.8435 36.3508C77.949 36.8361 77.8554 37.4001 77.7863 37.9169L77.7864 37.9168ZM69.6859 63.1165C69.214 63.3207 68.7469 63.5341 68.2816 63.7523C68.6672 62.7943 68.9959 61.8145 69.2661 60.8179C69.9581 60.5143 70.6319 60.1706 71.2839 59.7887L71.2858 59.7849C70.7817 63.4306 69.785 66.9696 68.0998 70.2714C66.4951 71.4826 64.8033 72.4953 62.9999 73.2492C63.8317 72.1125 64.6034 70.9331 65.312 69.7159C65.4557 69.4693 65.5975 69.2152 65.7395 68.963C67.2359 68.2454 68.5921 67.2667 69.7443 66.0731C69.7602 66.0535 69.7683 66.0287 69.767 66.0035C69.7657 65.9783 69.7551 65.9545 69.7372 65.9366C69.7194 65.9187 69.6955 65.9081 69.6703 65.9068C69.645 65.9055 69.6202 65.9136 69.6006 65.9295C68.5588 66.8282 67.4053 67.589 66.1688 68.1931C66.8881 66.8871 67.538 65.5441 68.1159 64.1699C68.672 63.878 69.2261 63.5794 69.7737 63.2658C69.8731 63.2092 69.7861 63.0731 69.6859 63.1165ZM65.4217 68.5364C64.521 68.9226 63.5934 69.2428 62.6462 69.4944C63.11 68.3848 63.4906 67.2423 63.7847 66.0763C63.7847 66.1044 63.7917 66.1319 63.8052 66.1565C63.8188 66.181 63.8383 66.2017 63.862 66.2167C63.8858 66.2316 63.9129 66.2402 63.9409 66.2418C63.9689 66.2434 63.9969 66.2378 64.0221 66.2256C65.0935 65.6928 66.1669 65.1694 67.2307 64.6271C66.6948 65.9602 66.091 67.265 65.4217 68.5364ZM65.0142 69.2828C64.9773 69.348 64.9442 69.4151 64.9064 69.4802C64.093 70.8801 63.2099 72.2385 62.2605 73.5501C61.5115 73.8253 60.7459 74.0528 59.9681 74.2313C60.9343 72.9158 61.7561 71.5003 62.4193 70.0093C63.3094 69.8675 64.1801 69.6237 65.0143 69.2828H65.0142ZM62.4392 73.9923C64.3709 73.3579 66.1603 72.3535 67.7074 71.0352C67.0934 72.1515 66.4103 73.2284 65.662 74.2596C63.9353 74.8415 62.2387 75.5312 60.5545 76.2492C61.2137 75.5219 61.842 74.7696 62.4393 73.9923H62.4392ZM42.7139 63.7127C42.7324 64.1132 42.7744 64.5122 42.8397 64.9077C42.4784 64.6696 42.12 64.442 41.773 64.2273C41.5876 64.112 41.4004 64.0015 41.2141 63.8891C41.2791 63.4541 41.3173 63.0156 41.3285 62.5759C41.7777 62.973 42.2354 63.3584 42.7139 63.7127ZM41.3361 60.5795C41.7618 61.0529 42.2014 61.5167 42.6496 61.9683C42.6666 62.2915 42.6761 62.6257 42.6855 62.965C42.2543 62.5682 41.8023 62.1893 41.3436 61.8199C41.3445 61.4174 41.3408 61.015 41.3427 60.6116C41.3427 60.6007 41.3371 60.5913 41.3361 60.5795ZM38.571 60.1469C38.9815 60.5011 39.3937 60.8544 39.7994 61.2087C39.8798 61.2796 39.9602 61.3513 40.0405 61.4231C40.0819 61.648 40.1346 61.8706 40.1985 62.0901C40.2231 62.1714 40.364 62.1865 40.3791 62.0901C40.3951 61.9805 40.4037 61.8681 40.4141 61.7566C40.5739 61.9002 40.7327 62.0439 40.8925 62.1875C40.8971 62.7149 40.9353 63.2416 41.007 63.7642C40.1511 63.2494 39.2934 62.7383 38.4461 62.212C38.4857 62.2135 38.5244 62.1998 38.5542 62.1736C38.5839 62.1474 38.6025 62.1107 38.6059 62.0713C38.6599 61.4304 38.6482 60.7858 38.571 60.1473V60.1469ZM40.8926 60.6117C40.8936 60.8942 40.8917 61.1757 40.8898 61.4563C40.7432 61.3401 40.5967 61.223 40.4501 61.1067C40.4511 60.5554 40.4211 60.0045 40.3602 59.4566C40.6288 59.775 40.9031 60.0915 41.1829 60.406C41.15 60.3947 41.1149 60.3914 41.0805 60.3963C41.046 60.4013 41.0133 60.4144 40.9849 60.4345C40.9565 60.4547 40.9334 60.4813 40.9173 60.5122C40.9013 60.543 40.8929 60.5773 40.8928 60.612L40.8926 60.6117Z" fill="#DE8E15"/>
</svg>
