<svg width="81" height="87" viewBox="0 0 81 87" fill="none" xmlns="http://www.w3.org/2000/svg">
<path d="M78.5122 33.915C80.9328 29.9397 81.2124 24.9276 80.892 20.3159C81.1399 17.6588 80.736 14.981 79.716 12.5181C78.989 7.05516 75.2845 2.28127 69.6445 0.573363C62.6168 -1.55359 57.2101 2.66699 51.5487 6.19381C50.2463 7.00472 48.8947 7.77057 47.5292 8.46356C46.3162 9.07836 44.9622 9.31478 43.6837 9.8285C40.9527 10.9273 38.2001 11.9741 35.5115 13.1776C28.5854 16.2793 21.6315 19.6727 15.4733 24.1673C9.99123 28.1683 5.06985 33.2587 2.5453 39.6912C1.6049 42.0875 1.04192 44.6187 0.743896 47.1747C0.194787 51.8976 -0.121752 56.3655 0.044596 61.1316C0.144724 63.9717 0.0415445 66.9189 0.698478 69.6984C1.66737 73.7972 4.65485 76.8166 8.03201 79.1003C15.8638 84.3956 24.5044 87.3552 33.9035 86.9664C43.395 86.5738 53.6713 83.4582 60.1308 76.3254C63.3878 72.728 66.5725 68.2676 69.2711 64.2348C71.9582 60.2199 72.8832 55.928 73.2221 51.0424C73.4377 47.94 73.2051 44.7523 73.9599 41.7088C74.7337 38.5941 76.9048 36.5549 78.5122 33.915ZM77.9907 10.9388C77.9759 10.9925 77.9719 11.0485 77.9789 11.1037C77.9859 11.1589 78.0038 11.2121 78.0316 11.2602C78.0762 11.3456 78.1178 11.4333 78.1602 11.5194C78.6542 13.3364 78.7543 15.2393 78.4537 17.0987C78.1248 19.1264 77.2799 20.894 76.1778 22.5132C76.1257 22.5169 76.0765 22.5385 76.0384 22.5745C73.1988 25.1981 70.7258 28.1445 67.5958 30.4577C64.1917 32.9711 60.3493 34.537 56.1257 34.8637C51.9876 35.1841 48.1175 34.2693 44.1565 33.2061C41.0497 32.3712 37.9845 31.711 34.853 32.3704C39.0689 27.0883 47.6401 29.0709 52.0184 24.0139C52.4329 24.7058 52.9249 25.3473 53.4849 25.9259C52.7309 26.8556 51.9609 27.7713 51.1751 28.6729C49.8281 28.9212 48.498 29.2743 47.1656 29.5932C47.0147 29.6289 47.0408 29.8749 47.1941 29.8385C48.4541 29.539 49.7251 29.2643 50.9718 28.9093C50.8817 29.0125 50.7939 29.1173 50.7046 29.2204C50.2178 29.7753 49.698 30.3123 49.192 30.8601C47.8265 31.2108 46.451 31.522 45.0492 31.7474C44.879 31.7745 44.9083 32.0408 45.0808 32.0166C46.3177 31.8436 47.5538 31.6216 48.773 31.3283C48.4441 31.6986 48.1237 32.0748 47.8349 32.4714C47.7633 32.5715 47.885 32.7166 47.989 32.6335C48.5773 32.1606 49.1338 31.6489 49.6548 31.1018C50.0422 30.9962 50.4273 30.8824 50.81 30.7603C50.3436 31.2878 49.9102 31.8439 49.5123 32.4256C49.4592 32.5055 49.5547 32.6328 49.6372 32.5584C50.3218 31.9415 50.9441 31.2369 51.5471 30.5129C51.8714 30.3988 52.1941 30.2778 52.5129 30.1489C52.6339 30.1 52.5607 29.9254 52.439 29.9612C52.248 30.017 52.057 30.0706 51.8667 30.1257C52.3342 29.5528 52.7959 28.9764 53.2669 28.428C53.3748 28.3022 53.1768 28.1424 53.0682 28.2658C52.4713 28.9487 51.8259 29.623 51.2029 30.316C50.8371 30.4192 50.469 30.5201 50.1024 30.6202C51.3963 29.1978 52.5615 27.6001 53.6783 26.1257C55.8378 28.2581 58.8846 29.5066 61.5185 28.5646L61.5301 28.5583C66.0834 28.0074 70.6658 24.0235 71.8165 19.7222C72.4503 17.3538 71.8172 14.617 69.9859 12.9447C69.4892 12.4969 68.9221 12.1352 68.3078 11.8746C70.5675 9.67158 71.7897 5.84288 70.8902 2.72497C72.5633 3.53941 74.0552 4.68721 75.2756 6.09899C76.4961 7.51078 77.4197 9.15724 77.9907 10.9388ZM64.3018 47.5389C63.7588 51.2373 62.6351 54.6811 60.7351 57.8789C56.6733 62.101 50.1084 61.5182 44.4407 59.8172C45.921 58.9955 47.3959 58.1629 48.8561 57.3038C49.6278 57.2394 50.3987 57.1626 51.1651 57.0625C50.2687 57.5506 49.3791 58.0542 48.4942 58.564C47.8332 58.6315 47.1726 58.6985 46.5126 58.765C46.3686 58.779 46.394 59.0033 46.538 58.9893C47.0263 58.9412 47.513 58.8946 48.0011 58.8481C47.6081 59.0755 47.2156 59.3018 46.8235 59.5271C46.6818 59.6078 46.8173 59.8592 46.9629 59.7801C47.579 59.4417 48.1998 59.1057 48.8198 58.7689C49.8849 58.6665 50.9493 58.5586 52.0121 58.4329C50.9532 59.0149 49.8911 59.5907 48.8321 60.1782C48.8249 60.181 48.819 60.1867 48.8159 60.1939C48.8128 60.2011 48.8127 60.2093 48.8155 60.2166C48.8184 60.2239 48.824 60.2298 48.8312 60.2329C48.8383 60.236 48.8464 60.2362 48.8537 60.2333C50.2858 59.7362 51.6636 59.0926 52.9656 58.3127C53.1651 58.2863 53.3645 58.2646 53.5632 58.2366C53.5769 58.2343 53.5891 58.2268 53.5974 58.2157C53.6056 58.2045 53.6093 58.1906 53.6076 58.1768C53.6059 58.1629 53.599 58.1503 53.5883 58.1415C53.5776 58.1327 53.5639 58.1284 53.5501 58.1295C53.4469 58.1357 53.3429 58.145 53.2381 58.152C54.0413 57.664 54.8154 57.137 55.5432 56.5876C55.6163 56.5325 55.5362 56.4301 55.4623 56.4751C54.4542 57.0742 53.4368 57.6461 52.4156 58.2095C51.3913 58.2863 50.3682 58.3763 49.3465 58.4795C50.2653 57.9765 51.1795 57.4645 52.0791 56.9298C52.1214 56.9228 52.163 56.9181 52.2054 56.9112C52.2351 56.9082 52.2625 56.8938 52.2819 56.871C52.3013 56.8481 52.3112 56.8186 52.3094 56.7886C52.6899 56.5596 53.0711 56.3323 53.4454 56.0925C53.5347 56.0351 53.4508 55.8791 53.3537 55.9264C52.8662 56.1631 52.3848 56.4122 51.9045 56.6652C51.1972 56.6745 50.49 56.7047 49.7819 56.7521C50.6938 56.2034 51.6019 55.6471 52.4952 55.0674C52.5438 55.0356 52.4975 54.9479 52.4459 54.9765C51.3777 55.557 50.3272 56.1669 49.2821 56.7877C48.3386 56.8591 47.3952 56.9499 46.4525 57.0469C48.6506 55.8472 50.8055 54.5436 52.811 53.1066C52.8903 53.0499 52.8164 52.9033 52.727 52.9529C50.2479 54.3093 47.808 55.7448 45.3581 57.1587C44.6934 57.2262 44.0311 57.2921 43.3695 57.348C43.1569 57.3659 43.1947 57.6964 43.4072 57.6794C43.8054 57.6476 44.2041 57.6184 44.6033 57.5917C43.8331 58.0333 43.063 58.474 42.2882 58.9062C42.2722 58.917 42.259 58.9315 42.2496 58.9484C42.2403 58.9653 42.235 58.9842 42.2343 59.0035C42.2335 59.0229 42.2373 59.0422 42.2453 59.0598C42.2534 59.0774 42.2654 59.0928 42.2805 59.1048C41.4394 58.8029 40.6284 58.4864 39.8652 58.1682C39.0904 57.84 38.3365 57.4637 37.6079 57.0415C38.6699 56.5843 39.7033 56.0624 40.7024 55.4787C41.6617 55.3628 42.6118 55.1797 43.5459 54.9308C42.3532 55.7192 41.1813 56.541 40.0719 57.4124C40.0519 57.4279 40.0734 57.4551 40.0942 57.4434C41.5976 56.5991 43.0655 55.6384 44.505 54.6475C44.5874 54.6203 44.6698 54.5994 44.7522 54.5715C44.7615 54.5671 44.7696 54.5604 44.7756 54.552C44.7816 54.5436 44.7854 54.5337 44.7865 54.5234C44.7876 54.513 44.786 54.5026 44.7819 54.4931C44.7777 54.4836 44.7712 54.4753 44.763 54.4691C45.5257 53.9406 46.2833 53.4059 47.0281 52.8713C47.0951 52.8224 47.0211 52.7246 46.9518 52.7673C45.988 53.3632 45.0172 53.9748 44.0544 54.6017C43.1795 54.7818 42.2992 54.9339 41.4143 55.051C42.0905 54.6374 42.7543 54.2021 43.402 53.7528C43.6739 53.7194 43.9466 53.6931 44.2184 53.6558C44.2287 53.6538 44.2378 53.6479 44.244 53.6393C44.2502 53.6308 44.2529 53.6202 44.2516 53.6097C44.2504 53.5992 44.2452 53.5895 44.2372 53.5827C44.2292 53.5759 44.2189 53.5723 44.2084 53.5728C44.0112 53.5845 43.8118 53.5961 43.613 53.6078C44.2793 53.1391 44.9285 52.6587 45.5531 52.1737C45.5676 52.1611 45.5768 52.1434 45.5789 52.1242C45.581 52.105 45.5759 52.0857 45.5645 52.0701C45.5532 52.0546 45.5364 52.0439 45.5176 52.0403C45.4988 52.0366 45.4793 52.0402 45.463 52.0504C44.6266 52.5953 43.7809 53.1228 42.9314 53.6473C41.636 53.7218 40.3393 53.7881 39.0414 53.846C39.5012 53.6046 39.9602 53.3633 40.4185 53.122C41.1248 53.0793 41.8302 53.032 42.5349 52.9761C42.5564 52.9728 42.576 52.9619 42.5903 52.9454C42.6046 52.9288 42.6127 52.9078 42.613 52.8859C42.6134 52.864 42.6061 52.8426 42.5923 52.8256C42.5786 52.8086 42.5594 52.7971 42.538 52.793C42.1036 52.7433 41.6592 52.717 41.2125 52.7006C42.6181 51.9511 44.0129 51.1805 45.3722 50.3269C45.4131 50.3013 45.3737 50.2276 45.3306 50.2517C43.9097 51.044 42.4995 51.8804 41.0793 52.696C40.1207 52.6708 39.1615 52.7102 38.2081 52.814C39.6475 51.9922 41.0339 51.047 42.3146 50.1206C42.3847 50.0701 42.3085 49.97 42.2376 50.0142C40.5771 51.044 38.8443 51.9743 37.1468 52.9513C36.4313 53.0607 35.7267 53.1973 35.0473 53.3626C35.0388 53.3644 35.0313 53.3694 35.0262 53.3765C35.0212 53.3836 35.019 53.3924 35.02 53.4011C35.0211 53.4098 35.0254 53.4177 35.032 53.4234C35.0386 53.4291 35.0471 53.432 35.0558 53.4317C35.5256 53.3991 35.9969 53.372 36.4683 53.3448C35.8891 53.6855 35.3153 54.0323 34.7539 54.3963C34.7316 54.4102 34.7516 54.4436 34.7747 54.4358C35.1029 54.3186 35.43 54.1901 35.7559 54.0502C35.7527 54.0683 35.7535 54.087 35.7582 54.1049C35.7629 54.1227 35.7714 54.1393 35.7831 54.1535C35.7949 54.1677 35.8095 54.1791 35.8261 54.187C35.8427 54.1949 35.8607 54.199 35.8791 54.1992C36.7486 54.1969 37.6143 54.1751 38.4776 54.1425C37.8669 54.4684 37.2523 54.7858 36.6315 55.0853C36.6053 55.0977 36.6223 55.1396 36.6476 55.1265C37.2561 54.792 37.868 54.4661 38.4807 54.1426C39.8593 54.0898 41.2335 53.9943 42.6072 53.8469L40.4677 55.1646C39.0228 55.3186 37.569 55.3699 36.117 55.3183C35.956 55.312 35.9114 55.5596 36.0777 55.572C37.3213 55.669 38.5705 55.6675 39.8138 55.5673C39.0529 56.0391 38.2952 56.5164 37.5464 57.006C35.3228 55.7217 33.315 54.1104 31.1831 52.6659C32.1909 52.191 33.1709 51.6583 34.1182 51.0704C34.9731 51.0673 35.8272 51.0593 36.6806 51.0464C35.2719 51.8079 33.8109 52.5099 32.4639 53.3759C32.4609 53.3782 32.4639 53.3836 32.4678 53.3821C34.1514 52.7567 35.8187 51.9359 37.4408 51.0317C38.1986 51.013 38.9572 50.9882 39.7166 50.9416C39.8075 50.9354 39.7867 50.8043 39.7004 50.8027C39.0735 50.7965 38.4479 50.8006 37.8235 50.8151C39.1497 50.0605 40.4446 49.2592 41.6851 48.4616C41.7451 48.4228 41.6882 48.3157 41.6235 48.3498C40.0924 49.1576 38.5837 50.0065 37.0649 50.8383C36.15 50.8663 35.2358 50.902 34.3224 50.9454C35.4522 50.2386 36.5458 49.4713 37.5952 48.6888C37.5996 48.6856 37.6033 48.6816 37.6061 48.6769C37.6089 48.6723 37.6107 48.6671 37.6116 48.6618C37.6124 48.6564 37.6121 48.6509 37.6109 48.6456C37.6096 48.6404 37.6073 48.6354 37.6041 48.631C37.6009 48.6266 37.5969 48.6229 37.5923 48.6201C37.5877 48.6173 37.5826 48.6154 37.5772 48.6146C37.5719 48.6138 37.5665 48.614 37.5612 48.6153C37.556 48.6166 37.5511 48.6189 37.5467 48.6221C36.3306 49.4416 35.0875 50.2075 33.8407 50.9663C33.3293 50.9904 32.8179 51.0145 32.3057 51.0354C32.2772 51.037 32.2826 51.0797 32.3111 51.0797C32.7633 51.0758 33.2146 51.0742 33.6666 51.0727C32.8194 51.5879 31.9723 52.1039 31.1297 52.6293C30.6443 52.3019 30.1531 51.9822 29.651 51.678C29.584 51.6376 29.5116 51.595 29.4429 51.5538C31.1812 50.7794 32.8694 49.9739 34.4382 48.8689C34.4975 48.8278 34.4328 48.744 34.3728 48.7797C32.7562 49.7497 31.1319 50.7492 29.4175 51.5394C29.0153 51.3004 28.5742 51.0489 28.1036 50.8014C30.3733 49.6157 32.6484 48.3718 34.7863 46.9649C34.8557 46.9192 34.791 46.7966 34.7155 46.8353C32.4288 48.0063 30.2146 49.379 28.0543 50.7757C26.5864 50.0098 24.5678 49.1484 22.801 49.0057C25.5644 47.962 27.0008 45.4007 28.062 42.4175C28.9881 39.814 30.1757 37.5652 32.8651 36.5046C35.2834 35.551 37.932 35.7341 40.4212 36.2695C45.1808 37.2938 49.5346 39.039 54.4891 38.9017C58.7335 38.7838 62.8169 37.6112 66.543 35.6069C66.4892 35.759 66.4344 35.9103 66.3828 36.0655C65.1659 39.7952 64.8694 43.6797 64.3018 47.5389ZM17.84 68.4501C19.1893 68.2173 20.5373 67.9636 21.8494 67.567C23.7017 67.9061 25.5339 68.3507 27.313 68.9769C30.0417 69.9368 32.8836 71.7976 35.8226 72.5045C30.1774 72.8118 24.5413 71.7506 19.3872 69.41C17.6774 68.6329 16.0349 67.7135 14.4767 66.6615C14.7162 66.6592 14.9842 66.6824 14.9881 66.6824C15.5279 66.6894 16.0832 66.7849 16.6201 66.8408C17.7068 66.9533 18.7927 67.0829 19.874 67.2412C20.2831 67.3017 20.6912 67.3677 21.0993 67.4359C19.9888 67.5997 18.892 67.8481 17.7999 68.1087C17.5919 68.1583 17.6181 68.4889 17.84 68.4501ZM31.7869 70.0595C30.0025 69.2548 28.2367 68.4555 26.3611 67.8836C22.2037 66.6149 17.7869 66.0927 13.4601 65.8707C13.4313 65.8702 13.4026 65.8733 13.3746 65.88C12.6049 65.3071 11.8635 64.6993 11.1565 64.0565C11.6793 64.0736 12.2026 64.0487 12.7215 63.9821C12.726 63.9991 12.7407 64.0123 12.7576 63.9991C12.7669 63.9906 12.7762 63.9821 12.7854 63.9751C13.42 63.8998 14.0543 63.8004 14.697 63.7617C15.4448 63.7175 16.1965 63.7151 16.9467 63.7384C16.6933 64.0054 16.446 64.277 16.2096 64.5594C16.1935 64.5781 16.2204 64.606 16.2397 64.5904C16.6024 64.3196 16.9521 64.031 17.304 63.7451C18.199 63.785 19.0913 63.8718 19.9773 64.005C23.5015 64.5335 26.8117 65.8852 30.071 67.2781C34.1344 69.0163 38.4643 70.9415 42.9151 71.3411C41.4771 71.7406 40.0141 72.0421 38.5359 72.2436C36.1846 71.6743 34.0112 71.0621 31.7869 70.0595ZM16.3628 62.8355C17.0683 62.657 17.7725 62.4739 18.4753 62.2861C18.2366 62.4933 18.0033 62.7053 17.773 62.9219C17.3155 62.8848 16.8433 62.853 16.3628 62.8359V62.8355ZM20.1636 63.1886C20.2676 63.1653 20.3716 63.1397 20.4763 63.1164C20.4316 63.1506 20.3877 63.1848 20.3439 63.2196C20.2829 63.2099 20.2235 63.1982 20.1636 63.189V63.1886ZM27.4478 65.276C25.2351 64.4077 22.9701 63.6783 20.6341 63.2693C20.7504 63.1824 20.8667 63.095 20.983 63.007C21.5845 62.8751 22.187 62.7466 22.7905 62.6214C22.5409 62.8185 22.2968 63.0241 22.0604 63.2383C21.9094 63.3749 22.0973 63.6341 22.2483 63.4952C22.6504 63.1296 23.0739 62.7889 23.5167 62.4747C24.5572 62.2637 25.5985 62.0564 26.6405 61.8529C26.656 61.8505 26.6699 61.8421 26.6793 61.8296C26.6888 61.8171 26.693 61.8013 26.6913 61.7857C26.6895 61.7701 26.6817 61.7557 26.6697 61.7457C26.6577 61.7357 26.6423 61.7307 26.6267 61.7319C25.7679 61.8281 24.9153 61.9554 24.0659 62.0952C24.5096 61.8026 24.965 61.5261 25.4319 61.2657C25.532 61.2105 25.478 61.0491 25.3649 61.0941C24.6492 61.392 23.9694 61.7708 23.3385 62.2232C22.7478 62.3288 22.1586 62.4423 21.571 62.5639C22.9034 61.5567 24.2281 60.5409 25.5096 59.4677C25.5198 59.4585 25.5263 59.4458 25.5277 59.432C25.5292 59.4183 25.5255 59.4045 25.5175 59.3933C25.5094 59.3821 25.4976 59.3744 25.4842 59.3715C25.4708 59.3686 25.4568 59.3708 25.4449 59.3777C23.9415 60.4291 22.4906 61.5481 21.0434 62.6741C20.4588 62.8006 19.875 62.9335 19.292 63.0729C19.1796 63.0597 19.0679 63.0419 18.9547 63.0302C18.7283 63.0077 18.4926 62.9845 18.2539 62.9627C18.6058 62.664 18.9586 62.3645 19.3074 62.0603C20.5305 61.7282 21.7517 61.3854 22.9711 61.0321C23.0212 61.0174 23.0004 60.9305 22.948 60.9421C21.8682 61.1881 20.7913 61.4421 19.7172 61.7041C20.5982 60.9344 21.4784 60.1638 22.3881 59.4344C22.3991 59.4263 22.4065 59.414 22.4086 59.4004C22.4107 59.3868 22.4074 59.3729 22.3993 59.3618C22.3912 59.3507 22.3791 59.3433 22.3656 59.3412C22.3521 59.339 22.3383 59.3424 22.3273 59.3505C21.1859 60.1522 20.0291 60.9864 18.9378 61.8936C17.7448 62.1885 16.5546 62.4976 15.3673 62.8209C14.9183 62.8248 14.47 62.8457 14.0272 62.8861C14.9067 62.0896 15.767 61.2713 16.6627 60.4953C17.9881 59.3445 19.3683 58.2612 20.7099 57.1291C20.7304 57.1124 20.7437 57.0885 20.7471 57.0622C20.7505 57.036 20.7436 57.0094 20.728 56.9881C20.7124 56.9667 20.6893 56.9523 20.6633 56.9478C20.6374 56.9432 20.6108 56.949 20.589 56.9638C18.1167 58.6189 15.6199 60.6652 13.592 62.9326C12.5854 63.0599 11.6304 63.3082 10.8184 63.7474C10.5774 63.5208 10.3432 63.2888 10.1111 63.0536C11.2094 61.9137 12.37 60.8468 13.5614 59.8077C13.6085 59.7674 13.5553 59.6913 13.5052 59.7293C12.2542 60.7043 11.0736 61.7678 9.97244 62.9116C7.29381 60.152 5.27115 56.8317 4.45189 53.0139C6.33103 52.1114 8.33787 51.5082 10.4007 51.226C8.70552 52.4556 6.81578 54.0087 5.75272 55.8059C5.7281 55.8471 5.78815 55.8897 5.82282 55.8626C6.62377 55.2394 7.28924 54.4379 8.01398 53.7279C8.90043 52.8588 9.81851 52.02 10.7327 51.1811C18.9065 50.2049 26.9293 54.3068 34.383 58.1068C40.7245 61.341 51.1703 66.7497 57.9408 61.8043C54.5513 65.8231 50.2692 68.7129 45.5581 70.479C39.0904 70.6314 33.4428 67.6299 27.4478 65.2764V65.276ZM44.4016 59.8045C43.71 59.5965 43.0322 59.3731 42.3737 59.1387C42.3862 59.1378 42.3985 59.1347 42.4099 59.1294C43.4558 58.6172 44.5055 58.0834 45.5499 57.5295C46.4817 57.4706 47.4151 57.4139 48.3471 57.3425C47.0223 58.1466 45.71 58.9722 44.4015 59.8049L44.4016 59.8045ZM39.0287 53.8469C38.0082 53.8911 36.9877 53.9299 35.968 53.954C36.4257 53.7522 36.8799 53.5304 37.3304 53.2944C38.3278 53.2393 39.3252 53.1873 40.3218 53.1276C39.8921 53.3704 39.4611 53.6102 39.0287 53.8469ZM51.9291 38.2907C46.9851 38.0322 42.523 35.4887 37.6172 35.1977C34.6196 35.0192 31.3426 35.7845 29.371 38.231C28.1402 39.7589 27.6791 41.719 27.0019 43.5217C25.889 46.4844 23.8982 48.5309 20.7312 49.0987C20.5009 49.1398 20.537 49.4867 20.7736 49.4641C20.8375 49.4579 20.8953 49.4463 20.9577 49.4385C21.1194 49.5433 21.3104 49.6604 21.3258 49.6658C23.4229 50.32 25.4955 50.3099 27.5619 51.3249C29.6498 52.3499 31.5012 53.7654 33.3759 55.1311C36.8039 57.6282 40.2989 59.3222 44.3916 60.4295C48.1645 61.4507 53.511 62.55 57.5981 61.1667C53.5177 63.9991 47.9602 62.9692 43.4971 61.422C38.2692 59.6116 33.4857 56.7551 28.4966 54.4017C21.3317 51.0207 11.6992 48.2233 4.39343 52.7116C4.26125 52.0469 4.16664 51.3751 4.11004 50.6995C4.09 50.4419 4.07849 50.1866 4.07155 49.9336C4.12949 49.989 4.20664 50.0194 4.28651 50.0182C4.71476 50.0167 5.14633 50.0112 5.57888 50.0042C5.58287 50.0099 5.58797 50.0147 5.59386 50.0184C5.59975 50.022 5.60631 50.0244 5.61315 50.0254C5.61998 50.0265 5.62695 50.0261 5.63364 50.0243C5.64032 50.0225 5.64658 50.0194 5.65203 50.0151L5.6659 50.0027C9.99421 49.922 14.4999 49.4688 18.4961 47.7974C22.9077 45.9529 25.5794 42.5331 27.8182 38.4149C30.5184 33.4476 32.8385 28.5641 38.4597 26.4663C42.6894 24.8874 47.2342 24.5062 51.2852 22.4685C51.4358 22.8877 51.6178 23.2947 51.8298 23.686C46.7582 28.5925 37.7744 26.5882 33.6477 32.7526C33.5977 32.8188 33.5704 32.8995 33.5697 32.9827C33.569 33.0658 33.5951 33.147 33.6439 33.214C33.6928 33.2811 33.7618 33.3304 33.8408 33.3546C33.9198 33.3789 34.0044 33.3767 34.082 33.3485C38.5706 31.982 42.9759 33.8026 47.3261 34.847C51.056 35.7425 54.9762 36.0218 58.76 35.2955C62.9651 34.4877 66.7951 32.2979 70.1424 29.4989C68.8577 31.0548 67.7595 32.6898 66.9469 34.5816C66.8951 34.588 66.845 34.6049 66.7999 34.6313C62.2924 37.2602 57.1385 38.5639 51.9291 38.2907ZM9.87952 44.695C10.2685 44.584 10.6574 44.4754 11.0463 44.366C9.45051 46.0305 7.83624 47.6769 6.2035 49.3054C5.53963 49.3465 4.87805 49.3868 4.21876 49.4311C4.16411 49.4347 4.11178 49.4547 4.06857 49.4886V49.4295C5.99478 47.3801 7.80236 45.1547 9.53365 42.8965C10.6997 42.7428 11.8626 42.5443 13.0141 42.2897C12.4672 42.8765 11.9135 43.456 11.3597 44.0363C10.8407 44.1915 10.3221 44.3464 9.80401 44.5011C9.67539 44.539 9.75242 44.7306 9.87952 44.695ZM55.1322 16.6393C54.4098 16.966 53.7305 17.406 53.0666 17.8514C53.2293 17.4818 53.4239 17.1274 53.6481 16.7922C54.4775 16.3126 55.3201 15.8245 56.138 15.3116C56.1422 15.3207 56.1494 15.328 56.1585 15.3322C56.1676 15.3363 56.1778 15.337 56.1873 15.3341C57.6352 14.8786 59.0685 14.0242 60.3601 13.2273C60.4295 13.1846 60.3655 13.0729 60.2924 13.1031C59.2388 13.5423 58.1051 14.0323 57.09 14.638C57.09 14.6213 57.0861 14.6048 57.0786 14.5899C57.071 14.575 57.06 14.5621 57.0466 14.5524C57.0331 14.5426 57.0175 14.5362 57.0011 14.5337C56.9847 14.5311 56.9679 14.5326 56.9522 14.5379C56.0232 14.9033 55.1396 15.3762 54.319 15.9471C54.6698 15.5681 55.0562 15.224 55.4727 14.9197C56.4099 14.4627 57.3326 13.9777 58.2468 13.4764C59.8372 12.9006 61.5539 12.6011 63.1243 12.487C64.8079 12.3652 66.6363 12.5383 68.0588 13.3911C67.0753 13.7519 66.1057 14.1531 65.096 14.434C64.4906 14.4 63.8834 14.4459 63.2899 14.5706C63.5232 14.4255 63.752 14.2781 63.9731 14.1235C63.9884 14.1116 63.999 14.0946 64.003 14.0755C64.007 14.0565 64.004 14.0366 63.9947 14.0195C63.9854 14.0024 63.9703 13.9893 63.9522 13.9824C63.9341 13.9756 63.9142 13.9755 63.896 13.9822C62.3865 14.5626 60.8339 15.1827 59.3859 15.9043C59.3444 15.9229 59.3116 15.957 59.2945 15.9993C59.2773 16.0417 59.277 16.0891 59.2937 16.1317C59.3104 16.1742 59.3428 16.2087 59.3841 16.2277C59.4254 16.2468 59.4724 16.2491 59.5153 16.2341C59.5823 16.217 59.6486 16.1953 59.7148 16.1766C59.4475 16.366 59.1895 16.5638 58.9438 16.7726C58.2268 17.0868 57.5088 17.3998 56.7897 17.7115C56.761 17.7242 56.7383 17.7476 56.7264 17.7769C56.7145 17.8061 56.7143 17.8389 56.7259 17.8682C56.7375 17.8976 56.7599 17.9213 56.7885 17.9343C56.8171 17.9473 56.8496 17.9487 56.8791 17.9381C57.354 17.7927 57.8183 17.614 58.2685 17.4034C57.2002 18.4913 56.3484 19.8407 55.9564 21.3035C55.0076 21.6871 54.0809 22.1241 53.1807 22.6126C53.0853 22.4116 52.9998 22.2091 52.9251 22.0035C53.2501 21.8459 53.5659 21.6581 53.8708 21.4935C54.4515 21.1814 55.0173 20.8441 55.5683 20.4815C55.5829 20.4701 55.5929 20.4538 55.5967 20.4355C55.6004 20.4173 55.5976 20.3983 55.5887 20.3819C55.5798 20.3656 55.5654 20.353 55.5481 20.3464C55.5308 20.3397 55.5118 20.3395 55.4944 20.3457C54.8274 20.6392 54.182 20.9704 53.5466 21.3273C53.3132 21.4585 53.0676 21.585 52.8324 21.7239C52.7703 21.527 52.7184 21.327 52.6768 21.1248C53.3098 20.6887 53.9521 20.2673 54.5929 19.8444C54.6043 19.8354 54.6122 19.8227 54.6151 19.8084C54.618 19.7941 54.6158 19.7793 54.6089 19.7665C54.602 19.7537 54.5907 19.7438 54.5772 19.7386C54.5637 19.7334 54.5488 19.7332 54.5352 19.738C53.872 20.0534 53.2346 20.4211 52.629 20.8376C52.5636 20.4054 52.5533 19.9665 52.5982 19.5317C52.6072 19.5304 52.616 19.5281 52.6244 19.5247C53.3946 19.1444 54.1278 18.6626 54.7308 18.0457C54.8125 17.9627 54.6877 17.864 54.6037 17.9106C53.9406 18.2815 53.3001 18.7001 52.6591 19.1119C52.7032 18.8716 52.7641 18.6349 52.8416 18.4034C53.6598 17.9213 54.5058 17.4373 55.2345 16.8258C55.3232 16.7518 55.2485 16.5863 55.1322 16.6393ZM69.035 14.153C69.3868 14.5156 69.679 14.9324 69.9006 15.3876C70.3774 16.3584 70.5622 17.4517 70.5137 18.5389C70.0005 17.0963 68.8772 15.8315 67.5493 15.1192C67.5385 15.113 67.5277 15.1091 67.5161 15.1037C68.0322 14.8654 68.5459 14.6117 69.0026 14.2842C69.0237 14.2707 69.0388 14.2496 69.0449 14.2252C69.051 14.2008 69.0475 14.175 69.0353 14.153H69.035ZM55.7383 22.5947C55.3773 22.7949 55.0292 23.0181 54.6962 23.2628C54.4367 23.4483 54.1623 23.6352 53.9122 23.8447C53.6695 23.509 53.453 23.1549 53.2645 22.7855C54.1687 22.4019 55.0518 21.9697 55.9101 21.4908C55.8217 21.8532 55.7643 22.2225 55.7383 22.5947ZM54.9173 23.567C55.1954 23.38 55.4647 23.1803 55.7252 22.9679C55.7229 23.1564 55.7293 23.3455 55.7445 23.5351C55.2416 23.7632 54.7622 24.0408 54.3135 24.3638C54.2411 24.2761 54.1702 24.1869 54.1009 24.0961C54.3836 23.9351 54.6539 23.7441 54.9173 23.5672V23.567ZM55.7814 23.8906C55.8022 24.0443 55.8268 24.198 55.8608 24.3523C55.9379 24.7003 56.0425 25.0415 56.1735 25.3727C56.0184 25.5007 55.857 25.6206 55.6898 25.7321C55.3216 25.4272 54.974 25.098 54.6493 24.7465C55.049 24.4927 55.4276 24.2065 55.7814 23.8909L55.7814 23.8906ZM56.2713 25.6132C56.4107 25.931 56.5767 26.2362 56.7672 26.5258C56.4869 26.3441 56.2135 26.1494 55.949 25.9423C56.0687 25.8456 56.1768 25.7352 56.2713 25.6135L56.2713 25.6132ZM57.0063 23.1316C57.004 20.9457 58.2192 18.8684 59.929 17.5787C61.6881 16.2517 64.2635 15.2895 66.4354 16.1299C68.6404 16.9835 70.3986 19.9392 69.5238 22.3417C68.6612 24.7061 64.8689 26.5056 62.6192 27.0208C61.0836 27.3723 59.7034 27.957 58.3941 26.7252C57.4581 25.8447 57.0076 24.3944 57.0061 23.1319L57.0063 23.1316ZM68.8976 14.0906C68.2676 14.2777 67.6669 14.5881 67.0792 14.8961C66.7799 14.769 66.4705 14.6672 66.1543 14.5919C66.9402 14.3759 67.6884 14.039 68.3724 13.5932C68.5867 13.7437 68.7884 13.9116 68.9756 14.0952C68.9508 14.0851 68.9232 14.0836 68.8974 14.0909L68.8976 14.0906ZM70.1661 2.40276C70.495 3.88486 70.7707 5.26768 70.488 6.86709C70.1621 8.71849 69.2974 10.3521 68.1698 11.8186C67.281 11.4563 66.313 11.2692 65.3356 11.1978C68.1883 9.09723 69.6747 5.08932 68.0304 1.73702C68.7598 1.89722 69.4742 2.12004 70.1659 2.40304L70.1661 2.40276ZM51.7096 7.55714C52.5167 7.01709 53.2992 6.4669 54.0779 5.92678C56.4831 4.26073 58.8506 2.70415 61.8065 1.91259C59.1625 4.69682 56.4346 7.43061 54.0147 10.4174C53.9469 10.5012 54.0678 10.592 54.1403 10.5206C56.9175 7.80229 59.4151 4.79226 61.9729 1.8676C63.0078 1.59653 64.0713 1.45219 65.1405 1.43772C65.8316 1.43187 66.5221 1.4817 67.2054 1.58674C68.1612 3.90771 68.5644 6.19534 67.2909 8.57366C66.6863 9.70351 65.8106 10.5532 64.7863 11.1693C64.0651 11.1488 63.3434 11.1731 62.6252 11.2423C57.6553 11.7055 50.9818 14.0141 50.865 20.0668C50.8573 20.6636 50.9325 21.2585 51.0884 21.8343C46.9564 23.9621 42.2346 24.3075 37.9016 25.9028C33.584 27.4928 30.8553 30.3717 28.8021 34.4658C26.3299 39.3917 24.3574 44.2398 19.1088 46.7651C15.1548 48.667 10.7979 49.0162 6.48572 49.2872C8.30317 47.6832 10.0337 45.9819 11.6697 44.1906C12.5446 43.9446 13.4187 43.6945 14.2921 43.4402C13.8816 43.7972 13.4778 44.1603 13.0806 44.5297C12.6224 44.667 12.1633 44.8051 11.7051 44.941C11.5234 44.9945 11.6327 45.2669 11.8129 45.2149C12.0678 45.142 12.3243 45.0698 12.58 44.9969C11.2954 46.2082 10.0469 47.4591 8.75149 48.6787C8.74916 48.6806 8.74724 48.683 8.74586 48.6857C8.74448 48.6884 8.74367 48.6913 8.74348 48.6944C8.74329 48.6974 8.74372 48.7004 8.74475 48.7033C8.74577 48.7061 8.74738 48.7087 8.74945 48.7109C8.75153 48.7131 8.75403 48.7149 8.75681 48.7161C8.75959 48.7172 8.76257 48.7178 8.76558 48.7178C8.76859 48.7177 8.77156 48.7171 8.7743 48.7158C8.77705 48.7146 8.7795 48.7127 8.78152 48.7105C10.0754 47.3579 11.4948 46.1164 12.9319 44.8965C13.8403 44.6389 14.7479 44.3782 15.6529 44.1081C14.9334 44.7214 14.2057 45.3224 13.4697 45.9109C12.908 46.0607 12.346 46.2073 11.7792 46.3392C11.5235 46.3982 11.5666 46.8118 11.827 46.7528C12.1073 46.6899 12.3861 46.6232 12.6649 46.5557C12.5747 46.6271 12.4862 46.7016 12.3992 46.7777C12.5023 46.7008 12.6041 46.6233 12.7072 46.5457C13.8571 46.2679 14.9977 45.9528 16.123 45.5912C15.3112 46.3051 14.4917 47.0094 13.6544 47.6956C13.5243 47.802 13.6729 48.0107 13.8092 47.9082C14.929 47.0648 16.025 46.1855 17.0862 45.2674C17.9958 44.9484 18.8954 44.5967 19.778 44.2004C19.8036 44.1894 19.8239 44.1687 19.8346 44.1429C19.8454 44.117 19.8456 44.0879 19.8354 44.0618C19.8252 44.0357 19.8052 44.0147 19.7798 44.0032C19.7544 43.9917 19.7256 43.9906 19.6994 44.0002C19.0725 44.209 18.445 44.4151 17.8171 44.6187C19.4333 43.1808 20.9413 41.6241 22.3287 39.9612C22.3634 39.9186 22.3018 39.8487 22.2602 39.8883C20.4841 41.5885 18.703 43.2762 16.8759 44.9143C15.7861 45.2573 14.6925 45.585 13.5892 45.8804C14.3817 45.2744 15.1609 44.6559 15.9267 44.025C16.6706 43.8 17.4115 43.5695 18.1462 43.3158C18.2494 43.2801 18.2079 43.0992 18.0985 43.1249C17.5693 43.2522 17.0418 43.3895 16.5165 43.5315C18.0722 42.2298 19.5604 40.8483 20.9751 39.3924C20.9913 39.3754 20.9643 39.3459 20.9474 39.3622C19.4055 40.8008 17.8367 42.2266 16.2347 43.6107C15.326 43.8622 14.421 44.1282 13.5175 44.3991C13.9604 44.0251 14.4025 43.6513 14.8438 43.2778C15.6878 43.0279 16.5296 42.7718 17.3653 42.4971C17.4508 42.4692 17.4161 42.3171 17.326 42.3403C16.6534 42.5103 15.9828 42.6911 15.3144 42.8783C15.6432 42.5966 15.9698 42.3131 16.294 42.0278C16.3741 41.9564 16.2824 41.8238 16.1939 41.8905C15.7064 42.2591 15.2366 42.6432 14.773 43.0335C13.841 43.2989 12.9109 43.5714 11.9826 43.8509C12.4771 43.3046 12.9607 42.749 13.4397 42.1895C15.4315 41.7353 17.3739 41.0844 19.2388 40.2462C19.2583 40.2375 19.2737 40.2215 19.2817 40.2016C19.2897 40.1818 19.2898 40.1595 19.282 40.1396C19.2741 40.1196 19.2589 40.1035 19.2395 40.0946C19.2201 40.0857 19.1981 40.0847 19.178 40.0918C17.4098 40.7017 15.6352 41.2566 13.8376 41.7197C14.349 41.1136 14.8532 40.5011 15.3502 39.8822C15.3581 39.8718 15.3616 39.8587 15.3601 39.8456C15.3585 39.8326 15.352 39.8207 15.3419 39.8124C15.3318 39.8042 15.3189 39.8002 15.3059 39.8013C15.293 39.8025 15.2809 39.8087 15.2724 39.8186C14.6701 40.4929 14.0563 41.1572 13.4433 41.8206C12.2341 42.1225 11.0134 42.3795 9.77572 42.5821C10.4381 41.7146 11.0901 40.8459 11.732 39.9762C11.7442 39.9609 11.75 39.9412 11.7479 39.9216C11.7459 39.9021 11.7362 39.8841 11.721 39.8717C11.7058 39.8592 11.6864 39.8534 11.6669 39.8554C11.6475 39.8574 11.6296 39.8671 11.6172 39.8823C9.00174 42.7946 6.35466 45.8333 4.0719 49.0288C4.20129 45.0511 5.92953 41.5926 8.03125 38.1782C10.1808 34.6879 12.422 31.2198 15.1525 28.1549C21.1644 21.4038 29.4159 18.3301 37.492 14.9554C36.7457 15.7392 35.9802 16.5032 35.1954 17.2477C33.6882 17.4882 32.1763 17.7055 30.656 17.8653C30.6503 17.8662 30.6451 17.8693 30.6416 17.8739C30.6382 17.8785 30.6366 17.8843 30.6373 17.8901C30.638 17.8959 30.6409 17.9011 30.6454 17.9048C30.6499 17.9084 30.6557 17.9101 30.6614 17.9096C32.1262 17.7559 33.5919 17.5852 35.0536 17.3843C33.9769 18.4031 32.8686 19.3894 31.745 20.3563C31.01 20.5184 30.275 20.6783 29.5361 20.825C29.3706 20.8576 29.3975 21.1214 29.5669 21.0905C30.133 20.9873 30.6985 20.881 31.2636 20.7715C30.4157 21.494 29.5608 22.2076 28.699 22.9125C28.6877 22.9229 28.6807 22.9372 28.6792 22.9526C28.6777 22.9679 28.6819 22.9833 28.6909 22.9958C28.6999 23.0083 28.7132 23.0169 28.7282 23.0202C28.7432 23.0234 28.7588 23.021 28.7721 23.0134C29.778 22.2778 30.7438 21.4979 31.6834 20.6901C32.6207 20.507 33.5557 20.3122 34.4884 20.1057C33.8083 20.7576 33.1365 21.4177 32.4729 22.086C31.4778 22.2591 30.4774 22.4074 29.4692 22.5237C29.4367 22.5284 29.4074 22.5457 29.3875 22.5719C29.3675 22.598 29.3585 22.631 29.3623 22.6638C29.3661 22.6965 29.3825 22.7265 29.4079 22.7473C29.4333 22.7681 29.4658 22.7781 29.4984 22.7752C30.3826 22.6758 31.2641 22.5558 32.1431 22.4151C31.7627 22.8031 31.3884 23.1981 31.0156 23.5939C29.1394 23.9718 27.2587 24.3264 25.3649 24.6274C25.1924 24.6546 25.2216 24.9254 25.3965 24.9006C27.1902 24.6399 28.9932 24.3626 30.7907 24.0483C30.7984 24.0498 30.8061 24.0452 30.8138 24.0444C33.1705 23.6316 35.518 23.1481 37.8285 22.5499C37.8362 22.5956 37.8924 22.636 37.9341 22.598C37.9718 22.5646 38.008 22.5289 38.0457 22.4948C38.7473 22.3109 39.4464 22.1192 40.1405 21.9105C40.2576 21.8755 40.2091 21.6762 40.0874 21.7002C39.5798 21.8026 39.0723 21.9082 38.5655 22.0129C39.1378 21.4837 39.701 20.9452 40.2553 20.3973C40.4479 20.3298 40.6412 20.2662 40.8329 20.1955C40.9169 20.1645 40.8661 20.0411 40.7821 20.0667C40.6919 20.0939 40.6018 20.1187 40.5117 20.1458C43.2403 17.4198 45.7765 14.4959 48.3704 11.6441C48.3866 11.6263 48.3566 11.6014 48.3404 11.6201C45.6194 14.6115 42.7012 17.4183 39.894 20.3282C38.9659 20.599 38.0348 20.853 37.1006 21.0902C37.8269 20.3546 38.5408 19.6073 39.2501 18.8562C39.4765 18.7863 39.7038 18.7188 39.9297 18.6459C40.0283 18.6141 39.9882 18.4418 39.885 18.465C39.771 18.4907 39.6586 18.5178 39.5446 18.5442C41.9999 15.9299 44.3777 13.245 46.7888 10.5881C47.9327 9.32743 50.2794 8.51316 51.7096 7.55714ZM35.3852 22.6828C34.0705 22.9622 32.7551 23.2399 31.4381 23.5076C31.8747 23.115 32.3076 22.718 32.7365 22.3165C33.9311 22.1132 35.1166 21.8672 36.2932 21.5786C35.9874 21.9099 35.6801 22.2404 35.3766 22.5749C35.3691 22.582 35.3633 22.5907 35.3596 22.6004C35.3559 22.6101 35.3544 22.6205 35.3552 22.6308C35.356 22.6412 35.3591 22.6512 35.3643 22.6602C35.3695 22.6691 35.3766 22.6768 35.3852 22.6826V22.6828ZM36.7137 21.4761C37.6887 21.2255 38.6545 20.9407 39.6111 20.6218C39.1482 21.1052 38.6892 21.5918 38.234 22.0814C37.3314 22.2699 36.4293 22.4603 35.5277 22.6525C35.9273 22.2643 36.3208 21.8702 36.7137 21.476L36.7137 21.4761ZM36.6321 21.2099C35.463 21.497 34.2867 21.7503 33.1032 21.9697C33.8072 21.3023 34.5031 20.6272 35.1911 19.9444C36.3626 19.6712 37.5286 19.3732 38.6808 19.0326C37.9937 19.7541 37.3108 20.4799 36.632 21.2098L36.6321 21.2099ZM35.0055 19.6083C34.0613 19.8319 33.1163 20.0537 32.169 20.2656C33.2288 19.332 34.2557 18.3622 35.2496 17.3562C36.1153 17.236 36.9787 17.1023 37.8397 16.9551C36.8908 17.835 35.9461 18.7194 35.0054 19.6082L35.0055 19.6083ZM35.3852 17.2183C36.1284 16.4663 36.8585 15.7001 37.5756 14.9197C39.0897 14.2865 40.5954 13.6412 42.081 12.9588C40.7552 14.2469 39.4 15.5063 38.044 16.765C37.1589 16.924 36.2726 17.0751 35.3852 17.2181L35.3852 17.2183ZM39.0343 18.6623C37.9175 18.9185 36.8021 19.1798 35.6879 19.4461C36.5343 18.5987 37.3761 17.7467 38.2133 16.89C39.2191 16.7115 40.2219 16.5144 41.2185 16.2856C41.2824 16.2708 41.2732 16.1692 41.2062 16.1816C40.2704 16.3586 39.3339 16.5324 38.3966 16.7031C39.6397 15.4374 40.8835 14.1726 42.1527 12.938C42.1565 12.9341 42.1527 12.931 42.152 12.9263C43.6838 12.2225 45.1918 11.4768 46.6574 10.6627C44.1589 13.3685 41.578 15.9975 39.0342 18.6623L39.0343 18.6623ZM2.48823 42.852C4.2596 36.0023 8.88677 30.4463 14.3108 26.1388C20.5584 21.1784 27.8218 17.5859 35.0391 14.3038C38.5865 12.6906 42.217 11.3318 45.8091 9.83947C35.1502 15.5195 22.7421 18.2269 14.4266 27.562C11.4961 30.8522 9.11511 34.6118 6.832 38.373C4.75948 41.7889 3.09364 45.2832 3.07825 49.3641C3.04822 57.6368 8.64346 64.4461 15.4202 68.4641C20.3862 71.409 26.0577 73.113 31.8048 73.4692C34.6958 73.6513 37.598 73.4827 40.4491 72.9672C41.8294 72.7254 43.1919 72.3896 44.5272 71.9622C49.8706 70.2108 54.7304 67.2544 58.5062 62.9748C64.1714 56.5551 65.4547 48.8805 66.9103 40.6994C67.7844 35.7874 69.6991 31.9104 72.9384 28.168C75.4453 25.2721 78.1871 22.4941 79.2638 18.6964C79.4764 17.9469 79.6319 17.1821 79.729 16.4087C79.8418 17.1393 79.9023 17.8771 79.91 18.6164C79.8606 18.6941 79.8337 18.7842 79.8322 18.8764C79.8291 19.3412 79.8299 19.8068 79.8315 20.2732C79.7976 20.6069 79.7568 20.9406 79.7005 21.2742C79.0883 24.9035 77.1105 27.5783 74.8801 30.3757C70.4346 35.9488 70.2175 42.3049 69.0475 49.0762C66.5684 63.4342 54.5546 73.0646 40.7393 75.3911C28.3967 77.4685 14.4389 74.2954 5.63588 64.9317C4.5014 63.7243 3.32538 62.4089 2.59293 60.9028C1.67334 59.0125 1.61253 56.8188 1.52238 54.7547C1.34834 50.7725 1.48542 46.7273 2.48823 42.852ZM1.76501 69.0376C1.75578 68.9964 1.74649 68.9569 1.73803 68.9165C1.81426 69.0833 1.89359 69.2481 1.97601 69.4108C1.90521 69.2866 1.83435 69.1617 1.76501 69.0376ZM35.6054 85.227C34.6773 85.2821 33.749 85.3074 32.8205 85.303C33.566 84.9204 34.3097 84.535 35.0516 84.1467C36.0929 84.0862 37.1365 83.9838 38.1739 83.8448C37.3816 84.3161 36.5619 84.739 35.7192 85.1113C35.6935 85.1217 35.6701 85.1374 35.6505 85.1573C35.631 85.1772 35.6156 85.2008 35.6054 85.2269V85.227ZM31.3656 82.4582C31.066 82.4458 30.7672 82.4311 30.4683 82.4109C29.8021 82.3682 29.1398 82.3046 28.479 82.2262C28.9619 81.995 29.4386 81.7536 29.9085 81.4976C30.939 81.5853 31.9731 81.6319 33.0107 81.6373C32.4677 81.9243 31.9212 82.2006 31.3656 82.4582V82.4582ZM33.6376 81.6326C34.3161 81.6271 34.9939 81.6078 35.6701 81.5666C35.027 81.8731 34.3839 82.1794 33.7408 82.4854C33.2117 82.4947 32.6818 82.4934 32.1512 82.4815C32.6589 82.2215 33.1544 81.9385 33.6376 81.6325V81.6326ZM28.526 80.8496C28.5321 80.8168 28.5359 80.7836 28.5376 80.7503C28.5322 80.4453 28.04 80.37 27.9438 80.6587C27.9331 80.6976 27.9256 80.7373 27.9215 80.7774C27.3207 80.6983 26.7208 80.6114 26.1216 80.5128C26.603 80.2575 27.0774 79.9888 27.5487 79.7104C28.9442 79.9052 30.3521 80.0255 31.76 80.086C31.1962 80.4025 30.6286 80.7148 30.0548 81.0141C29.5434 80.9698 29.0343 80.9104 28.526 80.8495V80.8496ZM27.9276 81.2609C28.0123 81.4114 28.2703 81.4487 28.3866 81.3199C28.6709 81.3556 28.9527 81.3998 29.2384 81.4293C28.754 81.6722 28.2664 81.9104 27.7753 82.1378C26.5392 81.9725 25.3107 81.7591 24.0854 81.5224C24.5523 81.3051 25.0154 81.0801 25.4748 80.8473C26.2825 81.0164 27.1028 81.1476 27.9276 81.2608V81.2609ZM27.0273 82.4722C26.4448 82.729 25.8597 82.9774 25.2675 83.2086C24.1423 83.013 23.0309 82.7685 21.9327 82.4831C22.4425 82.2643 22.9508 82.043 23.4552 81.8142C24.6413 82.064 25.8312 82.2882 27.0273 82.4721V82.4722ZM27.7327 82.577C28.6362 82.7019 29.5425 82.799 30.4545 82.8618C29.7921 83.1442 29.118 83.3998 28.432 83.6285C27.5949 83.5509 26.7654 83.4476 25.9436 83.3188C26.5473 83.0867 27.1451 82.8415 27.7331 82.5769L27.7327 82.577ZM31.2647 82.9107C31.7523 82.9347 32.2406 82.9526 32.7296 82.9588C32.1227 83.2412 31.5119 83.5154 30.8974 83.7813C30.3552 83.7635 29.8135 83.7353 29.2723 83.6967C29.95 83.4654 30.6142 83.2034 31.2647 82.9106V82.9107ZM33.804 82.9588C34.7744 82.9472 35.7433 82.9001 36.7106 82.8175C36.1345 83.1117 35.5618 83.4117 34.9923 83.7177C33.9703 83.7844 32.9468 83.81 31.9233 83.8015C32.5548 83.533 33.1817 83.252 33.804 82.9587V82.9588ZM39.8374 82.8704C39.6433 82.9837 39.4524 83.0969 39.2598 83.211C39.1166 83.2358 38.9741 83.2645 38.8299 83.2879C37.8965 83.4377 36.9584 83.5509 36.0173 83.6363C36.5695 83.3391 37.1175 83.0349 37.6615 82.7237C39.2862 82.54 40.8968 82.2458 42.482 81.843C42.0353 82.1138 41.5866 82.382 41.1358 82.6477C41.0424 82.6384 40.9486 82.66 40.8684 82.7091C40.7882 82.7583 40.7261 82.8323 40.6914 82.9202C40.4626 82.9698 40.237 83.0311 40.0059 83.0769C40.0299 83.0535 40.0443 83.0218 40.0462 82.9882C40.0481 82.9546 40.0374 82.9215 40.0161 82.8954C39.9949 82.8694 39.9648 82.8524 39.9317 82.8477C39.8986 82.843 39.8649 82.8511 39.8374 82.8702V82.8704ZM74.1403 38.2271C73.9616 38.5452 73.806 38.8712 73.6604 39.2001C73.7375 38.9759 73.8106 38.7493 73.8915 38.5258C73.9246 38.4342 73.7921 38.3721 73.7536 38.4638C72.8688 40.5375 72.1678 42.6861 71.6588 44.8843C71.172 47.0136 70.6259 49.392 70.8039 51.5857C70.817 51.7471 71.0466 51.7394 71.0773 51.5911C71.5086 49.4712 71.5617 47.279 72.0022 45.1489C72.2179 44.1107 72.4737 43.0802 72.76 42.0575C72.6151 42.7619 72.5075 43.4737 72.4379 44.1897C71.9565 49.0124 72.3994 53.6311 70.3615 58.1799C68.4399 62.468 65.4286 66.3029 62.6251 70.0385C59.948 73.608 57.0345 77.0727 53.3924 79.6816C49.5269 82.4511 44.9105 83.9262 40.268 84.7053C39.085 84.9048 37.8961 85.0538 36.7013 85.1525C37.5943 84.7469 38.4466 84.256 39.2467 83.6867C39.7427 83.606 40.2355 83.5128 40.727 83.4127C40.7621 83.464 40.8076 83.5072 40.8604 83.5397C40.9132 83.5722 40.9721 83.5932 41.0334 83.6013C41.131 83.6201 41.232 83.6048 41.3198 83.558C41.4076 83.5112 41.4769 83.4356 41.5163 83.3438C41.6149 83.2863 41.7142 83.232 41.8128 83.1769C43.446 82.7958 45.0472 82.2868 46.6017 81.6544C46.6082 81.6787 46.6195 81.7013 46.6349 81.7209C46.6504 81.7406 46.6697 81.7568 46.6916 81.7687C46.7135 81.7805 46.7377 81.7877 46.7624 81.7898C46.7872 81.7919 46.8122 81.7889 46.8358 81.7809C46.956 81.7491 47.0715 81.7165 47.1932 81.6964C47.2919 81.6813 47.3807 81.6276 47.4404 81.547C47.5001 81.4664 47.5259 81.3653 47.5121 81.2656C47.8263 81.1236 48.1383 80.9792 48.4448 80.8255C48.4744 80.8127 48.4978 80.7888 48.5102 80.7588C48.5226 80.7289 48.5229 80.6952 48.5111 80.665C48.4992 80.6349 48.4762 80.6105 48.4469 80.5972C48.4175 80.5838 48.3842 80.5825 48.3539 80.5935C47.9933 80.7246 47.6345 80.8488 47.2749 80.9761C47.1971 80.9511 47.1133 80.9523 47.0363 80.9796C46.9593 81.0069 46.8933 81.0588 46.8482 81.1274C45.7684 81.5047 44.6833 81.8546 43.5927 82.1773C44.0964 81.8979 44.6001 81.6201 45.1015 81.3369C45.1638 81.3058 45.2155 81.2569 45.2503 81.1963C45.2851 81.1357 45.3014 81.0661 45.2971 80.9962C45.5829 80.8969 45.8717 80.8108 46.1543 80.7028C46.2352 80.6726 46.1859 80.5585 46.1058 80.5802C45.8193 80.6594 45.5302 80.7292 45.2424 80.8045C45.123 80.5833 44.8389 80.4258 44.5577 80.5919C44.2041 80.8022 43.8515 81.0171 43.498 81.2313C41.9084 81.5952 40.3072 81.8963 38.6953 82.1089C38.9663 81.9459 39.2406 81.7875 39.5086 81.6185C39.5717 81.5781 39.5132 81.4734 39.4454 81.5028C38.9402 81.7256 38.4403 81.9614 37.9436 82.202C36.9131 82.32 35.8792 82.4027 34.8421 82.4503C35.4336 82.1492 36.0166 81.8327 36.5881 81.4958C36.8276 81.4757 37.0648 81.4431 37.3044 81.419C37.3668 81.5509 37.4938 81.6549 37.7141 81.6549C37.7864 81.6619 37.8594 81.6548 37.9291 81.6339C38.0084 81.6215 38.0818 81.5842 38.1389 81.5274C38.196 81.4705 38.2338 81.397 38.2471 81.3173C40.1217 81.0849 41.9757 80.708 43.7931 80.1898C43.8516 80.1735 43.827 80.0749 43.7668 80.0858C41.8777 80.4405 39.9646 80.7237 38.043 80.9123L38.0399 80.9092C37.9793 80.8684 37.9117 80.8394 37.8404 80.8238C37.7781 80.8048 37.7128 80.7977 37.6479 80.8029C37.6502 80.7864 37.6481 80.7695 37.6421 80.754C37.636 80.7385 37.626 80.7249 37.6131 80.7144C37.6003 80.704 37.5849 80.697 37.5686 80.6943C37.5523 80.6916 37.5356 80.6931 37.52 80.6988C37.2882 80.8059 37.0579 80.9169 36.8261 81.024C36.0067 81.0853 35.1872 81.1295 34.3677 81.1481C34.6558 80.9448 34.9382 80.7317 35.2149 80.5087C35.2249 80.5005 35.2313 80.4888 35.2329 80.476C35.2345 80.4631 35.2312 80.4501 35.2236 80.4397C35.216 80.4293 35.2047 80.4222 35.1921 80.4199C35.1794 80.4175 35.1664 80.4202 35.1556 80.4273C34.7396 80.6764 34.3209 80.918 33.8995 81.152C33.5937 81.156 33.2879 81.1613 32.983 81.1583C32.7874 81.1567 32.5933 81.1474 32.3977 81.142C32.7929 81.0582 32.8459 80.3932 32.3715 80.3195C31.8547 80.2403 31.726 81.0202 32.2105 81.1374C31.6991 81.1187 31.1893 81.0947 30.681 81.059C31.201 80.7556 31.7145 80.4389 32.2174 80.1014C32.9229 80.1255 33.6283 80.1394 34.3308 80.1394C36.9963 80.1387 40.3681 80.3474 42.6987 78.8086C42.7403 78.7806 42.7009 78.7054 42.6555 78.7294C41.4282 79.3906 40.0639 79.4581 38.7023 79.5489C37.1604 79.6528 35.6147 79.711 34.0697 79.704C33.6515 79.7017 33.234 79.6937 32.8174 79.68C32.9999 79.5512 33.184 79.4263 33.3635 79.2921C33.4235 79.2471 33.3581 79.1625 33.2957 79.1997C33.0308 79.3572 32.7635 79.5116 32.4963 79.6661C31.0137 79.6102 29.5373 79.4946 28.0632 79.3472C28.0555 79.2967 28.0101 79.2478 27.9554 79.2758L27.8591 79.3262C26.7293 79.2114 25.6002 79.0825 24.4684 78.9538C24.4448 78.951 24.421 78.9575 24.4021 78.972C24.3832 78.9865 24.3706 79.0078 24.367 79.0314C24.3634 79.0551 24.3691 79.0792 24.3828 79.0988C24.3966 79.1183 24.4173 79.1317 24.4406 79.1361C25.3548 79.3534 26.2814 79.5241 27.2132 79.663C26.7134 79.923 26.2131 80.1827 25.7122 80.4422C24.4384 80.2241 23.1674 79.9719 21.8945 79.698C21.7898 79.6762 21.7359 79.8493 21.8398 79.8826C22.9075 80.231 23.992 80.5248 25.0891 80.7629C24.6355 80.9965 24.1798 81.2262 23.7221 81.452C23.4533 81.4 23.1852 81.3456 22.9172 81.2913C20.1246 80.7233 17.302 80.2073 14.5679 79.3948C14.5016 79.3746 14.4539 79.4724 14.5224 79.4956C17.1132 80.388 19.7742 81.0072 22.4459 81.597C22.6722 81.6467 22.8995 81.6948 23.1259 81.7437C22.6469 81.9757 22.1647 82.1992 21.6796 82.4181C17.6786 81.3496 13.8554 79.7037 10.1871 77.6248C10.1247 77.5891 10.0616 77.6915 10.1209 77.7334C13.3887 80.021 17.1256 81.6576 21.0103 82.7153C20.8478 82.7858 20.6876 82.8634 20.5235 82.9318C20.5074 82.9388 20.4946 82.9519 20.4879 82.9682C20.4812 82.9846 20.4811 83.0029 20.4877 83.0193C20.4942 83.0357 20.5068 83.0489 20.5229 83.0561C20.5389 83.0632 20.5571 83.0638 20.5736 83.0576C20.7955 82.9652 21.0174 82.8721 21.2393 82.7781C22.3121 83.0637 23.3965 83.3043 24.4855 83.5029C24.3746 83.5433 24.2652 83.5875 24.1543 83.6271C23.9618 83.6962 24.0781 83.9887 24.2714 83.9243C24.5617 83.8273 24.849 83.7233 25.1363 83.6201C25.898 83.7474 26.6618 83.8513 27.4245 83.9366C27.3714 83.9521 27.3182 83.97 27.2643 83.9855C27.0779 84.0367 27.1912 84.3145 27.3744 84.2665C27.6694 84.1896 27.9621 84.1066 28.2532 84.0212C28.4642 84.0399 28.6744 84.0624 28.8848 84.0794C29.4085 84.1205 29.9376 84.1501 30.4682 84.1733C30.4747 84.2001 30.487 84.2251 30.5041 84.2466C30.5211 84.2681 30.5427 84.2856 30.5672 84.2979C30.5917 84.3101 30.6185 84.3169 30.6459 84.3176C30.6732 84.3184 30.7004 84.3131 30.7255 84.3022C30.8133 84.2665 30.901 84.2292 30.9881 84.1928C32.0239 84.2269 33.0698 84.2269 34.1195 84.1881C33.6434 84.4489 33.1675 84.7107 32.6917 84.9733C32.6634 84.9896 32.6396 85.0127 32.6226 85.0407C32.6055 85.0686 32.5958 85.1005 32.5943 85.1333C32.5927 85.166 32.5994 85.1987 32.6138 85.2281C32.6281 85.2576 32.6496 85.2829 32.6763 85.3017C26.0375 85.2536 19.4179 83.7265 13.4406 80.7785C9.28111 78.7273 4.52684 75.8382 2.52775 71.4074C3.43653 72.7653 4.54716 73.9938 5.71236 74.8349C5.84099 74.9288 6.03043 74.7713 5.9226 74.6331C5.00841 73.4715 3.9656 72.4301 3.10453 71.2203C3.09531 71.2071 3.08685 71.1932 3.07755 71.18C3.50628 71.752 3.99538 72.2755 4.53627 72.7412C4.5569 72.7571 4.58248 72.765 4.60838 72.7635C4.63429 72.7621 4.65883 72.7514 4.6776 72.7333C4.69636 72.7153 4.7081 72.691 4.71072 72.665C4.71334 72.639 4.70666 72.6129 4.69187 72.5914C4.17355 71.9334 3.65752 71.2598 3.1677 70.5661C3.79225 71.3126 4.4837 71.9997 5.23329 72.6185C5.31726 72.6876 5.45358 72.5673 5.37502 72.4835C3.99029 71.0145 2.6717 69.5247 1.55116 67.8548C1.3586 66.5046 1.30084 65.1225 1.25154 63.7623C2.0579 66.6 3.56668 69.5185 5.96421 71.0852C6.08285 71.1621 6.25454 71.031 6.15524 70.9014C5.12012 69.5566 3.95409 68.3926 3.07846 66.9182C2.27263 65.5664 1.65068 64.1116 1.22928 62.5929C2.62712 65.4051 4.5102 68.0303 7.02553 69.9143C7.12025 69.9857 7.27349 69.8584 7.18418 69.763C4.90142 67.3287 2.77731 64.8464 1.16992 61.9162C1.12832 61.1162 1.08313 60.3172 1.03436 59.5192C1.24962 60.3322 1.56229 61.1158 1.96547 61.8527C4.93325 67.1619 10.7808 71.5913 16.2035 73.9657C22.1554 76.5731 28.527 77.8697 34.9987 77.5609C48.9002 76.899 62.5161 70.4487 68.3023 57.2457C69.1294 55.357 69.1205 52.4237 69.5661 50.4302C69.4757 51.8084 69.4538 53.1904 69.5007 54.5709C69.5046 54.6717 69.6616 54.6717 69.6755 54.5739C70.2046 50.6909 70.1476 46.7869 71.1296 42.9621C72.0414 39.4167 73.6588 36.1614 76.1487 33.4742C76.2095 33.409 76.1071 33.2981 76.0401 33.3593C73.9083 35.3047 72.4534 37.8377 71.4815 40.5427C72.2732 37.1672 73.4362 33.9282 75.7205 31.0625C77.3378 29.0348 78.8112 27.0631 79.7777 24.7871C79.7115 26.1684 79.5675 27.5341 79.2785 28.8664C78.6573 29.9445 77.8169 30.878 76.8124 31.6056C76.7138 31.6786 76.8047 31.8625 76.9202 31.8019C77.7203 31.3774 78.4207 30.7849 78.9742 30.0645C78.5946 31.3892 78.0206 32.6493 77.2713 33.8031C76.2785 35.3169 75.0287 36.6418 74.1399 38.2271L74.1403 38.2271Z" fill="#DE8E15"/>
<path d="M68.9197 58.3042C66.7747 61.762 64.6753 65.2068 62.2662 68.475C62.4811 67.8978 62.6605 67.2948 62.8246 66.6918C63.8427 65.506 64.7507 64.2285 65.5371 62.8755C65.5756 62.8095 65.4655 62.7413 65.4231 62.8048C64.6953 63.9041 63.8946 64.9525 63.0263 65.9429C63.1295 65.5596 63.232 65.1809 63.3406 64.8185L63.3375 64.8178C63.1357 65.3105 62.9016 65.8203 62.6682 66.338C62.2099 66.8439 61.7366 67.3325 61.248 67.8038C61.463 67.2707 61.6763 66.7368 61.8981 66.2061C61.9636 66.0477 61.7233 65.9391 61.6554 66.0974C61.3304 66.8564 60.9946 67.6114 60.6588 68.3656C58.9459 69.9171 57.0842 71.2932 55.1013 72.4737C55.0181 72.5234 55.0959 72.6662 55.1836 72.6242C57.0174 71.7506 58.7232 70.6269 60.2529 69.2847C60.1851 69.4407 60.115 69.5951 60.0472 69.7503C59.6352 70.7016 59.1053 71.6724 58.8434 72.6859C56.999 74.6716 54.891 76.392 52.317 77.3138C52.2508 77.3371 52.2916 77.4326 52.3555 77.4139C54.9425 76.6635 57.0312 75.0782 58.8511 73.1848C58.8625 73.1848 58.8737 73.1821 58.8838 73.177C58.894 73.1718 58.9028 73.1645 58.9097 73.1553C58.932 73.1251 58.9497 73.0925 58.9705 73.0614C59.8076 72.1784 60.5886 71.231 61.335 70.2725C62.3555 68.9596 63.3597 67.6124 64.3255 66.2335C64.1248 66.6696 63.9605 67.1218 63.8342 67.5853C63.8018 67.7149 63.9982 67.7995 64.0714 67.6916C64.6382 66.8582 64.9971 65.8595 65.4114 64.9454C65.4311 64.9062 65.4376 64.8616 65.43 64.8183C65.4224 64.7751 65.401 64.7355 65.3691 64.7056C66.7246 62.6663 67.9763 60.5579 69.0397 58.379C69.0744 58.308 68.9635 58.2351 68.9197 58.3042ZM61.5576 69.4196C61.5137 69.4763 61.4714 69.536 61.4275 69.5927C60.8606 70.3291 60.273 71.0632 59.6576 71.7763C59.9256 71.1578 60.1499 70.513 60.3985 69.9093C60.5603 69.5143 60.7182 69.1186 60.877 68.7228C61.3414 68.2906 61.7883 67.8413 62.2178 67.3749C61.9352 68.0343 61.7142 68.7187 61.5576 69.4194V69.4196Z" fill="#DE8E15"/>
<path d="M10.9115 74.1514C10.8925 74.1492 10.8734 74.1544 10.8581 74.1661C10.8429 74.1778 10.8327 74.1949 10.8298 74.2139C10.8268 74.2329 10.8312 74.2524 10.8421 74.2682C10.8531 74.284 10.8696 74.295 10.8884 74.2988C10.9074 74.301 10.9265 74.2957 10.9417 74.284C10.9569 74.2724 10.9671 74.2553 10.9701 74.2362C10.973 74.2172 10.9686 74.1977 10.9577 74.1819C10.9468 74.1661 10.9302 74.1552 10.9115 74.1514Z" fill="#DE8E15"/>
<path d="M10.0912 76.5972C10.0969 76.598 10.1028 76.5966 10.1074 76.5932C10.1121 76.5898 10.1152 76.5847 10.1161 76.5789C10.117 76.5732 10.1157 76.5673 10.1123 76.5626C10.1089 76.5579 10.1039 76.5547 10.0982 76.5537C10.0925 76.5528 10.0867 76.5543 10.082 76.5577C10.0773 76.5611 10.0742 76.5662 10.0733 76.572C10.0724 76.5777 10.0737 76.5836 10.0771 76.5883C10.0805 76.593 10.0855 76.5962 10.0912 76.5972Z" fill="#DE8E15"/>
<path d="M37.3813 77.5468C34.5371 77.966 31.7806 77.8517 28.9464 77.4257C28.9412 77.425 28.936 77.4263 28.9316 77.4291C28.9272 77.432 28.924 77.4363 28.9225 77.4414C28.9211 77.4464 28.9214 77.4518 28.9235 77.4566C28.9256 77.4615 28.9294 77.4654 28.9341 77.4676C31.6453 78.412 34.6339 78.4353 37.4043 77.7471C37.5253 77.7175 37.5122 77.5267 37.3813 77.5468Z" fill="#DE8E15"/>
<path d="M52.656 20.2017C52.5497 20.2824 52.646 20.4849 52.773 20.4159C53.6264 19.9519 54.5074 19.4242 55.2237 18.7631C55.2784 18.7119 55.2353 18.6047 55.1559 18.6397C54.2648 19.023 53.4238 19.6112 52.656 20.2017Z" fill="#DE8E15"/>
<path d="M59.767 14.4774C60.4995 14.1002 61.2273 13.703 61.8842 13.2009C61.9007 13.1878 61.912 13.1693 61.9161 13.1485C61.9202 13.1278 61.9169 13.1063 61.9067 13.0878C61.8965 13.0693 61.8801 13.0551 61.8605 13.0477C61.8409 13.0403 61.8193 13.0401 61.7995 13.0472C60.9685 13.4019 60.1814 13.8577 59.3842 14.2826C58.7658 14.6123 58.0256 14.8974 57.5173 15.3915L57.5204 15.3969C58.3037 15.3162 59.0755 14.8328 59.767 14.4774Z" fill="#DE8E15"/>
<path d="M58.6587 15.5279C58.6577 15.5293 58.6571 15.531 58.657 15.5328C58.6569 15.5345 58.6573 15.5363 58.6583 15.5378C58.6592 15.5393 58.6605 15.5405 58.6621 15.5412C58.6637 15.5419 58.6655 15.5422 58.6672 15.5419C59.5413 15.4712 60.4354 14.89 61.2211 14.5152C62.0616 14.1206 62.8785 13.677 63.6679 13.1867C63.7149 13.1573 63.6718 13.0889 63.6232 13.1053C62.6504 13.4512 61.699 13.8557 60.7744 14.3166C60.0658 14.6612 59.2086 14.9498 58.6587 15.5279Z" fill="#DE8E15"/>
<path d="M68.2988 15.2299C68.5183 15.3254 68.6862 15.3836 68.9298 15.3161C69.13 15.2602 69.3294 15.1205 69.3918 14.9141C69.4196 14.8202 69.3433 14.7045 69.2363 14.7512C69.0029 14.8513 68.6894 15.0499 68.416 14.9669C68.2449 14.9149 68.124 15.1546 68.2988 15.2299Z" fill="#DE8E15"/>
<path d="M26.3056 49.4353C26.301 49.4361 26.3018 49.4431 26.3063 49.4423C27.3401 49.3024 28.3187 48.8893 29.1428 48.2451C29.1466 48.242 29.1421 48.2365 29.1382 48.2388C28.316 48.8837 27.3384 49.2966 26.3056 49.4353Z" fill="#DE8E15"/>
<path d="M50.0604 52.7802C46.9874 54.5805 44.0169 56.5275 41.0387 58.4791C41.0348 58.4814 41.0387 58.4876 41.0425 58.4853C44.0993 56.6555 47.1484 54.8327 50.1112 52.8501C50.159 52.8179 50.1082 52.7523 50.0604 52.7802Z" fill="#DE8E15"/>
<path d="M58.2913 57.1231C56.5038 58.097 54.7254 59.0282 52.8085 59.7226C52.5774 59.8065 52.7168 60.1525 52.9478 60.078C54.8902 59.4479 56.7786 58.5858 58.4037 57.328C58.5039 57.2502 58.4122 57.0572 58.2913 57.1231Z" fill="#DE8E15"/>
<path d="M46.6741 38.8291C46.6848 38.8213 46.6726 38.8043 46.6617 38.812C46.2428 39.1232 45.8241 39.4342 45.4056 39.7448C45.3979 39.7503 45.4064 39.7611 45.4141 39.7565C45.8338 39.4467 46.2538 39.1375 46.6741 38.8291Z" fill="#DE8E15"/>
<path d="M44.7995 42.6782C46.8636 41.5305 48.7605 40.0779 50.8677 39.0001C50.8777 38.9946 50.8715 38.9791 50.8615 38.9838C48.735 40.0003 46.5255 40.9609 44.704 42.5036C44.6224 42.5719 44.694 42.7372 44.7995 42.6782Z" fill="#DE8E15"/>
<path d="M52.7044 44.7215C52.6931 44.7299 52.6855 44.7426 52.6835 44.7566C52.6814 44.7707 52.6849 44.785 52.6933 44.7964C52.7016 44.8078 52.7142 44.8154 52.7281 44.8175C52.7421 44.8196 52.7563 44.8161 52.7676 44.8077C55.1775 43.2604 57.4071 41.4243 59.7322 39.7528C59.7461 39.7427 59.7307 39.7202 59.7153 39.7303C57.3901 41.4018 54.9418 42.9289 52.7044 44.7215Z" fill="#DE8E15"/>
<path d="M55.732 44.8216C52.5567 45.0458 49.3913 45.4261 46.2282 45.7729C46.0502 45.7923 46.0819 46.0701 46.2613 46.0524C49.3142 45.7544 52.3765 45.4859 55.4186 45.0801C55.1891 45.2679 54.9573 45.4533 54.7317 45.646C54.7074 45.6652 54.6915 45.6932 54.6873 45.7241C54.6831 45.7549 54.691 45.7862 54.7093 45.8113C54.7276 45.8364 54.7549 45.8533 54.7853 45.8585C54.8158 45.8637 54.8471 45.8568 54.8726 45.8392C55.3401 45.559 55.8006 45.265 56.2589 44.9659C56.4915 44.9325 56.7249 44.9054 56.9574 44.8705C56.9746 44.8678 56.9901 44.8586 57.0007 44.8447C57.0113 44.8308 57.016 44.8132 57.0141 44.7958C57.0121 44.7784 57.0034 44.7625 56.99 44.7514C56.9766 44.7402 56.9594 44.7348 56.942 44.7362C56.8157 44.7424 56.6887 44.7556 56.5631 44.7626C59.0861 43.0872 61.4922 41.176 63.919 39.3897C64.0899 39.2639 63.8982 39.0025 63.7248 39.1235C61.0678 40.9913 58.2782 42.7838 55.732 44.8216Z" fill="#DE8E15"/>
<path d="M62.6796 42.2024C59.8284 44.2643 56.9513 46.4821 54.4026 48.9171C54.3133 49.0024 54.4111 49.1521 54.5189 49.0761C57.3993 47.0485 60.1319 44.6476 62.7104 42.2451C62.7343 42.2226 62.7073 42.1831 62.6796 42.2024Z" fill="#DE8E15"/>
<path d="M61.2903 46.1459C58.473 48.3924 55.5117 50.4324 52.5558 52.4865C52.4903 52.5323 52.5612 52.6223 52.6274 52.5843C55.7559 50.7933 58.6586 48.6494 61.4659 46.3874C61.6146 46.267 61.4405 46.0265 61.2903 46.1459Z" fill="#DE8E15"/>
<path d="M59.8125 49.9638C58.2121 51.1976 56.45 52.3515 54.9951 53.7591C54.9081 53.8437 55.0429 53.9578 55.1322 53.9042C56.8519 52.8659 58.4139 51.4552 60.0058 50.2299C60.1735 50.1014 59.9802 49.8342 59.8125 49.9638Z" fill="#DE8E15"/>
<path d="M22.3954 42.4361C20.4122 44.2037 18.2573 45.8455 16.3835 47.7283L16.3882 47.7338C18.6794 46.4208 20.6857 44.4475 22.4687 42.513C22.5094 42.4686 22.4416 42.395 22.3954 42.4361Z" fill="#DE8E15"/>
<path d="M22.4132 43.3133C21.2811 44.4113 20.276 45.618 19.0876 46.6598C19.0445 46.697 19.0938 46.7677 19.1407 46.732C20.3969 45.7748 21.67 44.7594 22.5919 43.4596C22.6093 43.4356 22.6168 43.4058 22.613 43.3763C22.6092 43.3468 22.5943 43.3199 22.5714 43.3012C22.5485 43.2824 22.5193 43.2732 22.4899 43.2755C22.4605 43.2777 22.4331 43.2913 22.4132 43.3133Z" fill="#DE8E15"/>
<path d="M13.9351 33.2479C11.3867 35.9056 9.03226 38.7697 6.65166 41.5796C6.55618 41.6929 6.73099 41.8326 6.82883 41.7239C9.29104 38.9871 11.8103 36.2696 14.1015 33.3837C14.1885 33.2741 14.0291 33.1501 13.9351 33.2479Z" fill="#DE8E15"/>
<path d="M40.9918 22.5572C40.9386 22.6139 41.0242 22.7 41.0842 22.655C44.1118 20.3993 46.6156 17.1986 48.9468 14.2558C48.9545 14.2458 48.9391 14.2325 48.9307 14.2426C47.7384 15.7465 46.4492 17.1743 45.1206 18.5571C43.792 19.9399 42.3088 21.1701 40.9918 22.5572Z" fill="#DE8E15"/>
<path d="M44.7169 21.5691C44.7033 21.5876 44.6966 21.6103 44.6979 21.6333C44.6993 21.6563 44.7087 21.6781 44.7245 21.6948C44.7402 21.7115 44.7613 21.722 44.784 21.7246C44.8067 21.7272 44.8296 21.7216 44.8486 21.7088C47.3172 19.9706 49.2934 17.3175 51.2349 15.0346C51.2465 15.0214 51.2257 15.0043 51.2134 15.0168C50.1859 16.1614 49.0808 17.2454 47.9926 18.3318C46.916 19.4079 45.693 20.3988 44.7169 21.5691Z" fill="#DE8E15"/>
<path d="M49.3605 19.1263C48.6827 19.7114 47.9926 20.2849 47.3526 20.9119C47.3003 20.9638 47.3827 21.0469 47.4404 21.005C48.1536 20.4773 48.8229 19.8907 49.5006 19.3196C49.6185 19.2202 49.476 19.0254 49.3605 19.1263Z" fill="#DE8E15"/>
<path d="M16.0984 58.7782C14.4302 60.3007 12.7723 61.8335 11.1247 63.3767C11.0484 63.4481 11.144 63.5808 11.2202 63.5086C12.8722 61.9582 14.5156 60.3997 16.1503 58.8333C16.1809 58.803 16.13 58.7495 16.0984 58.7782Z" fill="#DE8E15"/>
<path d="M56.8888 8.22911C59.0429 6.49326 61.1031 4.58589 63.1948 2.77166C63.2068 2.76216 63.2146 2.74838 63.2167 2.73319C63.2187 2.718 63.2149 2.7026 63.2059 2.69024C63.1969 2.67787 63.1835 2.6695 63.1685 2.66688C63.1535 2.66427 63.1381 2.66762 63.1255 2.67622C60.8597 4.20415 58.5623 6.01839 56.7301 8.06234C56.6431 8.16001 56.7856 8.31211 56.8888 8.22911Z" fill="#DE8E15"/>
<path d="M57.8291 8.69077C57.8015 8.71284 57.7833 8.74486 57.7786 8.78011C57.7738 8.81535 57.7828 8.85109 57.8036 8.8798C57.8245 8.90852 57.8555 8.92799 57.8903 8.93413C57.9251 8.94027 57.9609 8.9326 57.9902 8.91272C59.7422 7.89927 61.3481 6.59644 62.9931 5.41693C63.1418 5.30982 62.9762 5.08479 62.8253 5.18721C61.1547 6.32789 59.3826 7.38947 57.8291 8.69077Z" fill="#DE8E15"/>
<path d="M28.2601 61.0798C27.2119 61.5725 26.2331 62.2221 25.2427 62.8226C25.0624 62.932 25.2573 63.1974 25.4368 63.0881C26.418 62.496 27.4354 61.9365 28.3504 61.2428C28.4318 61.1799 28.3585 61.0332 28.2601 61.0798Z" fill="#DE8E15"/>
<path d="M29.5533 47.4776C30.8949 46.4843 32.2299 45.4833 33.5505 44.4614C33.5571 44.456 33.5615 44.4483 33.5625 44.4398C33.5636 44.4312 33.5614 44.4226 33.5563 44.4158C33.5512 44.4089 33.5436 44.4043 33.5352 44.403C33.5268 44.4017 33.5182 44.4037 33.5112 44.4086C32.1473 45.3708 30.7995 46.3532 29.4555 47.3434C29.4383 47.3566 29.427 47.3761 29.4239 47.3977C29.4209 47.4193 29.4263 47.4412 29.4391 47.4588C29.4519 47.4764 29.4711 47.4882 29.4924 47.4917C29.5138 47.4952 29.5356 47.4901 29.5533 47.4776Z" fill="#DE8E15"/>
<path d="M26.3287 48.3646C28.6053 46.7024 30.8293 44.9735 33.0006 43.1779C33.0107 43.1697 33.0173 43.158 33.019 43.1451C33.0206 43.1322 33.0173 43.1192 33.0096 43.1087C33.0019 43.0983 32.9905 43.0912 32.9778 43.0891C32.9651 43.0869 32.952 43.0898 32.9413 43.0972C30.6401 44.7237 28.3902 46.4169 26.1916 48.1768C26.1681 48.1956 26.1527 48.2228 26.1487 48.2527C26.1447 48.2827 26.1524 48.313 26.1702 48.3374C26.188 48.3617 26.2144 48.3781 26.244 48.3832C26.2736 48.3883 26.3039 48.3816 26.3287 48.3646Z" fill="#DE8E15"/>
<path d="M28.476 44.4007C29.1368 43.9801 29.8022 43.5689 30.4407 43.1152C30.5161 43.0617 30.4461 42.9236 30.3613 42.9701C29.669 43.3544 29.0023 43.7805 28.3288 44.1993C28.1933 44.2836 28.3412 44.4861 28.476 44.4007Z" fill="#DE8E15"/>
<path d="M42.6738 44.5466C42.6661 44.5466 42.6653 44.5598 42.6738 44.5598C45.6798 44.7934 48.7612 44.5645 51.7132 43.9616C51.7301 43.9579 51.7449 43.948 51.755 43.9339C51.765 43.9198 51.7694 43.9024 51.7674 43.8852C51.7654 43.8679 51.757 43.852 51.744 43.8406C51.7311 43.8292 51.7143 43.8231 51.6971 43.8235C51.2435 43.8724 50.7906 43.9143 50.338 43.9578C52.9011 42.4143 55.3918 40.7335 57.8217 38.9899C57.8333 38.9822 57.821 38.9667 57.8101 38.9729C55.1891 40.5443 52.6022 42.197 50.1185 43.9795C47.6391 44.2172 45.1637 44.3938 42.6738 44.5466Z" fill="#DE8E15"/>
<path d="M41.4146 44.2068C43.3763 44.0686 45.3378 43.943 47.2956 43.7691C47.3027 43.772 47.3103 43.7733 47.3179 43.7727C47.3255 43.7722 47.3329 43.7699 47.3395 43.7661L47.341 43.7653C48.229 43.6861 49.1161 43.6 50.002 43.4928C50.0209 43.4898 50.0379 43.4794 50.0494 43.464C50.061 43.4486 50.0661 43.4293 50.0638 43.4101C50.0615 43.391 50.052 43.3734 50.0371 43.3612C50.0223 43.349 50.0033 43.3431 49.9842 43.3446C49.2965 43.3664 48.6079 43.3998 47.9209 43.4393C50.1814 42.1566 52.3178 40.6256 54.4712 39.1783C54.473 39.1769 54.4741 39.1749 54.4745 39.1727C54.4748 39.1704 54.4743 39.1681 54.473 39.1663C54.4718 39.1644 54.4698 39.1631 54.4676 39.1626C54.4654 39.1621 54.4631 39.1624 54.4612 39.1636C52.1452 40.5503 49.7539 41.8788 47.5597 43.4618C45.4988 43.5876 43.4424 43.7722 41.3838 43.9413C41.2136 43.9553 41.2451 44.2192 41.4146 44.2068Z" fill="#DE8E15"/>
<path d="M18.1002 57.4979C16.0038 58.2315 13.9028 58.8962 11.741 59.3898C12.0529 59.073 12.3617 58.752 12.6675 58.4268C14.3397 58.1411 15.9826 57.7024 17.5758 57.1161C17.6883 57.0742 17.6189 56.9143 17.508 56.9454C16.0478 57.3506 14.5706 57.702 13.0811 57.9829C13.7735 57.2396 14.4566 56.4884 15.1405 55.7542C15.6735 55.5548 16.2018 55.342 16.7232 55.1115C16.742 55.1032 16.7568 55.0879 16.7646 55.0688C16.7724 55.0497 16.7727 55.0283 16.7652 55.0091C16.7578 54.9899 16.7432 54.9743 16.7246 54.9656C16.7061 54.9569 16.6849 54.9558 16.6655 54.9625C16.2889 55.0858 15.9128 55.209 15.5372 55.3318C15.6465 55.2154 15.7566 55.0975 15.8661 54.9825C15.8992 54.9484 15.843 54.9049 15.8098 54.9367C15.6503 55.0919 15.4871 55.2463 15.3244 55.4007C14.4503 55.6863 13.5736 55.9636 12.6943 56.2326C13.0932 55.7942 13.4885 55.3526 13.88 54.908C13.9201 54.8622 13.8492 54.8071 13.8076 54.849C13.3216 55.3381 12.8409 55.8316 12.3653 56.3296C11.6121 56.5554 10.855 56.7688 10.0925 56.9635C10.8704 56.1418 11.6852 55.3573 12.5301 54.596C13.0115 54.4874 13.4906 54.3757 13.9681 54.2531C14.0397 54.2344 14.0089 54.1142 13.9365 54.1258C13.4858 54.1987 13.037 54.2817 12.5887 54.3679C12.5765 54.3623 12.5629 54.3604 12.5496 54.3621C12.5362 54.3639 12.5237 54.3694 12.5132 54.3779L12.5048 54.3841C11.7069 54.5385 10.9106 54.7069 10.1149 54.8753C11.0199 53.9434 11.9002 52.9874 12.762 52.0384C12.8074 51.9879 12.7296 51.9033 12.6796 51.9507C11.6168 52.9424 10.5456 53.9558 9.5112 55.0026C9.45885 55.0143 9.40566 55.0251 9.35331 55.0368C9.33316 55.0415 9.31453 55.0513 9.29917 55.0653C9.28382 55.0792 9.27224 55.0969 9.26554 55.1166C9.25884 55.1363 9.25723 55.1574 9.26087 55.178C9.26451 55.1985 9.27327 55.2177 9.28633 55.2339C8.38677 56.1542 7.51495 57.1001 6.7063 58.0843C6.70242 58.089 6.70859 58.096 6.71324 58.0921C7.79301 57.1795 8.82736 56.1918 9.82933 55.1713C10.5933 55.0122 11.3573 54.8539 12.119 54.6871C10.6658 55.8451 9.40573 57.2175 8.27548 58.6968C8.18458 58.8155 8.36174 58.9614 8.45493 58.8435C8.86619 58.3189 9.3029 57.8215 9.74959 57.3334C10.4835 57.1627 11.2139 56.9775 11.9408 56.7778C10.9064 57.8673 9.88592 58.9699 8.86474 60.0734C8.78923 60.1556 8.92326 60.2627 8.99954 60.1828C10.0978 59.0219 11.1968 57.8618 12.2773 56.6855C13.1415 56.4409 13.997 56.1694 14.8412 55.8637C14.0549 56.6055 13.2516 57.3459 12.4621 58.1017C11.9213 58.1956 11.3785 58.2802 10.834 58.3516C10.6168 58.3803 10.6553 58.7202 10.8741 58.693C11.2576 58.6464 11.6388 58.5914 12.0186 58.5323C10.9503 59.5745 9.92059 60.6492 9.02179 61.8054C9.0064 61.8256 9.03178 61.8543 9.05182 61.8379C9.86177 61.1875 10.6354 60.4925 11.3692 59.756C13.6859 59.25 15.9804 58.5944 18.1577 57.643C18.1768 57.6353 18.1921 57.6203 18.2002 57.6013C18.2083 57.5823 18.2086 57.5607 18.201 57.5415C18.1933 57.5223 18.1784 57.5069 18.1595 57.4987C18.1406 57.4905 18.1193 57.4902 18.1002 57.4979Z" fill="#DE8E15"/>
<path d="M17.6944 36.9817C15.1536 37.5808 12.6552 38.3708 10.1514 39.1087C9.94655 39.1692 10.0698 39.4765 10.2731 39.4191C12.7707 38.706 15.2907 38.0402 17.7468 37.1897C17.8585 37.1508 17.8138 36.9538 17.6944 36.9817Z" fill="#DE8E15"/>
<path d="M36.7229 24.8274C34.1875 25.3885 31.6645 26.1124 29.126 26.713C31.6791 26.1807 34.2414 25.695 36.7591 24.971C36.8384 24.9477 36.8053 24.8088 36.7229 24.8274Z" fill="#DE8E15"/>
<path d="M25.9074 27.4317C26.2416 27.3494 26.5766 27.2726 26.9117 27.1958C26.5759 27.2625 26.2391 27.3293 25.9019 27.3875C25.8742 27.3929 25.88 27.4387 25.9074 27.4317Z" fill="#DE8E15"/>
<path d="M36.8753 24.0335C33.7916 24.6419 30.7179 25.2961 27.6253 25.8595C27.4843 25.8851 27.509 26.1094 27.6515 26.0837C30.7476 25.5318 33.839 24.9368 36.8904 24.1647C36.97 24.1446 36.96 24.0165 36.8753 24.0335Z" fill="#DE8E15"/>
<path d="M24.5448 29.8371C22.4769 30.1575 20.4244 30.5735 18.3688 30.9646C18.2017 30.9964 18.231 31.2626 18.3996 31.2308C20.4575 30.8389 22.5216 30.4711 24.5648 30.0094C24.6703 29.9853 24.6572 29.819 24.5448 29.8371Z" fill="#DE8E15"/>
<path d="M37.6802 60.7212C34.5156 62.043 31.285 63.1984 28.0015 64.1828C27.7889 64.2457 27.916 64.5692 28.1279 64.5064C31.4249 63.5248 34.6188 62.3166 37.7134 60.8058C37.7641 60.7801 37.7341 60.6987 37.6802 60.7212Z" fill="#DE8E15"/>
<path d="M37.6385 62.5294C35.3415 63.3833 32.9375 63.91 30.496 64.0943C30.2595 64.1106 30.3018 64.4815 30.5383 64.4637C33.0399 64.2713 35.3966 63.683 37.6763 62.6263C37.6884 62.6208 37.6979 62.6108 37.7029 62.5984C37.708 62.586 37.708 62.5721 37.7032 62.5597C37.6983 62.5472 37.6889 62.5371 37.6769 62.5315C37.6648 62.5258 37.6511 62.5251 37.6385 62.5294Z" fill="#DE8E15"/>
<path d="M37.546 63.5327C35.8208 63.9773 34.1026 64.445 32.3913 64.9357C32.2542 64.9745 32.3366 65.1809 32.4722 65.1429C34.182 64.6579 35.885 64.1512 37.5815 63.6227C37.6423 63.6049 37.6053 63.5179 37.546 63.5327Z" fill="#DE8E15"/>
<path d="M15.2398 61.807C15.1543 61.8202 15.1697 61.9551 15.2552 61.9412C16.471 61.7538 17.6507 61.3782 18.7525 60.8277C18.7949 60.8067 18.7703 60.7368 18.7248 60.757C17.6129 61.2569 16.4415 61.6098 15.2398 61.807Z" fill="#DE8E15"/>
<path d="M19.0912 69.1493C20.0947 69.133 21.0652 68.9203 21.9316 68.3957C22.0241 68.3399 21.9371 68.2102 21.8454 68.239C20.9297 68.5277 20.0124 68.7542 19.0496 68.7939C18.8201 68.8031 18.8656 69.1523 19.0912 69.1493Z" fill="#DE8E15"/>
<path d="M20.8068 69.6815C22.1631 69.5737 23.4577 69.299 24.7184 68.7784C24.8278 68.7334 24.7616 68.5813 24.6522 68.6107C23.3797 68.9626 22.0782 69.1976 20.7637 69.3129C20.5269 69.3315 20.5693 69.7009 20.8068 69.6815Z" fill="#DE8E15"/>
<path d="M17.0881 72.0197C17.1304 72.0259 17.1374 71.9646 17.0973 71.9545C12.846 70.7859 9.84009 67.266 6.79403 64.287C6.72628 64.2211 6.63843 64.3343 6.70236 64.4004C9.72069 67.4709 12.5687 71.3431 17.0881 72.0197Z" fill="#DE8E15"/>
<path d="M44.8379 72.9525C49.4527 71.7055 54.3487 70.0077 58.0933 66.9208C62.0734 63.6415 64.0105 58.7496 65.416 53.9114C65.4353 53.8439 65.322 53.8113 65.2974 53.8765C63.4197 58.731 61.7523 63.6748 57.5105 66.9922C53.7374 69.9425 49.1757 71.1755 44.7342 72.6871C44.5576 72.7468 44.6655 72.999 44.8379 72.9525Z" fill="#DE8E15"/>
<path d="M67.0951 49.628C67.481 47.7773 67.5433 45.8497 67.8899 43.9843C68.2612 41.9846 68.7833 40.0213 69.3825 38.0798C69.408 37.9968 69.2886 37.9378 69.2562 38.0232C68.5658 39.8806 68.0108 41.7863 67.5957 43.7251C67.1852 45.617 66.7269 47.6819 66.8416 49.6233C66.8507 49.7739 67.0666 49.7646 67.0951 49.628Z" fill="#DE8E15"/>
<path d="M57.0745 29.5375C56.7017 29.9907 56.3287 30.4441 55.9555 30.8978C54.7779 31.2501 53.5952 31.5846 52.4073 31.9011C52.7223 31.4705 53.028 31.0305 53.3639 30.6184C53.9649 29.8863 54.6089 29.1911 55.2924 28.5365C55.4187 28.4146 55.2084 28.1896 55.0806 28.3115C53.9515 29.3851 52.6645 30.6356 51.8689 32.0469C50.2763 32.4612 48.6751 32.8368 47.06 33.155C46.9006 33.1868 46.9283 33.4421 47.0901 33.4103C48.6443 33.1029 50.1869 32.7515 51.7141 32.3425C51.6402 32.4893 51.5647 32.636 51.5023 32.7856C51.4953 32.8028 51.4945 32.822 51.5002 32.8398C51.5059 32.8575 51.5177 32.8727 51.5334 32.8825C51.5491 32.8923 51.5678 32.8961 51.5861 32.8933C51.6044 32.8905 51.6211 32.8812 51.6333 32.8671C51.8242 32.6606 52.0008 32.4403 52.1724 32.216C53.3931 31.8793 54.6033 31.5016 55.803 31.0831C55.7675 31.1266 55.7314 31.1692 55.6959 31.2127C55.3023 31.6954 54.7794 32.1811 54.553 32.7678C54.5437 32.7901 54.5418 32.8149 54.5477 32.8383C54.5536 32.8618 54.5668 32.8827 54.5855 32.8979C54.6042 32.9131 54.6272 32.9218 54.6512 32.9227C54.6752 32.9236 54.6988 32.9166 54.7186 32.9028C55.2438 32.5614 55.6104 31.9484 56.0009 31.4618C56.4537 30.8977 56.9027 30.3305 57.3541 29.7648C57.4981 29.5833 57.222 29.3582 57.0745 29.5375Z" fill="#DE8E15"/>
<path d="M59.5081 29.4397C59.0753 29.9317 58.6422 30.424 58.2088 30.9164C57.8306 31.3471 57.3717 31.7608 57.1213 32.2822C57.0759 32.3761 57.1914 32.4529 57.2692 32.4024C57.7537 32.0897 58.1103 31.5767 58.4908 31.1469C58.9253 30.6557 59.3598 30.1645 59.7944 29.6733C59.9533 29.4948 59.6652 29.2605 59.5081 29.4397Z" fill="#DE8E15"/>
<path d="M61.4275 28.8696C60.9629 29.5773 60.3647 30.153 59.6877 30.6535C59.613 30.7087 59.6815 30.846 59.7685 30.801C60.5503 30.3967 61.1703 29.7914 61.6608 29.0604C61.7679 28.899 61.5338 28.7082 61.4275 28.8696Z" fill="#DE8E15"/>
<path d="M47.3173 27.6573C49.1472 27.3105 50.9833 26.9866 52.797 26.5585C52.8979 26.5345 52.8856 26.3769 52.777 26.3924C50.9371 26.6586 49.1126 27.0295 47.2857 27.378C47.1101 27.4113 47.1402 27.6908 47.3173 27.6573Z" fill="#DE8E15"/>
<path d="M18.704 78.7046C18.3736 78.6542 18.2942 79.171 18.6254 79.2217C18.955 79.2727 19.0344 78.7562 18.704 78.7046Z" fill="#DE8E15"/>
<path d="M23.0648 77.4506C22.937 77.6183 22.9478 77.7114 22.9293 77.9139C22.9196 77.9929 22.9409 78.0726 22.9885 78.1361C23.0362 78.1996 23.1064 78.2419 23.1845 78.2541C23.2626 78.2663 23.3423 78.2474 23.4068 78.2014C23.4713 78.1555 23.5155 78.086 23.53 78.0078C23.5716 77.81 23.6086 77.7176 23.5385 77.5243C23.5203 77.4793 23.4909 77.4397 23.453 77.4095C23.4151 77.3794 23.3701 77.3596 23.3224 77.3522C23.2747 77.3447 23.2259 77.3499 23.1807 77.3672C23.1356 77.3844 23.0957 77.4132 23.0648 77.4506Z" fill="#DE8E15"/>
</svg>
