<svg width="32" height="33" viewBox="0 0 32 33" fill="none" xmlns="http://www.w3.org/2000/svg">
<path d="M15.759 8.62958C14.1611 8.62958 12.5991 9.10169 11.2705 9.98621C9.94193 10.8707 8.90642 12.1279 8.29494 13.5989C7.68347 15.0698 7.52347 16.6883 7.8352 18.2498C8.14693 19.8113 8.91638 21.2457 10.0462 22.3714C11.1761 23.4972 12.6157 24.2639 14.1828 24.5745C15.75 24.8851 17.3744 24.7257 18.8507 24.1164C20.3269 23.5071 21.5887 22.4754 22.4764 21.1516C23.3641 19.8278 23.8379 18.2715 23.8379 16.6794C23.8397 15.6218 23.6319 14.5742 23.2265 13.5968C22.8211 12.6194 22.226 11.7313 21.4755 10.9835C20.7249 10.2357 19.8336 9.64279 18.8527 9.23886C17.8717 8.83492 16.8204 8.62787 15.759 8.62958ZM15.759 21.9124C14.7202 21.9124 13.7048 21.6055 12.8411 21.0305C11.9774 20.4555 11.3043 19.6382 10.9067 18.682C10.5092 17.7258 10.4052 16.6736 10.6079 15.6585C10.8105 14.6434 11.3107 13.7109 12.0452 12.9791C12.7797 12.2472 13.7156 11.7488 14.7343 11.5469C15.7531 11.345 16.8091 11.4486 17.7688 11.8447C18.7285 12.2408 19.5487 12.9115 20.1258 13.7721C20.7029 14.6326 21.011 15.6444 21.011 16.6794C21.0083 18.0664 20.4541 19.396 19.4698 20.3768C18.4854 21.3576 17.1511 21.9098 15.759 21.9124ZM26.0529 8.30077C26.0529 8.672 25.9425 9.0349 25.7355 9.34358C25.5285 9.65226 25.2344 9.89286 24.8902 10.035C24.546 10.1771 24.1672 10.2143 23.8018 10.142C23.4363 10.0696 23.1006 9.89093 22.8371 9.6285C22.5736 9.36607 22.3941 9.03168 22.3213 8.6676C22.2485 8.30353 22.2856 7.92612 22.4281 7.58309C22.5705 7.24006 22.8118 6.94682 23.1215 6.74043C23.4312 6.53404 23.7954 6.42378 24.1679 6.42358C24.4156 6.42292 24.6609 6.47102 24.8899 6.56512C25.1188 6.65921 25.3268 6.79744 25.502 6.97187C25.6771 7.1463 25.816 7.3535 25.9105 7.58155C26.0051 7.8096 26.0535 8.05402 26.0529 8.30077ZM31.4019 10.2098C31.4533 7.76983 30.5392 5.40764 28.8569 3.6337C27.073 1.96326 24.7046 1.05331 22.257 1.0979C19.657 0.950438 11.857 0.950438 9.25697 1.0979C6.80999 1.04994 4.44124 1.95754 2.65697 3.62673C0.97762 5.40246 0.0639101 7.76344 0.111976 10.2029C-0.0360234 12.7935 -0.0360234 20.5653 0.111976 23.1559C0.060572 25.5959 0.974752 27.9581 2.65697 29.732C4.44168 31.4013 6.80952 32.311 9.25697 32.2678C11.857 32.4153 19.657 32.4153 22.257 32.2678C24.7058 32.319 27.0766 31.4082 28.8569 29.732C30.5334 27.9545 31.4467 25.5947 31.4019 23.1559C31.5499 20.5653 31.5499 12.8014 31.4019 10.2088V10.2098ZM28.0429 25.9338C27.7755 26.6105 27.3712 27.2251 26.8551 27.7394C26.3389 28.2536 25.7221 28.6565 25.0429 28.923C22.969 29.743 18.043 29.5537 15.755 29.5537C13.467 29.5537 8.53397 29.736 6.46697 28.923C5.78781 28.6565 5.17097 28.2536 4.65485 27.7394C4.13873 27.2251 3.73438 26.6105 3.46697 25.9338C2.64397 23.8673 2.83397 18.9591 2.83397 16.6794C2.83397 14.3996 2.65097 9.48448 3.46697 7.42495C3.73438 6.74824 4.13873 6.13363 4.65485 5.61938C5.17097 5.10512 5.78781 4.70223 6.46697 4.43579C8.54097 3.61577 13.467 3.80508 15.755 3.80508C18.043 3.80508 22.976 3.62274 25.0429 4.43579C25.7221 4.70223 26.3389 5.10512 26.8551 5.61938C27.3712 6.13363 27.7755 6.74824 28.0429 7.42495C28.8659 9.49145 28.6759 14.3996 28.6759 16.6794C28.6759 18.9591 28.8649 23.8743 28.0429 25.9338Z" fill="#DE8E15"/>
</svg>
