<svg width="75" height="46" viewBox="0 0 75 46" fill="none" xmlns="http://www.w3.org/2000/svg">
<path d="M46.2656 9.49381L46.256 9.50534L46.2467 9.51705C42.0384 14.7837 39.963 21.1707 39.963 28.5901C39.963 32.9632 41.5273 36.7398 44.6202 39.8364C47.6544 42.8743 51.343 44.44 55.6074 44.4983V44.5H55.8556V44.4983C60.1199 44.44 63.8085 42.8743 66.8428 39.8364C69.9357 36.7398 71.5 32.9632 71.5 28.5901C71.5 24.9378 70.3085 21.7037 67.9428 18.9528C66.1248 16.5409 63.848 14.8031 61.1349 13.7638C62.8584 10.2718 65.4133 7.44227 68.8241 5.25676L71.1678 3.75499L68.6246 2.62334C66.8808 1.84737 64.7515 1.5 62.3074 1.5C56.0164 1.5 50.6489 4.22749 46.2656 9.49381ZM33.2852 28.5901V27.0901H32.9679C32.6828 24.0472 31.5164 21.321 29.4799 18.9529C27.6619 16.541 25.3851 14.8031 22.672 13.7638C24.3954 10.2718 26.9504 7.44227 30.3611 5.25676L32.7048 3.75499L30.1617 2.62335C28.4178 1.84737 26.2885 1.5 23.8444 1.5C17.5534 1.5 12.186 4.22749 7.80266 9.49381L7.79306 9.50534L7.7837 9.51705C3.57545 14.7837 1.5 21.1707 1.5 28.5901C1.5 32.9632 3.06432 36.7398 6.15722 39.8364C9.25018 42.9331 13.023 44.5 17.3926 44.5C21.7621 44.5 25.535 42.9331 28.628 39.8364C31.7209 36.7398 33.2852 32.9632 33.2852 28.5901Z" stroke="white" stroke-width="3"/>
</svg>
