<svg width="202" height="80" viewBox="0 0 202 80" fill="none" xmlns="http://www.w3.org/2000/svg">
<g clip-path="url(#clip0_191_48)">
<path d="M101.001 34.8246C110.53 34.8246 118.256 27.0289 118.256 17.4123C118.256 7.79576 110.53 0 101.001 0C91.471 0 83.7456 7.79576 83.7456 17.4123C83.7456 27.0289 91.471 34.8246 101.001 34.8246Z" fill="#1C1C1C"/>
<path d="M6.19137 51.6777C5.6361 51.5607 5.01548 51.4035 4.3295 51.2061C4.03161 51.1098 3.72643 51.0381 3.41699 50.9919L3.59242 47.3711H5.16977L5.5958 49.9C5.76386 50.0815 6.06459 50.2466 6.49799 50.3879C6.9777 50.5396 7.47835 50.6129 7.981 50.6051C8.84781 50.6051 9.49742 50.4127 9.92984 50.0279C10.3623 49.6432 10.579 49.1046 10.5799 48.4124C10.5915 47.9823 10.4544 47.5616 10.1922 47.2223C9.89621 46.8564 9.53404 46.5505 9.12495 46.3209C8.5223 45.977 7.90122 45.6671 7.26455 45.3926C6.28262 44.9572 5.38054 44.3577 4.59632 43.6194C3.89069 42.9361 3.53787 42.0078 3.53787 40.8346C3.53005 40.131 3.72575 39.4403 4.101 38.8472C4.51207 38.2225 5.09521 37.7328 5.7786 37.4384C6.52256 37.0923 7.43064 36.9197 8.50285 36.9207C9.06545 36.9145 9.62744 36.9598 10.1819 37.0561C10.6664 37.1454 11.1937 37.2693 11.7637 37.428C12.0127 37.4997 12.2651 37.5588 12.5199 37.605L12.4035 41.0265H10.8512L10.4458 38.6166C10.239 38.4548 10.001 38.3382 9.74704 38.2744C9.36945 38.1597 8.97677 38.1035 8.58246 38.1078C7.80705 38.1078 7.2223 38.2873 6.8282 38.6463C6.63176 38.8284 6.47718 39.0517 6.37531 39.3004C6.27344 39.5492 6.22676 39.8174 6.23854 40.0863C6.23187 40.5439 6.38889 40.9886 6.68079 41.3389C6.97837 41.6974 7.33677 41.9996 7.73924 42.2315C8.152 42.4734 8.80456 42.8161 9.69692 43.2594C10.3383 43.5673 10.9601 43.9151 11.5588 44.3007C12.0851 44.6499 12.5397 45.0984 12.8973 45.6217C13.2775 46.1831 13.4739 46.8505 13.459 47.5303C13.4591 48.25 13.2753 48.9576 12.9253 49.5846C12.5715 50.2372 11.9902 50.7787 11.1814 51.2091C10.3726 51.6395 9.34067 51.8552 8.08566 51.8562C7.44982 51.8628 6.81501 51.8029 6.19137 51.6777V51.6777Z" fill="white"/>
<path d="M24.3117 50.8847C24.0021 50.3819 23.5692 49.5826 23.0129 48.4867C22.5353 47.5466 22.1343 46.7894 21.81 46.2152C21.5362 45.7157 21.2248 45.2383 20.8783 44.7871L19.1521 46.7834V50.2674L20.8208 50.4831V51.6375H14.79V50.4623L16.3217 50.2674V38.563L14.8077 38.3086V37.0962H20.6469V38.3086L19.1521 38.563V44.9448L24.2542 38.563L22.6635 38.3086V37.0962H27.9012V38.3086L26.29 38.563L22.5279 42.8309C23.0746 43.3618 23.5566 43.9566 23.9637 44.6026C24.4679 45.3633 25.0821 46.3575 25.8065 47.5852C26.3352 48.4867 26.7357 49.1423 27.0079 49.5518C27.2791 49.9654 27.487 50.2019 27.6285 50.2674L28.5396 50.4831V51.6375H25.0694C24.8748 51.6375 24.6222 51.3865 24.3117 50.8847Z" fill="white"/>
<path d="M33.7772 37.0173H36.7447L41.2247 50.2674L42.351 50.4622V51.6374H36.6283V50.4622L38.0833 50.2674L37.3256 47.7221H32.3031L31.5468 50.2808L33.1183 50.4563V51.6315H28.1725L28.1533 50.4563L29.3164 50.2614L33.7772 37.0173ZM35.1158 40.3243L34.7664 38.7965L34.3979 40.3451L32.6716 46.352H36.9467L35.1158 40.3243Z" fill="white"/>
<path d="M44.3857 38.5631L42.9307 38.3087V37.0964H45.7626C46.1881 37.0964 46.7635 37.0701 47.4888 37.0175C47.6569 37.0041 47.9119 36.9907 48.2554 36.9788C48.5989 36.9669 48.904 36.958 49.1767 36.958C51.555 36.958 53.3358 37.5585 54.5191 38.7595C55.7024 39.9605 56.292 41.6633 56.2881 43.8679C56.2881 45.4061 55.9933 46.7761 55.4036 47.9781C54.8532 49.1376 53.9831 50.1123 52.8975 50.7852C51.8106 51.4596 50.5433 51.7963 49.0957 51.7953C48.7212 51.7953 48.133 51.767 47.3267 51.7165C46.5778 51.6644 46.0662 51.6376 45.795 51.6376H42.8467V50.4624L44.3798 50.2675L44.3857 38.5631ZM49.0411 50.5011C50.3335 50.4763 51.3482 49.9512 52.0853 48.9257C52.8223 47.9003 53.1909 46.3631 53.1909 44.3142C53.1909 42.3684 52.8292 40.8644 52.1059 39.8023C51.3826 38.7401 50.2573 38.2086 48.7301 38.2076C48.422 38.2066 48.1142 38.226 47.8087 38.2656C47.5139 38.3043 47.3149 38.3311 47.1984 38.3444V50.3256C47.8032 50.4601 48.4221 50.519 49.0411 50.5011V50.5011Z" fill="white"/>
<path d="M62.1522 37.0173H65.1197L69.5997 50.2674L70.726 50.4622V51.6374H65.0106V50.4622L66.4656 50.2674L65.7079 47.7221H60.6781L59.9218 50.2808L61.4933 50.4563V51.6315H56.5475L56.5283 50.4563L57.6914 50.2614L62.1522 37.0173ZM63.4908 40.3243L63.1414 38.7965L62.7729 40.3451L61.0466 46.352H65.3143L63.4908 40.3243Z" fill="white"/>
<path d="M71.2271 50.4623L72.7602 50.2675V38.5631L71.3052 38.2908V37.1007H74.1179C74.3641 37.1007 74.6353 37.0933 74.9316 37.0799C75.2279 37.0665 75.4564 37.0561 75.6112 37.0412C76.2834 36.9907 76.8407 36.9624 77.28 36.9624C78.6106 36.9624 79.6774 37.0993 80.4804 37.373C81.2833 37.6467 81.8651 38.0642 82.2258 38.6255C82.5884 39.1878 82.7692 39.9257 82.7683 40.8391C82.7717 41.7261 82.5231 42.5955 82.0518 43.3442C81.5751 44.1106 80.8359 44.6734 79.9747 44.9255C80.5403 45.1887 81.0188 45.6106 81.3531 46.1409C81.8348 46.8712 82.2624 47.6365 82.6326 48.4303C82.957 49.07 83.2046 49.5296 83.38 49.8093C83.5555 50.089 83.725 50.2556 83.8945 50.2883L84.5328 50.4847V51.639H81.2366C81.0288 51.639 80.8135 51.4263 80.588 51.0023C80.258 50.3502 79.9628 49.6809 79.7035 48.9971C79.2779 47.928 78.9094 47.0929 78.5979 46.4919C78.2863 45.891 77.9566 45.5191 77.6087 45.3763H75.6112V50.269L77.3935 50.4623V51.6375H71.2271V50.4623ZM79.1227 43.3784C79.5354 42.8444 79.7433 42.0396 79.7433 40.9715C79.7433 40.0174 79.5394 39.3123 79.1315 38.8561C78.7246 38.4009 78.0244 38.1703 77.0279 38.1703C76.7195 38.1678 76.4113 38.1847 76.1051 38.2209C75.8544 38.2536 75.6893 38.27 75.6112 38.27V44.1415C75.9856 44.1765 76.3616 44.1894 76.7375 44.1802H77.3935C78.1325 44.1812 78.7089 43.9139 79.1227 43.3784Z" fill="white"/>
<path d="M86.7631 38.563L85.2713 38.3086V37.0962H91.4775V38.3086L89.6156 38.563V50.248L93.7639 50.071L94.9874 46.4115L96.5574 46.6272L95.9545 51.6375H85.2314V50.4623L86.7631 50.2674V38.563Z" fill="white"/>
<path d="M99.3718 38.563L97.7236 38.3086V37.0962H103.928V38.3086L102.223 38.563V50.2674L103.928 50.4831V51.6375H97.7236V50.4623L99.3718 50.2674V38.563Z" fill="white"/>
<path d="M105.992 53.4047C106.453 52.953 106.791 52.3896 106.974 51.7684C107.131 51.2488 107.235 50.7145 107.285 50.1737C107.35 49.5528 107.382 48.6821 107.381 47.5614V38.5838L105.635 38.3086V37.0962H111.843V38.3086L110.213 38.563V46.2553C110.213 47.6507 110.197 48.7302 110.165 49.4938C110.15 50.1086 110.081 50.7208 109.96 51.3236C109.702 52.3609 109.116 53.2855 108.292 53.9581C107.397 54.6786 106.329 55.1472 105.196 55.3163L104.549 54.2973C105.09 54.1134 105.584 53.8083 105.992 53.4047V53.4047Z" fill="white"/>
<path d="M116.264 51.6777C115.709 51.5607 115.088 51.4035 114.402 51.2062C114.105 51.1097 113.8 51.0381 113.491 50.9919L113.665 47.3711H115.237L115.663 49.9001C115.831 50.0815 116.131 50.2467 116.565 50.388C117.045 50.5397 117.545 50.613 118.048 50.6052C118.915 50.6052 119.565 50.4128 119.998 50.028C120.432 49.6432 120.648 49.1047 120.647 48.4125C120.658 47.9824 120.521 47.5616 120.259 47.2224C119.963 46.8568 119.602 46.5509 119.193 46.3209C118.59 45.9773 117.968 45.6674 117.331 45.3926C116.35 44.9576 115.448 44.3581 114.665 43.6194C113.96 42.9331 113.607 42.0039 113.606 40.8317C113.599 40.1281 113.795 39.4377 114.169 38.8442C114.58 38.2192 115.163 37.7294 115.847 37.4355C116.59 37.0894 117.498 36.9168 118.573 36.9178C119.135 36.9116 119.696 36.9569 120.25 37.0532C120.734 37.1454 121.261 37.2694 121.831 37.4251C122.08 37.4972 122.333 37.5562 122.588 37.6021L122.472 41.0236H120.92L120.511 38.6137C120.305 38.4515 120.068 38.3349 119.814 38.2715C119.436 38.1568 119.044 38.1006 118.649 38.1049C117.874 38.1049 117.289 38.2844 116.894 38.6434C116.697 38.8255 116.543 39.0488 116.441 39.2975C116.339 39.5463 116.292 39.8145 116.304 40.0834C116.296 40.54 116.45 40.9844 116.739 41.336C117.036 41.6941 117.394 41.9962 117.796 42.2285C118.211 42.471 118.863 42.8131 119.756 43.2564C120.397 43.5643 121.019 43.9121 121.617 44.2978C122.144 44.6469 122.599 45.0954 122.957 45.6187C123.337 46.1801 123.533 46.8476 123.518 47.5273C123.518 48.2469 123.334 48.9543 122.985 49.5817C122.628 50.2343 122.046 50.7757 121.239 51.2062C120.433 51.6366 119.401 51.8523 118.144 51.8533C117.513 51.8598 116.883 51.8009 116.264 51.6777V51.6777Z" fill="white"/>
<path d="M134.379 50.8847C134.068 50.3819 133.635 49.5826 133.078 48.4867C132.601 47.5466 132.194 46.7894 131.877 46.2152C131.602 45.7163 131.291 45.239 130.945 44.7871L129.219 46.7834V50.2674L130.888 50.4831V51.6375H124.861V50.4623L126.396 50.2674V38.563L124.882 38.3086V37.0962H130.714V38.3086L129.219 38.563V44.9448L134.32 38.563L132.73 38.3086V37.0962H137.967V38.3086L136.36 38.563L132.596 42.8309C133.143 43.3614 133.625 43.9562 134.032 44.6026C134.537 45.3633 135.151 46.3575 135.875 47.5852C136.404 48.4867 136.806 49.1428 137.076 49.5518C137.346 49.9609 137.557 50.2019 137.697 50.2674L138.611 50.4831V51.6375H135.135C134.94 51.6375 134.688 51.3865 134.379 50.8847Z" fill="white"/>
<path d="M143.844 37.0173H146.812L151.293 50.2674L152.416 50.4622V51.6374H146.695V50.4622L148.149 50.2674L147.394 47.7221H142.37L141.612 50.2808L143.185 50.4563V51.6315H138.239L138.219 50.4563L139.382 50.2614L143.844 37.0173ZM145.184 40.3243L144.833 38.7965L144.468 40.3451L142.741 46.352H147.017L145.184 40.3243Z" fill="white"/>
<path d="M159.062 38.563L157.529 38.3086V37.0962H161.932L167.711 45.9028L168.799 48.1342V38.563L167.13 38.3086V37.0962H171.94V38.3086L170.447 38.563V51.6375H168.1L162.068 42.3801L160.71 39.7962V50.2674L162.669 50.4623V51.6375H157.529V50.4623L159.062 50.2674V38.563Z" fill="white"/>
<path d="M174.488 49.8568C173.442 48.5259 172.919 46.712 172.919 44.4152C172.919 42.9147 173.194 41.5972 173.743 40.4626C174.246 39.3791 175.052 38.4675 176.061 37.84C177.097 37.2156 178.286 36.8971 179.493 36.9206C181.625 36.9206 183.226 37.5559 184.294 38.8263C185.362 40.0967 185.895 41.8748 185.892 44.1608C185.892 45.6752 185.61 47.014 185.047 48.1773C184.539 49.2983 183.716 50.244 182.68 50.8967C181.643 51.5495 180.44 51.8805 179.219 51.8487C177.113 51.8517 175.537 51.1877 174.488 49.8568ZM176.932 39.698C176.337 40.7562 176.039 42.3226 176.039 44.3973C176.039 46.4462 176.326 48.0018 176.901 49.0639C177.476 50.1261 178.301 50.6576 179.376 50.6586C180.423 50.6586 181.244 50.1008 181.838 48.9851C182.433 47.8694 182.73 46.2613 182.731 44.1608C182.731 42.1257 182.446 40.6089 181.876 39.6102C181.306 38.6116 180.485 38.1122 179.413 38.1122C178.353 38.1122 177.526 38.6408 176.932 39.698V39.698Z" fill="white"/>
<path d="M188.763 49.8657C187.597 48.5438 187.015 46.7334 187.017 44.4345C187.017 42.9202 187.323 41.5992 187.936 40.4716C188.518 39.3762 189.397 38.4703 190.469 37.8594C191.583 37.2347 192.84 36.9171 194.115 36.9385C194.668 36.9348 195.22 36.9691 195.769 37.0412C196.301 37.1126 196.926 37.2078 197.651 37.3238C198.194 37.4161 198.489 37.4622 198.536 37.4622L198.323 41.4936H196.538L195.937 38.6939C195.725 38.515 195.471 38.3941 195.2 38.3428C194.761 38.2414 194.311 38.1954 193.861 38.206C192.763 38.206 191.879 38.7182 191.208 39.7427C190.536 40.7671 190.204 42.2512 190.21 44.195C190.21 46.0734 190.527 47.6066 191.16 48.7947C191.794 49.9828 192.719 50.5778 193.933 50.5798C194.388 50.5978 194.843 50.5415 195.281 50.4132C195.58 50.3129 195.855 50.1502 196.087 49.9357L196.939 47.9185L198.57 48.0747L198.18 51.1094C197.908 51.1353 197.639 51.1851 197.376 51.2581C197.112 51.3295 196.947 51.3727 196.882 51.3831C196.363 51.5319 195.884 51.6434 195.437 51.7267C194.896 51.8195 194.347 51.8624 193.798 51.8547C191.603 51.8537 189.925 51.1907 188.763 49.8657ZM192.154 35.3334L194.675 32.4177L196.634 33.6509C196.151 34.1982 195.607 34.6874 195.012 35.1088C194.506 35.4945 193.956 35.8195 193.375 36.0772L192.154 35.3334Z" fill="white"/>
<path d="M63.165 74.0095L63.8785 73.9172V68.4726L63.2019 68.3447V67.7898H64.508C64.6245 67.7898 64.7498 67.7898 64.8883 67.7809C65.0269 67.772 65.1316 67.7675 65.2038 67.7601C65.5163 67.7377 65.7758 67.7244 65.9807 67.7244C66.4834 67.7091 66.9854 67.7738 67.4681 67.9163C67.7969 68.0121 68.0838 68.2177 68.2819 68.4994C68.462 68.8105 68.5496 69.1674 68.5339 69.5273C68.5355 69.9409 68.4193 70.3462 68.1993 70.6951C67.9789 71.0527 67.6348 71.3151 67.2337 71.4314C67.4969 71.553 67.7196 71.7488 67.875 71.9953C68.0966 72.3355 68.2937 72.6915 68.4646 73.0604C68.615 73.3579 68.731 73.5721 68.8126 73.703C68.8612 73.8053 68.9465 73.8851 69.0514 73.9262L69.3462 74.0184V74.5539H67.8204C67.7246 74.5539 67.6244 74.4557 67.5182 74.2564C67.3652 73.9521 67.2284 73.6398 67.1084 73.3207C66.9094 72.8253 66.7384 72.4356 66.5939 72.1559C66.4495 71.8762 66.2991 71.7096 66.1325 71.6382H65.2038V73.9142L66.0338 74.0065V74.5509H63.165V74.0095ZM66.8372 70.7129C67.0303 70.463 67.132 70.0911 67.132 69.5928C67.132 69.1465 67.0362 68.8222 66.8475 68.608C66.6588 68.3938 66.333 68.2896 65.8687 68.2896C65.7253 68.288 65.582 68.2959 65.4397 68.3134C65.3227 68.3283 65.2461 68.3358 65.2097 68.3358V71.067C65.3836 71.084 65.5584 71.09 65.733 71.0848H66.0397C66.1923 71.0909 66.3441 71.0604 66.4828 70.9957C66.6214 70.9311 66.7429 70.8342 66.8372 70.7129V70.7129Z" fill="white"/>
<path d="M73.9928 68.4726L73.2705 68.3536V67.7898H78.0807L78.1986 69.3176H77.5662L77.2714 68.4161L75.3225 68.3357V70.7843L76.5771 70.7575L76.7245 70.0137H77.3038V72.2154H76.7245L76.5771 71.4329L75.3225 71.4061V73.9722L77.5073 73.8637L78.0291 72.6989L78.7072 72.8893L78.4728 74.5554H73.2794V74.0109L73.9928 73.9187V68.4726Z" fill="white"/>
<path d="M84.2528 74.5732C83.9933 74.5182 83.7059 74.4468 83.386 74.3546C83.2476 74.3091 83.1055 74.2757 82.9614 74.2549L83.0425 72.5694H83.7796L83.9786 73.7432C84.0973 73.8529 84.2412 73.9311 84.3973 73.9708C84.6203 74.0419 84.8533 74.076 85.0872 74.0719C85.4896 74.0719 85.7933 73.9827 85.9938 73.8041C86.0961 73.709 86.1763 73.5921 86.2286 73.462C86.2808 73.3318 86.3038 73.1916 86.296 73.0514C86.3004 72.8528 86.2363 72.6587 86.1147 72.5025C85.9774 72.3323 85.8093 72.1899 85.6193 72.083C85.3383 71.9231 85.049 71.7786 84.7525 71.6501C84.2962 71.4487 83.8774 71.1699 83.5142 70.826C83.3466 70.6563 83.2161 70.4531 83.131 70.2294C83.0459 70.0058 83.0083 69.7666 83.0204 69.5273C83.0167 69.1999 83.1085 68.8787 83.2843 68.6035C83.4751 68.3132 83.7456 68.0853 84.0626 67.9475C84.4638 67.7766 84.8966 67.6944 85.3319 67.7065C85.5927 67.7042 85.8532 67.7256 86.1102 67.7705C86.3358 67.8121 86.582 67.8716 86.8473 67.943C87.0036 67.9862 87.12 68.0129 87.1982 68.0263L87.1407 69.6195H86.4183L86.2296 68.4994C86.1335 68.4227 86.0217 68.3683 85.9024 68.3402C85.7276 68.2863 85.5456 68.2602 85.3628 68.2629C85.0688 68.2408 84.7772 68.3299 84.5447 68.5128C84.4534 68.5974 84.3815 68.7012 84.3342 68.8169C84.2868 68.9325 84.2651 69.0572 84.2705 69.1822C84.2635 69.3956 84.3343 69.6041 84.4695 69.7683C84.6076 69.9348 84.7738 70.0753 84.9604 70.1833C85.152 70.2964 85.4557 70.4556 85.8714 70.6609C86.1701 70.804 86.4596 70.966 86.7382 71.1458C86.9835 71.3074 87.1953 71.5156 87.3618 71.7587C87.5394 72.0212 87.6307 72.3335 87.6227 72.6513C87.6228 72.9867 87.5375 73.3166 87.3751 73.6093C87.1833 73.9364 86.9003 74.1992 86.5613 74.365C86.1131 74.5798 85.6199 74.6819 85.124 74.6625C84.8314 74.6622 84.5395 74.6323 84.2528 74.5732Z" fill="white"/>
<path d="M94.0425 68.3893L92.7512 68.4339L92.4003 70.4199H91.6411L91.7959 67.7898H97.6174L97.725 70.4199H97.0115L96.6592 68.4295L95.387 68.3848V73.9127L96.6503 74.005V74.5494H92.8882V74.005L94.0425 73.9127V68.3893Z" fill="white"/>
<path d="M102.534 73.7254C102.048 73.1055 101.804 72.2626 101.804 71.1964C101.79 70.5618 101.921 69.9323 102.189 69.3578C102.422 68.8527 102.796 68.4279 103.267 68.1365C103.749 67.8461 104.302 67.6977 104.863 67.708C105.856 67.708 106.6 68.0055 107.097 68.6006C107.593 69.1956 107.839 70.0227 107.834 71.0819C107.847 71.7277 107.714 72.3679 107.443 72.9533C107.206 73.4746 106.823 73.9143 106.341 74.2176C105.859 74.521 105.299 74.6747 104.731 74.6596C103.755 74.6556 103.022 74.3442 102.534 73.7254ZM103.671 69.0007C103.396 69.4917 103.259 70.2201 103.258 71.186C103.257 72.152 103.39 72.8759 103.657 73.3579C103.926 73.8538 104.31 74.1017 104.81 74.1017C105.31 74.1017 105.692 73.8419 105.956 73.3222C106.233 72.8045 106.371 72.0568 106.371 71.0789C106.371 70.1313 106.237 69.4262 105.973 68.9621C105.867 68.7488 105.703 68.5703 105.5 68.4471C105.297 68.3239 105.064 68.2611 104.828 68.2659C104.334 68.2639 103.949 68.5088 103.671 69.0007V69.0007Z" fill="white"/>
<path d="M112.064 74.0095L112.778 73.9172V68.4726L112.101 68.3447V67.7898H113.409C113.522 67.7898 113.648 67.7898 113.786 67.7809C113.925 67.772 114.032 67.7675 114.103 67.7601C114.416 67.7378 114.675 67.7244 114.879 67.7244C115.382 67.709 115.884 67.7738 116.368 67.9163C116.696 68.0121 116.983 68.2177 117.181 68.4994C117.361 68.8105 117.449 69.1674 117.433 69.5273C117.435 69.9409 117.319 70.3462 117.099 70.6951C116.879 71.0531 116.534 71.3155 116.133 71.4315C116.396 71.5534 116.619 71.7491 116.774 71.9953C116.996 72.3356 117.193 72.6915 117.364 73.0604C117.511 73.3579 117.631 73.5721 117.71 73.703C117.79 73.8339 117.871 73.9083 117.949 73.9262L118.244 74.0184V74.5539H116.711C116.614 74.5539 116.512 74.4558 116.407 74.2564C116.254 73.9521 116.117 73.6398 115.998 73.3207C115.8 72.8254 115.628 72.4356 115.483 72.1559C115.339 71.8763 115.188 71.7097 115.022 71.6382H114.1V73.9143L114.932 74.0065V74.551H112.064V74.0095ZM115.737 70.713C115.928 70.463 116.031 70.0911 116.031 69.5928C116.031 69.1465 115.934 68.8222 115.745 68.608C115.557 68.3938 115.229 68.2897 114.767 68.2897C114.623 68.2879 114.48 68.2958 114.338 68.3135C114.22 68.3283 114.144 68.3358 114.108 68.3358V71.067C114.282 71.0841 114.456 71.09 114.631 71.0849H114.939C115.092 71.0909 115.244 71.0604 115.382 70.9957C115.521 70.9311 115.642 70.8342 115.737 70.713V70.713Z" fill="white"/>
<path d="M124.291 67.7512H125.671L127.757 73.9173L128.279 74.0095V74.554H125.616V74.0095L126.293 73.9173L125.944 72.7347H123.605L123.252 73.9247L123.989 74.0081V74.5525H121.682L121.673 74.0081L122.215 73.9158L124.291 67.7512ZM124.913 69.2909L124.751 68.5813L124.581 69.2998L123.776 72.0965H125.762L124.913 69.2909Z" fill="white"/>
<path d="M132.846 68.4726L132.132 68.3536V67.7898H134.181L136.869 71.8866L137.374 72.928V68.4726L136.599 68.3536V67.7898H138.837V68.3536L138.142 68.4726V74.5539H137.05L134.249 70.2488L133.617 69.0453V73.9172L134.531 74.0094V74.5539H132.132V74.0094L132.846 73.9172V68.4726Z" fill="white"/>
<path d="M202 60.3906H0V62.0047H202V60.3906Z" fill="#DE8E15"/>
<path d="M48.6015 60.3965V62.0105C50.2068 62.0105 51.7761 62.4909 53.1109 63.3909C54.4457 64.2909 55.486 65.5701 56.1004 67.0668C56.7147 68.5634 56.8754 70.2103 56.5622 71.7992C56.2491 73.388 55.476 74.8475 54.3409 75.9929C53.2057 77.1384 51.7595 77.9185 50.185 78.2346C48.6105 78.5506 46.9785 78.3884 45.4953 77.7685C44.0122 77.1485 42.7445 76.0987 41.8526 74.7518C40.9608 73.4048 40.4847 71.8212 40.4847 70.2012H38.8838C38.8835 72.1408 39.4532 74.0369 40.5208 75.6497C41.5884 77.2625 43.106 78.5196 44.8817 79.2621C46.6573 80.0045 48.6112 80.1989 50.4964 79.8207C52.3815 79.4425 54.1132 78.5087 55.4724 77.1373C56.8316 75.7659 57.7572 74.0186 58.1323 72.1164C58.5074 70.2141 58.315 68.2423 57.5796 66.4504C56.8441 64.6584 55.5986 63.1268 54.0005 62.0492C52.4024 60.9716 50.5235 60.3965 48.6015 60.3965V60.3965Z" fill="#DE8E15"/>
<path d="M48.6001 69.3889H28.9849V71.003H48.6001V69.3889Z" fill="#DE8E15"/>
<path d="M22.0459 69.3889C22.0459 69.3889 23.8149 70.5864 26.548 70.6474C29.2811 70.7084 31.2343 72.6125 31.2343 72.6125C31.2343 72.6125 31.9714 71.1993 32.4505 71V69.3889H22.0459Z" fill="#DE8E15"/>
<path d="M152.455 60.3965V62.0105C150.85 62.0105 149.28 62.4909 147.946 63.3909C146.611 64.2909 145.57 65.5701 144.956 67.0668C144.342 68.5634 144.181 70.2103 144.494 71.7992C144.807 73.388 145.58 74.8475 146.716 75.9929C147.851 77.1384 149.297 77.9185 150.871 78.2346C152.446 78.5506 154.078 78.3884 155.561 77.7685C157.044 77.1485 158.312 76.0987 159.204 74.7518C160.096 73.4048 160.572 71.8212 160.572 70.2012H162.173C162.173 72.1408 161.603 74.0369 160.536 75.6497C159.468 77.2625 157.95 78.5196 156.175 79.2621C154.399 80.0045 152.445 80.1989 150.56 79.8207C148.675 79.4425 146.943 78.5087 145.584 77.1373C144.225 75.7659 143.299 74.0186 142.924 72.1164C142.549 70.2141 142.741 68.2423 143.477 66.4504C144.212 64.6584 145.458 63.1268 147.056 62.0492C148.654 60.9716 150.533 60.3965 152.455 60.3965Z" fill="#DE8E15"/>
<path d="M172.07 69.3889H152.455V71.003H172.07V69.3889Z" fill="#DE8E15"/>
<path d="M179.011 69.3889C179.011 69.3889 177.242 70.5864 174.509 70.6474C171.775 70.7084 169.824 72.6125 169.824 72.6125C169.824 72.6125 169.087 71.1993 168.606 71V69.3889H179.011Z" fill="#DE8E15"/>
<path d="M95.0703 12.4111L97.4703 25.1018H98.8884L98.1336 12.4111H95.0703Z" fill="#DE8E15"/>
<path d="M99.8023 25.1018H102.182L102.935 12.4111H99.0254L99.8023 25.1018Z" fill="#DE8E15"/>
<path d="M101.001 6.29733e-06C96.5469 0.010274 92.2696 1.75878 89.0644 4.87948C85.8592 8.00018 83.9745 12.2511 83.805 16.7423C83.6355 21.2335 85.1942 25.6168 88.1549 28.9745C91.1155 32.3323 95.2486 34.4041 99.6888 34.7562V30.347H99.1404L99.4824 29.3548H102.821L103.165 30.347H102.615V34.7488C107.066 34.3748 111.199 32.2733 114.146 28.8862C117.092 25.4992 118.622 21.0909 118.413 16.5889C118.204 12.0869 116.272 7.84233 113.025 4.74832C109.777 1.65431 105.467 -0.0478606 101.001 6.29733e-06V6.29733e-06ZM108.469 12.411H107.879L105.364 25.6506C105.706 25.6968 105.913 25.7191 105.913 25.7191V26.204C105.913 26.204 103.306 27.5429 102.802 28.1885H99.506C99.0033 27.5429 96.3955 26.204 96.3955 26.204V25.7191L96.9218 25.6506L94.429 12.411H93.8585L92.943 10.7955L94.3155 11.7654L97.2196 8.07319L97.1282 7.47816H99.8937V6.36543H99.6431V5.83585H99.9173C99.9616 5.65424 100.044 5.48421 100.158 5.33701C100.272 5.18981 100.416 5.06879 100.581 4.98197C100.581 4.80443 100.651 4.63416 100.775 4.50862C100.899 4.38308 101.068 4.31255 101.244 4.31255C101.42 4.31255 101.589 4.38308 101.713 4.50862C101.838 4.63416 101.907 4.80443 101.907 4.98197C102.077 5.06414 102.227 5.18335 102.346 5.33101C102.465 5.47867 102.55 5.6511 102.594 5.83585H102.845V6.36543H102.616V7.47369H105.179L105.087 8.06873L107.99 11.7609L109.362 10.791L108.469 12.411Z" fill="#DE8E15"/>
<path d="M103.096 25.1018H104.81L107.212 12.4111H103.85L103.096 25.1018Z" fill="#DE8E15"/>
<path d="M121.44 26.7278C121.194 27.2767 120.939 27.8182 120.653 28.3418H201.999V26.7278H121.44Z" fill="#DE8E15"/>
<path d="M78.7407 20.1733H49.7631C48.158 20.8637 46.4746 21.3513 44.751 21.6252V21.7874H78.9854C78.8822 21.2563 78.8056 20.7163 78.7407 20.1733Z" fill="#DE8E15"/>
<path d="M152.236 20.1733H123.259C123.194 20.7163 123.111 21.2563 123.016 21.7874H157.249V21.6252C155.525 21.3512 153.842 20.8636 152.236 20.1733V20.1733Z" fill="#DE8E15"/>
<path d="M80.56 26.7278H0V28.3418H81.3472C81.0612 27.8182 80.8062 27.2767 80.56 26.7278Z" fill="#DE8E15"/>
<path d="M99.4796 35.2354V30.5509H98.8457L99.3351 29.1377H102.97L103.458 30.5509H102.824V35.2354H99.4796Z" fill="#1C1C1C"/>
<path d="M102.821 29.3474L103.165 30.3396H102.615V35.0241H99.6885V30.3396H99.1401L99.4821 29.3474H102.821Z" fill="#1C1C1C"/>
<path d="M99.4043 28.4131L99.3409 28.3313C98.9517 27.8315 97.0147 26.7708 96.3012 26.3975L96.1877 26.3394V25.5391L96.6756 25.4766L94.2565 12.6223H93.7361L92.2988 10.0845L94.2742 11.4783L96.9999 8.01373L96.8849 7.26993H99.6859V6.57671H99.4338V5.62465H99.764C99.8808 5.30274 100.101 5.02979 100.391 4.84961C100.427 4.64698 100.533 4.46369 100.689 4.33171C100.846 4.19974 101.044 4.12744 101.248 4.12744C101.452 4.12744 101.649 4.19974 101.806 4.33171C101.963 4.46369 102.069 4.64698 102.105 4.84961C102.402 5.02552 102.629 5.29924 102.749 5.62465H103.056V6.57671H102.827V7.26249H105.423L105.308 8.00629L108.033 11.4709L109.989 10.0904L108.594 12.6193H108.05L105.609 25.4737L105.935 25.5123L106.121 25.5332V26.3365L106.006 26.3945C105.292 26.7604 103.352 27.8211 102.966 28.3284L102.897 28.4131H99.4043ZM104.638 24.8994L106.959 12.6297H104.046L103.318 24.8994H104.638ZM101.984 24.8994L102.721 12.6297H99.248L99.9998 24.8994H101.984ZM98.6657 24.8994L97.9375 12.6297H95.3223L97.6427 24.8994H98.6657Z" fill="#1C1C1C"/>
<path d="M107.988 11.7654L105.086 8.07315L105.177 7.47811H102.615V6.36538H102.843V5.8358H102.593C102.548 5.65105 102.463 5.47862 102.344 5.33096C102.226 5.1833 102.076 5.06409 101.906 4.98192C101.906 4.80438 101.836 4.63411 101.711 4.50857C101.587 4.38303 101.418 4.3125 101.242 4.3125C101.066 4.3125 100.898 4.38303 100.773 4.50857C100.649 4.63411 100.579 4.80438 100.579 4.98192C100.415 5.06874 100.271 5.18976 100.156 5.33696C100.042 5.48416 99.96 5.65419 99.9157 5.8358H99.6415V6.36538H99.8921V7.47364H97.128L97.2194 8.06868L94.3153 11.7609L92.9429 10.791L93.8583 12.4065H94.4288L96.9216 25.6461L96.3954 25.7146V26.1995C96.3954 26.1995 99.0032 27.5384 99.5058 28.184H102.798C103.302 27.5384 105.908 26.1995 105.908 26.1995V25.7146C105.908 25.7146 105.702 25.6922 105.36 25.6461L107.875 12.4065H108.464L109.356 10.791L107.988 11.7654ZM97.47 25.1017L95.0701 12.411H98.1334L98.8882 25.1017H97.47ZM102.187 25.1017H99.8007L99.0238 12.411H102.933L102.187 25.1017ZM104.816 25.1017H103.095L103.85 12.411H107.211L104.816 25.1017Z" fill="#1C1C1C"/>
</g>
<defs>
<clipPath id="clip0_191_48">
<rect width="202" height="80" fill="white"/>
</clipPath>
</defs>
</svg>
