<svg width="230" height="65" viewBox="0 0 230 65" fill="none" xmlns="http://www.w3.org/2000/svg">
<mask id="path-1-inside-1_36_29" fill="white">
<path fill-rule="evenodd" clip-rule="evenodd" d="M221 65H9C9 60.0294 4.97056 56 0 56V9C4.97056 9 9 4.97056 9 0H221C221 4.97056 225.029 9 230 9V56C225.029 56 221 60.0294 221 65Z"/>
</mask>
<path fill-rule="evenodd" clip-rule="evenodd" d="M221 65H9C9 60.0294 4.97056 56 0 56V9C4.97056 9 9 4.97056 9 0H221C221 4.97056 225.029 9 230 9V56C225.029 56 221 60.0294 221 65Z" fill="#FFF8ED"/>
<path d="M9 65H8V66H9V65ZM221 65V66H222V65H221ZM0 56H-1V57H0V56ZM0 9V8H-1V9H0ZM9 0V-1H8V0H9ZM221 0H222V-1H221V0ZM230 9H231V8H230V9ZM230 56V57H231V56H230ZM9 66H221V64H9V66ZM0 57C4.41828 57 8 60.5817 8 65H10C10 59.4772 5.52285 55 0 55V57ZM-1 9V56H1V9H-1ZM8 0C8 4.41828 4.41828 8 0 8V10C5.52285 10 10 5.52285 10 0H8ZM221 -1H9V1H221V-1ZM230 8C225.582 8 222 4.41828 222 0H220C220 5.52285 224.477 10 230 10V8ZM231 56V9H229V56H231ZM222 65C222 60.5817 225.582 57 230 57V55C224.477 55 220 59.4772 220 65H222Z" fill="#DE8E15" mask="url(#path-1-inside-1_36_29)"/>
</svg>
